Bungee-Shade.ufo
<glyph name="exclam" format="1">
  <advance width="524"/>
  <unicode hex="0021"/>
  <outline>
    <contour>
      <point x="290" y="-119" type="line" smooth="yes"/>
      <point x="304" y="-119"/>
      <point x="315" y="-115"/>
      <point x="322" y="-109" type="curve"/>
      <point x="452" y="-1" type="line" smooth="yes"/>
      <point x="460" y="7"/>
      <point x="465" y="18"/>
      <point x="465" y="36" type="curve" smooth="yes"/>
      <point x="465" y="167" type="line" smooth="yes"/>
      <point x="465" y="200"/>
      <point x="451" y="213"/>
      <point x="419" y="213" type="curve" smooth="yes"/>
      <point x="379" y="213" type="line"/>
      <point x="438" y="262" type="line" smooth="yes"/>
      <point x="446" y="270"/>
      <point x="451" y="281"/>
      <point x="452" y="297" type="curve" smooth="yes"/>
      <point x="466" y="684" type="line" smooth="yes"/>
      <point x="467" y="716"/>
      <point x="454" y="730"/>
      <point x="422" y="730" type="curve" smooth="yes"/>
      <point x="231" y="730" type="line" smooth="yes"/>
      <point x="217" y="730"/>
      <point x="207" y="727"/>
      <point x="200" y="721" type="curve" smooth="yes"/>
      <point x="71" y="613" type="line" smooth="yes"/>
      <point x="62" y="605"/>
      <point x="57" y="593"/>
      <point x="58" y="574" type="curve" smooth="yes"/>
      <point x="73" y="189" type="line" smooth="yes"/>
      <point x="74" y="157"/>
      <point x="88" y="143"/>
      <point x="120" y="143" type="curve" smooth="yes"/>
      <point x="131" y="143" type="line"/>
      <point x="73" y="95" type="line" smooth="yes"/>
      <point x="65" y="88"/>
      <point x="60" y="76"/>
      <point x="60" y="58" type="curve" smooth="yes"/>
      <point x="60" y="-73" type="line" smooth="yes"/>
      <point x="60" y="-105"/>
      <point x="74" y="-119"/>
      <point x="106" y="-119" type="curve" smooth="yes"/>
    </contour>
    <contour>
      <point x="404" y="262" type="curve" smooth="yes"/>
      <point x="249" y="262" type="line" smooth="yes"/>
      <point x="224" y="262"/>
      <point x="213" y="273"/>
      <point x="212" y="298" type="curve" smooth="yes"/>
      <point x="197" y="684" type="line" smooth="yes"/>
      <point x="196" y="709"/>
      <point x="206" y="720"/>
      <point x="231" y="720" type="curve" smooth="yes"/>
      <point x="422" y="720" type="line" smooth="yes"/>
      <point x="447" y="720"/>
      <point x="457" y="709"/>
      <point x="456" y="684" type="curve" smooth="yes"/>
      <point x="442" y="298" type="line" smooth="yes"/>
      <point x="441" y="273"/>
      <point x="429" y="262"/>
    </contour>
    <contour>
      <point x="419" y="0" type="curve" smooth="yes"/>
      <point x="235" y="0" type="line" smooth="yes"/>
      <point x="210" y="0"/>
      <point x="199" y="11"/>
      <point x="199" y="36" type="curve"/>
      <point x="199" y="167" type="line"/>
      <point x="199" y="193"/>
      <point x="210" y="203"/>
      <point x="235" y="203" type="curve" smooth="yes"/>
      <point x="419" y="203" type="line" smooth="yes"/>
      <point x="444" y="203"/>
      <point x="455" y="193"/>
      <point x="455" y="167" type="curve" smooth="yes"/>
      <point x="455" y="36" type="line" smooth="yes"/>
      <point x="455" y="11"/>
      <point x="444" y="0"/>
    </contour>
    <contour>
      <point x="322" y="630" type="line"/>
      <point x="322" y="352" type="line"/>
      <point x="332" y="352" type="line"/>
      <point x="332" y="630" type="line"/>
    </contour>
    <contour>
      <point x="332" y="80" type="line"/>
      <point x="332" y="123" type="line"/>
      <point x="322" y="123" type="line"/>
      <point x="322" y="80" type="line"/>
    </contour>
  </outline>
</glyph>
<glyph name="quotedbl" format="1">
  <advance width="746"/>
  <unicode hex="0022"/>
  <outline>
    <contour>
      <point x="265" y="235" type="curve" smooth="yes"/>
      <point x="340" y="298" type="line"/>
      <point x="340" y="277" type="line" smooth="yes"/>
      <point x="341" y="233"/>
      <point x="349" y="226"/>
      <point x="392" y="226" type="curve" smooth="yes"/>
      <point x="536" y="226" type="line" smooth="yes"/>
      <point x="556" y="226"/>
      <point x="567" y="229"/>
      <point x="575" y="235" type="curve" smooth="yes"/>
      <point x="704" y="343" type="line" smooth="yes"/>
      <point x="712" y="351"/>
      <point x="716" y="362"/>
      <point x="717" y="385" type="curve" smooth="yes"/>
      <point x="725" y="679" type="line" smooth="yes"/>
      <point x="726" y="723"/>
      <point x="719" y="730"/>
      <point x="676" y="730" type="curve" smooth="yes"/>
      <point x="511" y="730" type="line" smooth="yes"/>
      <point x="492" y="730"/>
      <point x="480" y="728"/>
      <point x="473" y="722" type="curve" smooth="yes"/>
      <point x="415" y="673" type="line"/>
      <point x="415" y="679" type="line" smooth="yes"/>
      <point x="416" y="723"/>
      <point x="409" y="730"/>
      <point x="366" y="730" type="curve" smooth="yes"/>
      <point x="201" y="730" type="line" smooth="yes"/>
      <point x="182" y="730"/>
      <point x="170" y="728"/>
      <point x="163" y="722" type="curve" smooth="yes"/>
      <point x="33" y="613" type="line" smooth="yes"/>
      <point x="24" y="605"/>
      <point x="21" y="594"/>
      <point x="22" y="569" type="curve" smooth="yes"/>
      <point x="30" y="277" type="line" smooth="yes"/>
      <point x="31" y="233"/>
      <point x="39" y="226"/>
      <point x="82" y="226" type="curve" smooth="yes"/>
      <point x="226" y="226" type="line" smooth="yes"/>
      <point x="246" y="226"/>
      <point x="257" y="229"/>
    </contour>
    <contour>
      <point x="665" y="345" type="curve" smooth="yes"/>
      <point x="521" y="345" type="line" smooth="yes"/>
      <point x="486" y="345"/>
      <point x="480" y="351"/>
      <point x="479" y="386" type="curve" smooth="yes"/>
      <point x="471" y="679" type="line" smooth="yes"/>
      <point x="470" y="714"/>
      <point x="476" y="720"/>
      <point x="511" y="720" type="curve" smooth="yes"/>
      <point x="676" y="720" type="line" smooth="yes"/>
      <point x="710" y="720"/>
      <point x="716" y="714"/>
      <point x="715" y="679" type="curve" smooth="yes"/>
      <point x="707" y="386" type="line"/>
      <point x="705" y="351"/>
      <point x="700" y="345"/>
    </contour>
    <contour>
      <point x="355" y="345" type="curve" smooth="yes"/>
      <point x="211" y="345" type="line" smooth="yes"/>
      <point x="176" y="345"/>
      <point x="170" y="351"/>
      <point x="169" y="386" type="curve" smooth="yes"/>
      <point x="161" y="679" type="line" smooth="yes"/>
      <point x="160" y="714"/>
      <point x="166" y="720"/>
      <point x="201" y="720" type="curve" smooth="yes"/>
      <point x="366" y="720" type="line" smooth="yes"/>
      <point x="400" y="720"/>
      <point x="406" y="714"/>
      <point x="405" y="679" type="curve" smooth="yes"/>
      <point x="397" y="386" type="line"/>
      <point x="395" y="351"/>
      <point x="390" y="345"/>
    </contour>
    <contour>
      <point x="278" y="630" type="line"/>
      <point x="278" y="435" type="line"/>
      <point x="288" y="435" type="line"/>
      <point x="288" y="630" type="line"/>
    </contour>
    <contour>
      <point x="588" y="630" type="line"/>
      <point x="588" y="435" type="line"/>
      <point x="598" y="435" type="line"/>
      <point x="598" y="630" type="line"/>
    </contour>
  </outline>
</glyph>
<glyph name="dollar" format="1">
  <advance width="750"/>
  <unicode hex="0024"/>
  <outline>
    <contour>
      <point x="391" y="-209" type="line" smooth="yes"/>
      <point x="405" y="-209"/>
      <point x="416" y="-205"/>
      <point x="422" y="-199" type="curve"/>
      <point x="552" y="-91" type="line" smooth="yes"/>
      <point x="561" y="-83"/>
      <point x="566" y="-73"/>
      <point x="566" y="-55" type="curve"/>
      <point x="676" y="37" type="line" smooth="yes"/>
      <point x="715" y="69"/>
      <point x="735" y="116"/>
      <point x="735" y="176" type="curve" smooth="yes"/>
      <point x="735" y="281" type="line" smooth="yes"/>
      <point x="735" y="389"/>
      <point x="680" y="434"/>
      <point x="595" y="453" type="curve"/>
      <point x="685" y="528" type="line" smooth="yes"/>
      <point x="694" y="536"/>
      <point x="699" y="547"/>
      <point x="699" y="565" type="curve" smooth="yes"/>
      <point x="699" y="684" type="line" smooth="yes"/>
      <point x="699" y="716"/>
      <point x="685" y="730"/>
      <point x="653" y="730" type="curve" smooth="yes"/>
      <point x="566" y="730" type="line"/>
      <point x="566" y="774" type="line" smooth="yes"/>
      <point x="566" y="806"/>
      <point x="552" y="820"/>
      <point x="520" y="820" type="curve" smooth="yes"/>
      <point x="375" y="820" type="line" smooth="yes"/>
      <point x="361" y="820"/>
      <point x="350" y="817"/>
      <point x="343" y="811" type="curve" smooth="yes"/>
      <point x="214" y="702" type="line" smooth="yes"/>
      <point x="207" y="696"/>
      <point x="201" y="687"/>
      <point x="200" y="671" type="curve"/>
      <point x="85" y="574" type="line" smooth="yes"/>
      <point x="47" y="542"/>
      <point x="27" y="495"/>
      <point x="27" y="435" type="curve" smooth="yes"/>
      <point x="27" y="330" type="line" smooth="yes"/>
      <point x="27" y="233"/>
      <point x="70" y="187"/>
      <point x="141" y="165" type="curve"/>
      <point x="41" y="81" type="line" smooth="yes"/>
      <point x="32" y="73"/>
      <point x="27" y="62"/>
      <point x="27" y="44" type="curve" smooth="yes"/>
      <point x="27" y="-73" type="line" smooth="yes"/>
      <point x="27" y="-105"/>
      <point x="41" y="-119"/>
      <point x="73" y="-119" type="curve" smooth="yes"/>
      <point x="200" y="-119" type="line"/>
      <point x="200" y="-163" type="line" smooth="yes"/>
      <point x="200" y="-195"/>
      <point x="214" y="-209"/>
      <point x="246" y="-209" type="curve" smooth="yes"/>
    </contour>
    <contour>
      <point x="443" y="0" type="line"/>
      <point x="453" y="0" type="line"/>
      <point x="453" y="90" type="line"/>
      <point x="505" y="90" type="line" smooth="yes"/>
      <point x="573" y="90"/>
      <point x="616" y="132"/>
      <point x="616" y="191" type="curve" smooth="yes"/>
      <point x="616" y="249" type="line" smooth="yes"/>
      <point x="616" y="319"/>
      <point x="587" y="339"/>
      <point x="547" y="347" type="curve" smooth="yes"/>
      <point x="336" y="390" type="line" smooth="yes"/>
      <point x="305" y="396"/>
      <point x="285" y="410"/>
      <point x="285" y="457" type="curve" smooth="yes"/>
      <point x="285" y="539" type="line" smooth="yes"/>
      <point x="285" y="586"/>
      <point x="321" y="620"/>
      <point x="377" y="620" type="curve" smooth="yes"/>
      <point x="599" y="620" type="line"/>
      <point x="599" y="630" type="line"/>
      <point x="453" y="630" type="line"/>
      <point x="453" y="720" type="line"/>
      <point x="443" y="720" type="line"/>
      <point x="443" y="630" type="line"/>
      <point x="377" y="630" type="line" smooth="yes"/>
      <point x="315" y="630"/>
      <point x="275" y="592"/>
      <point x="275" y="539" type="curve" smooth="yes"/>
      <point x="275" y="457" type="line" smooth="yes"/>
      <point x="275" y="402"/>
      <point x="299" y="387"/>
      <point x="334" y="380" type="curve" smooth="yes"/>
      <point x="545" y="337" type="line" smooth="yes"/>
      <point x="582" y="329"/>
      <point x="606" y="312"/>
      <point x="606" y="249" type="curve" smooth="yes"/>
      <point x="606" y="191" type="line" smooth="yes"/>
      <point x="606" y="138"/>
      <point x="567" y="100"/>
      <point x="505" y="100" type="curve" smooth="yes"/>
      <point x="256" y="100" type="line"/>
      <point x="256" y="90" type="line"/>
      <point x="443" y="90" type="line"/>
    </contour>
    <contour>
      <point x="520" y="-90" type="curve" smooth="yes"/>
      <point x="375" y="-90" type="line" smooth="yes"/>
      <point x="350" y="-90"/>
      <point x="339" y="-79"/>
      <point x="339" y="-54" type="curve" smooth="yes"/>
      <point x="339" y="0" type="line"/>
      <point x="202" y="0" type="line" smooth="yes"/>
      <point x="177" y="0"/>
      <point x="166" y="11"/>
      <point x="166" y="36" type="curve" smooth="yes"/>
      <point x="166" y="153" type="line" smooth="yes"/>
      <point x="166" y="178"/>
      <point x="177" y="189"/>
      <point x="202" y="189" type="curve" smooth="yes"/>
      <point x="471" y="189" type="line" smooth="yes"/>
      <point x="488" y="189"/>
      <point x="497" y="202"/>
      <point x="497" y="218" type="curve" smooth="yes"/>
      <point x="497" y="241"/>
      <point x="488" y="250"/>
      <point x="471" y="252" type="curve" smooth="yes"/>
      <point x="321" y="273" type="line" smooth="yes"/>
      <point x="227" y="287"/>
      <point x="166" y="327"/>
      <point x="166" y="439" type="curve" smooth="yes"/>
      <point x="166" y="544" type="line" smooth="yes"/>
      <point x="166" y="648"/>
      <point x="230" y="708"/>
      <point x="339" y="718" type="curve"/>
      <point x="339" y="774" type="line" smooth="yes"/>
      <point x="339" y="799"/>
      <point x="350" y="810"/>
      <point x="375" y="810" type="curve" smooth="yes"/>
      <point x="520" y="810" type="line" smooth="yes"/>
      <point x="545" y="810"/>
      <point x="556" y="799"/>
      <point x="556" y="774" type="curve" smooth="yes"/>
      <point x="556" y="720" type="line"/>
      <point x="653" y="720" type="line" smooth="yes"/>
      <point x="678" y="720"/>
      <point x="689" y="709"/>
      <point x="689" y="684" type="curve" smooth="yes"/>
      <point x="689" y="565" type="line" smooth="yes"/>
      <point x="689" y="540"/>
      <point x="678" y="529"/>
      <point x="653" y="529" type="curve" smooth="yes"/>
      <point x="420" y="529" type="line" smooth="yes"/>
      <point x="403" y="529"/>
      <point x="393" y="517"/>
      <point x="393" y="499" type="curve" smooth="yes"/>
      <point x="393" y="481"/>
      <point x="403" y="469"/>
      <point x="420" y="467" type="curve" smooth="yes"/>
      <point x="569" y="447" type="line" smooth="yes"/>
      <point x="663" y="433"/>
      <point x="725" y="393"/>
      <point x="725" y="281" type="curve" smooth="yes"/>
      <point x="725" y="176" type="line" smooth="yes"/>
      <point x="725" y="74"/>
      <point x="662" y="13"/>
      <point x="556" y="2" type="curve"/>
      <point x="556" y="-54" type="line" smooth="yes"/>
      <point x="556" y="-79"/>
      <point x="545" y="-90"/>
    </contour>
  </outline>
</glyph>
<glyph name="parenleft" format="1">
  <advance width="529"/>
  <unicode hex="0028"/>
  <outline>
    <contour>
      <point x="334" y="-199" type="line" smooth="yes"/>
      <point x="348" y="-199"/>
      <point x="359" y="-195"/>
      <point x="365" y="-189" type="curve"/>
      <point x="495" y="-81" type="line" smooth="yes"/>
      <point x="504" y="-73"/>
      <point x="509" y="-62"/>
      <point x="509" y="-44" type="curve" smooth="yes"/>
      <point x="509" y="75" type="line" smooth="yes"/>
      <point x="509" y="107"/>
      <point x="495" y="121"/>
      <point x="463" y="121" type="curve" smooth="yes"/>
      <point x="432" y="121" type="line" smooth="yes"/>
      <point x="406" y="121"/>
      <point x="401" y="135"/>
      <point x="401" y="161" type="curve" smooth="yes"/>
      <point x="401" y="527" type="line"/>
      <point x="495" y="606" type="line" smooth="yes"/>
      <point x="504" y="614"/>
      <point x="509" y="625"/>
      <point x="509" y="643" type="curve" smooth="yes"/>
      <point x="509" y="764" type="line" smooth="yes"/>
      <point x="509" y="796"/>
      <point x="495" y="810"/>
      <point x="463" y="810" type="curve" smooth="yes"/>
      <point x="409" y="810" type="line" smooth="yes"/>
      <point x="317" y="810"/>
      <point x="255" y="791"/>
      <point x="216" y="758" type="curve" smooth="yes"/>
      <point x="87" y="649" type="line" smooth="yes"/>
      <point x="41" y="611"/>
      <point x="24" y="554"/>
      <point x="24" y="486" type="curve" smooth="yes"/>
      <point x="24" y="15" type="line" smooth="yes"/>
      <point x="24" y="-111"/>
      <point x="82" y="-199"/>
      <point x="280" y="-199" type="curve" smooth="yes"/>
    </contour>
    <contour>
      <point x="463" y="-80" type="curve" smooth="yes"/>
      <point x="409" y="-80" type="line" smooth="yes"/>
      <point x="220" y="-80"/>
      <point x="163" y="3"/>
      <point x="163" y="124" type="curve" smooth="yes"/>
      <point x="163" y="595" type="line" smooth="yes"/>
      <point x="163" y="717"/>
      <point x="220" y="800"/>
      <point x="409" y="800" type="curve" smooth="yes"/>
      <point x="463" y="800" type="line" smooth="yes"/>
      <point x="488" y="800"/>
      <point x="499" y="789"/>
      <point x="499" y="764" type="curve" smooth="yes"/>
      <point x="499" y="643" type="line" smooth="yes"/>
      <point x="499" y="618"/>
      <point x="488" y="607"/>
      <point x="463" y="607" type="curve" smooth="yes"/>
      <point x="432" y="607" type="line" smooth="yes"/>
      <point x="400" y="607"/>
      <point x="391" y="592"/>
      <point x="391" y="557" type="curve" smooth="yes"/>
      <point x="391" y="161" type="line"/>
      <point x="391" y="126"/>
      <point x="400" y="111"/>
      <point x="432" y="111" type="curve" smooth="yes"/>
      <point x="463" y="111" type="line" smooth="yes"/>
      <point x="488" y="111"/>
      <point x="499" y="100"/>
      <point x="499" y="75" type="curve" smooth="yes"/>
      <point x="499" y="-44" type="line" smooth="yes"/>
      <point x="499" y="-69"/>
      <point x="488" y="-80"/>
    </contour>
    <contour>
      <point x="409" y="21" type="line"/>
      <point x="330" y="21"/>
      <point x="282" y="42"/>
      <point x="282" y="124" type="curve" smooth="yes"/>
      <point x="282" y="595" type="line" smooth="yes"/>
      <point x="282" y="677"/>
      <point x="329" y="698"/>
      <point x="409" y="698" type="curve"/>
      <point x="409" y="708" type="line"/>
      <point x="321" y="708"/>
      <point x="272" y="683"/>
      <point x="272" y="595" type="curve" smooth="yes"/>
      <point x="272" y="124" type="line" smooth="yes"/>
      <point x="272" y="36"/>
      <point x="322" y="11"/>
      <point x="409" y="11" type="curve"/>
    </contour>
  </outline>
</glyph>
<glyph name="hyphen" format="1">
  <advance width="520"/>
  <unicode hex="002D"/>
  <unicode hex="00AD"/>
  <unicode hex="2010"/>
  <outline>
    <contour>
      <point x="330" y="138" type="line" smooth="yes"/>
      <point x="343" y="138"/>
      <point x="354" y="142"/>
      <point x="362" y="147" type="curve" smooth="yes"/>
      <point x="491" y="256" type="line" smooth="yes"/>
      <point x="500" y="264"/>
      <point x="505" y="275"/>
      <point x="505" y="293" type="curve" smooth="yes"/>
      <point x="505" y="427" type="line" smooth="yes"/>
      <point x="505" y="460"/>
      <point x="491" y="473"/>
      <point x="459" y="473" type="curve" smooth="yes"/>
      <point x="191" y="473" type="line" smooth="yes"/>
      <point x="177" y="473"/>
      <point x="166" y="470"/>
      <point x="159" y="464" type="curve" smooth="yes"/>
      <point x="30" y="355" type="line" smooth="yes"/>
      <point x="21" y="347"/>
      <point x="16" y="336"/>
      <point x="16" y="318" type="curve" smooth="yes"/>
      <point x="16" y="184" type="line" smooth="yes"/>
      <point x="16" y="151"/>
      <point x="30" y="138"/>
      <point x="62" y="138" type="curve" smooth="yes"/>
    </contour>
    <contour>
      <point x="191" y="257" type="line"/>
      <point x="166" y="257"/>
      <point x="155" y="267"/>
      <point x="155" y="293" type="curve" smooth="yes"/>
      <point x="155" y="427" type="line" smooth="yes"/>
      <point x="155" y="452"/>
      <point x="166" y="463"/>
      <point x="191" y="463" type="curve" smooth="yes"/>
      <point x="459" y="463" type="line" smooth="yes"/>
      <point x="484" y="463"/>
      <point x="495" y="453"/>
      <point x="495" y="427" type="curve" smooth="yes"/>
      <point x="495" y="293" type="line" smooth="yes"/>
      <point x="495" y="267"/>
      <point x="484" y="257"/>
      <point x="459" y="257" type="curve" smooth="yes"/>
    </contour>
    <contour>
      <point x="405" y="365" type="line"/>
      <point x="245" y="365" type="line"/>
      <point x="245" y="355" type="line"/>
      <point x="405" y="355" type="line"/>
    </contour>
  </outline>
</glyph>
<glyph name="period" format="1">
  <advance width="484"/>
  <unicode hex="002E"/>
  <outline>
    <contour>
      <point x="279" y="-119" type="line" smooth="yes"/>
      <point x="293" y="-119"/>
      <point x="304" y="-115"/>
      <point x="310" y="-109" type="curve"/>
      <point x="440" y="-1" type="line" smooth="yes"/>
      <point x="449" y="7"/>
      <point x="454" y="18"/>
      <point x="454" y="36" type="curve" smooth="yes"/>
      <point x="454" y="239" type="line" smooth="yes"/>
      <point x="454" y="272"/>
      <point x="440" y="285"/>
      <point x="408" y="285" type="curve" smooth="yes"/>
      <point x="206" y="285" type="line" smooth="yes"/>
      <point x="191" y="285"/>
      <point x="181" y="282"/>
      <point x="174" y="276" type="curve" smooth="yes"/>
      <point x="44" y="167" type="line" smooth="yes"/>
      <point x="36" y="160"/>
      <point x="31" y="148"/>
      <point x="31" y="130" type="curve" smooth="yes"/>
      <point x="31" y="-73" type="line" smooth="yes"/>
      <point x="31" y="-105"/>
      <point x="45" y="-119"/>
      <point x="77" y="-119" type="curve" smooth="yes"/>
    </contour>
    <contour>
      <point x="408" y="0" type="curve" smooth="yes"/>
      <point x="206" y="0" type="line" smooth="yes"/>
      <point x="181" y="0"/>
      <point x="170" y="11"/>
      <point x="170" y="36" type="curve"/>
      <point x="170" y="239" type="line"/>
      <point x="170" y="265"/>
      <point x="181" y="275"/>
      <point x="206" y="275" type="curve" smooth="yes"/>
      <point x="408" y="275" type="line" smooth="yes"/>
      <point x="433" y="275"/>
      <point x="444" y="265"/>
      <point x="444" y="239" type="curve" smooth="yes"/>
      <point x="444" y="36" type="line" smooth="yes"/>
      <point x="444" y="11"/>
      <point x="433" y="0"/>
    </contour>
    <contour>
      <point x="302" y="90" type="line"/>
      <point x="312" y="90" type="line"/>
      <point x="312" y="185" type="line"/>
      <point x="302" y="185" type="line"/>
    </contour>
  </outline>
</glyph>
<glyph name="two" format="1">
  <advance width="739"/>
  <unicode hex="0032"/>
  <outline>
    <contour>
      <point x="538" y="-119" type="line" smooth="yes"/>
      <point x="552" y="-119"/>
      <point x="563" y="-115"/>
      <point x="569" y="-109" type="curve"/>
      <point x="699" y="-1" type="line" smooth="yes"/>
      <point x="708" y="7"/>
      <point x="713" y="18"/>
      <point x="713" y="36" type="curve" smooth="yes"/>
      <point x="713" y="153" type="line" smooth="yes"/>
      <point x="713" y="185"/>
      <point x="699" y="199"/>
      <point x="667" y="199" type="curve" smooth="yes"/>
      <point x="497" y="199" type="line"/>
      <point x="507" y="205"/>
      <point x="515" y="211"/>
      <point x="523" y="217" type="curve" smooth="yes"/>
      <point x="652" y="325" type="line" smooth="yes"/>
      <point x="690" y="356"/>
      <point x="710" y="398"/>
      <point x="710" y="460" type="curve" smooth="yes"/>
      <point x="710" y="554" type="line" smooth="yes"/>
      <point x="710" y="668"/>
      <point x="645" y="730"/>
      <point x="524" y="730" type="curve" smooth="yes"/>
      <point x="229" y="730" type="line" smooth="yes"/>
      <point x="215" y="730"/>
      <point x="204" y="727"/>
      <point x="197" y="721" type="curve" smooth="yes"/>
      <point x="68" y="612" type="line" smooth="yes"/>
      <point x="59" y="604"/>
      <point x="54" y="593"/>
      <point x="54" y="575" type="curve" smooth="yes"/>
      <point x="54" y="458" type="line" smooth="yes"/>
      <point x="54" y="426"/>
      <point x="68" y="412"/>
      <point x="100" y="412" type="curve" smooth="yes"/>
      <point x="245" y="412" type="line"/>
      <point x="232" y="405"/>
      <point x="220" y="398"/>
      <point x="209" y="389" type="curve" smooth="yes"/>
      <point x="80" y="280" type="line" smooth="yes"/>
      <point x="40" y="247"/>
      <point x="16" y="196"/>
      <point x="16" y="99" type="curve" smooth="yes"/>
      <point x="16" y="-73" type="line" smooth="yes"/>
      <point x="16" y="-105"/>
      <point x="30" y="-119"/>
      <point x="62" y="-119" type="curve" smooth="yes"/>
    </contour>
    <contour>
      <point x="667" y="0" type="curve" smooth="yes"/>
      <point x="191" y="0" type="line" smooth="yes"/>
      <point x="166" y="0"/>
      <point x="155" y="11"/>
      <point x="155" y="36" type="curve" smooth="yes"/>
      <point x="155" y="208" type="line" smooth="yes"/>
      <point x="155" y="363"/>
      <point x="220" y="399"/>
      <point x="312" y="427" type="curve" smooth="yes"/>
      <point x="446" y="469" type="line" smooth="yes"/>
      <point x="467" y="475"/>
      <point x="473" y="483"/>
      <point x="473" y="505" type="curve" smooth="yes"/>
      <point x="473" y="525"/>
      <point x="466" y="531"/>
      <point x="446" y="531" type="curve" smooth="yes"/>
      <point x="229" y="531" type="line" smooth="yes"/>
      <point x="204" y="531"/>
      <point x="193" y="542"/>
      <point x="193" y="567" type="curve" smooth="yes"/>
      <point x="193" y="684" type="line" smooth="yes"/>
      <point x="193" y="709"/>
      <point x="204" y="720"/>
      <point x="229" y="720" type="curve" smooth="yes"/>
      <point x="524" y="720" type="line" smooth="yes"/>
      <point x="638" y="720"/>
      <point x="700" y="662"/>
      <point x="700" y="554" type="curve" smooth="yes"/>
      <point x="700" y="460" type="line" smooth="yes"/>
      <point x="700" y="359"/>
      <point x="641" y="313"/>
      <point x="544" y="283" type="curve" smooth="yes"/>
      <point x="408" y="240" type="line" smooth="yes"/>
      <point x="388" y="234"/>
      <point x="382" y="232"/>
      <point x="382" y="210" type="curve" smooth="yes"/>
      <point x="382" y="189" type="line"/>
      <point x="667" y="189" type="line"/>
      <point x="692" y="189"/>
      <point x="703" y="178"/>
      <point x="703" y="153" type="curve" smooth="yes"/>
      <point x="703" y="36" type="line" smooth="yes"/>
      <point x="703" y="11"/>
      <point x="692" y="0"/>
    </contour>
    <contour>
      <point x="319" y="328" type="line" smooth="yes"/>
      <point x="278" y="314"/>
      <point x="264" y="295"/>
      <point x="264" y="246" type="curve" smooth="yes"/>
      <point x="264" y="90" type="line"/>
      <point x="613" y="90" type="line"/>
      <point x="613" y="100" type="line"/>
      <point x="273" y="100" type="line"/>
      <point x="273" y="246" type="line" smooth="yes"/>
      <point x="273" y="291"/>
      <point x="285" y="306"/>
      <point x="323" y="319" type="curve" smooth="yes"/>
      <point x="556" y="396" type="line"/>
      <point x="577" y="405"/>
      <point x="591" y="421"/>
      <point x="591" y="452" type="curve" smooth="yes"/>
      <point x="591" y="543" type="line" smooth="yes"/>
      <point x="591" y="610"/>
      <point x="552" y="630"/>
      <point x="484" y="630" type="curve" smooth="yes"/>
      <point x="283" y="630" type="line"/>
      <point x="283" y="620" type="line"/>
      <point x="484" y="620" type="line" smooth="yes"/>
      <point x="544" y="620"/>
      <point x="581" y="604"/>
      <point x="581" y="543" type="curve" smooth="yes"/>
      <point x="581" y="452" type="line" smooth="yes"/>
      <point x="581" y="427"/>
      <point x="569" y="412"/>
      <point x="552" y="405" type="curve"/>
    </contour>
  </outline>
</glyph>
<glyph name="eight" format="1">
  <advance width="811"/>
  <unicode hex="0038"/>
  <outline>
    <contour>
      <point x="342" y="-134" type="curve" smooth="yes"/>
      <point x="480" y="-134"/>
      <point x="562" y="-111"/>
      <point x="608" y="-72" type="curve" smooth="yes"/>
      <point x="737" y="36" type="line" smooth="yes"/>
      <point x="775" y="68"/>
      <point x="789" y="110"/>
      <point x="789" y="159" type="curve" smooth="yes"/>
      <point x="789" y="256" type="line" smooth="yes"/>
      <point x="789" y="344"/>
      <point x="751" y="394"/>
      <point x="699" y="414" type="curve"/>
      <point x="704" y="418" type="line" smooth="yes"/>
      <point x="731" y="441"/>
      <point x="742" y="475"/>
      <point x="742" y="519" type="curve" smooth="yes"/>
      <point x="742" y="577" type="line" smooth="yes"/>
      <point x="742" y="679"/>
      <point x="686" y="745"/>
      <point x="472" y="745" type="curve" smooth="yes"/>
      <point x="357" y="745"/>
      <point x="287" y="726"/>
      <point x="247" y="692" type="curve" smooth="yes"/>
      <point x="118" y="583" type="line" smooth="yes"/>
      <point x="83" y="555"/>
      <point x="70" y="515"/>
      <point x="70" y="468" type="curve" smooth="yes"/>
      <point x="70" y="410" type="line" smooth="yes"/>
      <point x="70" y="367"/>
      <point x="80" y="333"/>
      <point x="107" y="310" type="curve"/>
      <point x="76" y="284" type="line" smooth="yes"/>
      <point x="44" y="257"/>
      <point x="23" y="213"/>
      <point x="23" y="147" type="curve" smooth="yes"/>
      <point x="23" y="90" type="line" smooth="yes"/>
      <point x="23" y="-17"/>
      <point x="87" y="-134"/>
    </contour>
    <contour>
      <point x="779" y="256" type="curve" smooth="yes"/>
      <point x="779" y="159" type="line" smooth="yes"/>
      <point x="779" y="55"/>
      <point x="712" y="-15"/>
      <point x="471" y="-15" type="curve" smooth="yes"/>
      <point x="230" y="-15"/>
      <point x="162" y="55"/>
      <point x="162" y="159" type="curve" smooth="yes"/>
      <point x="162" y="256" type="line" smooth="yes"/>
      <point x="162" y="350"/>
      <point x="208" y="399"/>
      <point x="268" y="411" type="curve"/>
      <point x="224" y="430"/>
      <point x="209" y="468"/>
      <point x="209" y="519" type="curve" smooth="yes"/>
      <point x="209" y="577" type="line" smooth="yes"/>
      <point x="209" y="675"/>
      <point x="271" y="735"/>
      <point x="472" y="735" type="curve" smooth="yes"/>
      <point x="673" y="735"/>
      <point x="732" y="675"/>
      <point x="732" y="577" type="curve" smooth="yes"/>
      <point x="732" y="519" type="line" smooth="yes"/>
      <point x="732" y="468"/>
      <point x="717" y="430"/>
      <point x="673" y="411" type="curve"/>
      <point x="733" y="399"/>
      <point x="779" y="350"/>
    </contour>
    <contour>
      <point x="408" y="480" type="line"/>
      <point x="408" y="459"/>
      <point x="415" y="443"/>
      <point x="471" y="443" type="curve" smooth="yes"/>
      <point x="528" y="443"/>
      <point x="533" y="459"/>
      <point x="533" y="480" type="curve" smooth="yes"/>
      <point x="533" y="524" type="line" smooth="yes"/>
      <point x="533" y="544"/>
      <point x="528" y="560"/>
      <point x="471" y="560" type="curve" smooth="yes"/>
      <point x="415" y="560"/>
      <point x="408" y="544"/>
      <point x="408" y="524" type="curve" smooth="yes"/>
    </contour>
    <contour>
      <point x="383" y="197" type="line" smooth="yes"/>
      <point x="383" y="176"/>
      <point x="399" y="160"/>
      <point x="471" y="160" type="curve" smooth="yes"/>
      <point x="544" y="160"/>
      <point x="558" y="176"/>
      <point x="558" y="197" type="curve" smooth="yes"/>
      <point x="558" y="250" type="line" smooth="yes"/>
      <point x="558" y="270"/>
      <point x="544" y="286"/>
      <point x="471" y="286" type="curve" smooth="yes"/>
      <point x="399" y="286"/>
      <point x="383" y="270"/>
      <point x="383" y="250" type="curve" smooth="yes"/>
    </contour>
    <contour>
      <point x="471" y="67" type="curve" smooth="yes"/>
      <point x="632" y="67"/>
      <point x="673" y="111"/>
      <point x="673" y="173" type="curve" smooth="yes"/>
      <point x="673" y="266" type="line" smooth="yes"/>
      <point x="673" y="317"/>
      <point x="644" y="356"/>
      <point x="547" y="369" type="curve"/>
      <point x="611" y="380"/>
      <point x="637" y="408"/>
      <point x="637" y="455" type="curve" smooth="yes"/>
      <point x="637" y="550" type="line" smooth="yes"/>
      <point x="637" y="620"/>
      <point x="588" y="652"/>
      <point x="471" y="652" type="curve" smooth="yes"/>
      <point x="354" y="652"/>
      <point x="304" y="620"/>
      <point x="304" y="558" type="curve" smooth="yes"/>
      <point x="304" y="455" type="line" smooth="yes"/>
      <point x="304" y="408"/>
      <point x="331" y="380"/>
      <point x="395" y="369" type="curve"/>
      <point x="298" y="356"/>
      <point x="268" y="316"/>
      <point x="268" y="265" type="curve" smooth="yes"/>
      <point x="268" y="173" type="line" smooth="yes"/>
      <point x="268" y="111"/>
      <point x="310" y="67"/>
    </contour>
    <contour>
      <point x="314" y="558" type="line" smooth="yes"/>
      <point x="314" y="616"/>
      <point x="366" y="642"/>
      <point x="471" y="642" type="curve" smooth="yes"/>
      <point x="576" y="642"/>
      <point x="627" y="616"/>
      <point x="627" y="550" type="curve" smooth="yes"/>
      <point x="627" y="455" type="line" smooth="yes"/>
      <point x="627" y="397"/>
      <point x="577" y="374"/>
      <point x="471" y="374" type="curve" smooth="yes"/>
      <point x="365" y="374"/>
      <point x="314" y="397"/>
      <point x="314" y="455" type="curve" smooth="yes"/>
    </contour>
    <contour>
      <point x="278" y="265" type="line" smooth="yes"/>
      <point x="278" y="323"/>
      <point x="327" y="364"/>
      <point x="471" y="364" type="curve" smooth="yes"/>
      <point x="615" y="364"/>
      <point x="663" y="324"/>
      <point x="663" y="266" type="curve" smooth="yes"/>
      <point x="663" y="173" type="line" smooth="yes"/>
      <point x="663" y="115"/>
      <point x="616" y="77"/>
      <point x="471" y="77" type="curve" smooth="yes"/>
      <point x="326" y="77"/>
      <point x="278" y="115"/>
      <point x="278" y="173" type="curve" smooth="yes"/>
    </contour>
  </outline>
</glyph>
<glyph name="equal" format="1">
  <advance width="834"/>
  <unicode hex="003D"/>
  <outline>
    <contour>
      <point x="614" y="-2" type="line" smooth="yes"/>
      <point x="627" y="-2"/>
      <point x="638" y="2"/>
      <point x="646" y="7" type="curve" smooth="yes"/>
      <point x="775" y="116" type="line" smooth="yes"/>
      <point x="784" y="124"/>
      <point x="789" y="135"/>
      <point x="789" y="153" type="curve" smooth="yes"/>
      <point x="789" y="267" type="line" smooth="yes"/>
      <point x="789" y="300"/>
      <point x="775" y="313"/>
      <point x="743" y="313" type="curve" smooth="yes"/>
      <point x="653" y="313" type="line"/>
      <point x="775" y="416" type="line" smooth="yes"/>
      <point x="784" y="424"/>
      <point x="789" y="435"/>
      <point x="789" y="453" type="curve" smooth="yes"/>
      <point x="789" y="567" type="line" smooth="yes"/>
      <point x="789" y="600"/>
      <point x="775" y="613"/>
      <point x="743" y="613" type="curve" smooth="yes"/>
      <point x="221" y="613" type="line" smooth="yes"/>
      <point x="207" y="613"/>
      <point x="196" y="610"/>
      <point x="189" y="604" type="curve" smooth="yes"/>
      <point x="60" y="495" type="line" smooth="yes"/>
      <point x="51" y="487"/>
      <point x="46" y="476"/>
      <point x="46" y="458" type="curve" smooth="yes"/>
      <point x="46" y="344" type="line" smooth="yes"/>
      <point x="46" y="311"/>
      <point x="60" y="298"/>
      <point x="92" y="298" type="curve" smooth="yes"/>
      <point x="182" y="298" type="line"/>
      <point x="60" y="195" type="line" smooth="yes"/>
      <point x="51" y="187"/>
      <point x="46" y="176"/>
      <point x="46" y="158" type="curve" smooth="yes"/>
      <point x="46" y="44" type="line" smooth="yes"/>
      <point x="46" y="11"/>
      <point x="60" y="-2"/>
      <point x="92" y="-2" type="curve" smooth="yes"/>
    </contour>
    <contour>
      <point x="221" y="417" type="line"/>
      <point x="196" y="417"/>
      <point x="185" y="427"/>
      <point x="185" y="453" type="curve" smooth="yes"/>
      <point x="185" y="567" type="line" smooth="yes"/>
      <point x="185" y="592"/>
      <point x="196" y="603"/>
      <point x="221" y="603" type="curve" smooth="yes"/>
      <point x="743" y="603" type="line" smooth="yes"/>
      <point x="768" y="603"/>
      <point x="779" y="593"/>
      <point x="779" y="567" type="curve" smooth="yes"/>
      <point x="779" y="453" type="line" smooth="yes"/>
      <point x="779" y="427"/>
      <point x="768" y="417"/>
      <point x="743" y="417" type="curve" smooth="yes"/>
    </contour>
    <contour>
      <point x="221" y="117" type="line"/>
      <point x="196" y="117"/>
      <point x="185" y="127"/>
      <point x="185" y="153" type="curve" smooth="yes"/>
      <point x="185" y="267" type="line" smooth="yes"/>
      <point x="185" y="292"/>
      <point x="196" y="303"/>
      <point x="221" y="303" type="curve" smooth="yes"/>
      <point x="743" y="303" type="line" smooth="yes"/>
      <point x="768" y="303"/>
      <point x="779" y="293"/>
      <point x="779" y="267" type="curve" smooth="yes"/>
      <point x="779" y="153" type="line" smooth="yes"/>
      <point x="779" y="127"/>
      <point x="768" y="117"/>
      <point x="743" y="117" type="curve" smooth="yes"/>
    </contour>
    <contour>
      <point x="275" y="505" type="line"/>
      <point x="689" y="505" type="line"/>
      <point x="689" y="515" type="line"/>
      <point x="275" y="515" type="line"/>
    </contour>
    <contour>
      <point x="275" y="205" type="line"/>
      <point x="689" y="205" type="line"/>
      <point x="689" y="215" type="line"/>
      <point x="275" y="215" type="line"/>
    </contour>
  </outline>
</glyph>
<glyph name="D" format="1">
  <advance width="846"/>
  <unicode hex="0044"/>
  <outline>
    <contour>
      <point x="620" y="-66" type="curve" smooth="yes"/>
      <point x="750" y="42" type="line" smooth="yes"/>
      <point x="792" y="78"/>
      <point x="813" y="131"/>
      <point x="813" y="204" type="curve" smooth="yes"/>
      <point x="813" y="516" type="line" smooth="yes"/>
      <point x="813" y="661"/>
      <point x="733" y="730"/>
      <point x="557" y="730" type="curve" smooth="yes"/>
      <point x="220" y="730" type="line" smooth="yes"/>
      <point x="206" y="730"/>
      <point x="195" y="727"/>
      <point x="188" y="721" type="curve" smooth="yes"/>
      <point x="59" y="612" type="line" smooth="yes"/>
      <point x="50" y="604"/>
      <point x="45" y="593"/>
      <point x="45" y="575" type="curve" smooth="yes"/>
      <point x="45" y="-73" type="line" smooth="yes"/>
      <point x="45" y="-105"/>
      <point x="59" y="-119"/>
      <point x="91" y="-119" type="curve" smooth="yes"/>
      <point x="428" y="-119" type="line" smooth="yes"/>
      <point x="515" y="-119"/>
      <point x="579" y="-101"/>
    </contour>
    <contour>
      <point x="438" y="372" type="curve" smooth="yes"/>
      <point x="438" y="199" type="line"/>
      <point x="421" y="199" type="line"/>
      <point x="421" y="407" type="line"/>
      <point x="433" y="402"/>
      <point x="438" y="390"/>
    </contour>
    <contour>
      <point x="557" y="0" type="curve" smooth="yes"/>
      <point x="220" y="0" type="line" smooth="yes"/>
      <point x="195" y="0"/>
      <point x="184" y="11"/>
      <point x="184" y="36" type="curve" smooth="yes"/>
      <point x="184" y="684" type="line" smooth="yes"/>
      <point x="184" y="709"/>
      <point x="195" y="720"/>
      <point x="220" y="720" type="curve" smooth="yes"/>
      <point x="557" y="720" type="line" smooth="yes"/>
      <point x="725" y="720"/>
      <point x="803" y="655"/>
      <point x="803" y="516" type="curve" smooth="yes"/>
      <point x="803" y="204" type="line" smooth="yes"/>
      <point x="803" y="65"/>
      <point x="725" y="0"/>
    </contour>
    <contour>
      <point x="411" y="529" type="line"/>
      <point x="411" y="189" type="line"/>
      <point x="530" y="189" type="line" smooth="yes"/>
      <point x="562" y="189"/>
      <point x="577" y="204"/>
      <point x="577" y="238" type="curve" smooth="yes"/>
      <point x="577" y="481" type="line" smooth="yes"/>
      <point x="577" y="514"/>
      <point x="562" y="529"/>
      <point x="530" y="529" type="curve" smooth="yes"/>
    </contour>
    <contour>
      <point x="293" y="90" type="line"/>
      <point x="535" y="90" type="line" smooth="yes"/>
      <point x="673" y="90"/>
      <point x="695" y="149"/>
      <point x="695" y="226" type="curve" smooth="yes"/>
      <point x="695" y="491" type="line" smooth="yes"/>
      <point x="695" y="568"/>
      <point x="671" y="630"/>
      <point x="535" y="630" type="curve" smooth="yes"/>
      <point x="293" y="630" type="line"/>
    </contour>
    <contour>
      <point x="535" y="620" type="line" smooth="yes"/>
      <point x="661" y="620"/>
      <point x="685" y="564"/>
      <point x="685" y="491" type="curve" smooth="yes"/>
      <point x="685" y="226" type="line" smooth="yes"/>
      <point x="685" y="153"/>
      <point x="663" y="100"/>
      <point x="535" y="100" type="curve" smooth="yes"/>
      <point x="303" y="100" type="line"/>
      <point x="303" y="620" type="line"/>
    </contour>
  </outline>
</glyph>
<glyph name="J" format="1">
  <advance width="788"/>
  <unicode hex="004A"/>
  <outline>
    <contour>
      <point x="317" y="-134" type="curve" smooth="yes"/>
      <point x="440" y="-134"/>
      <point x="514" y="-112"/>
      <point x="559" y="-74" type="curve" smooth="yes"/>
      <point x="688" y="35" type="line" smooth="yes"/>
      <point x="734" y="72"/>
      <point x="749" y="126"/>
      <point x="749" y="189" type="curve" smooth="yes"/>
      <point x="749" y="684" type="line" smooth="yes"/>
      <point x="749" y="716"/>
      <point x="735" y="730"/>
      <point x="703" y="730" type="curve" smooth="yes"/>
      <point x="546" y="730" type="line" smooth="yes"/>
      <point x="532" y="730"/>
      <point x="521" y="727"/>
      <point x="514" y="721" type="curve" smooth="yes"/>
      <point x="385" y="612" type="line" smooth="yes"/>
      <point x="376" y="604"/>
      <point x="371" y="593"/>
      <point x="371" y="575" type="curve" smooth="yes"/>
      <point x="371" y="387" type="line"/>
      <point x="363" y="394"/>
      <point x="352" y="397"/>
      <point x="337" y="397" type="curve" smooth="yes"/>
      <point x="192" y="397" type="line" smooth="yes"/>
      <point x="177" y="397"/>
      <point x="167" y="394"/>
      <point x="160" y="388" type="curve" smooth="yes"/>
      <point x="30" y="279" type="line" smooth="yes"/>
      <point x="22" y="272"/>
      <point x="17" y="260"/>
      <point x="17" y="242" type="curve" smooth="yes"/>
      <point x="17" y="80" type="line" smooth="yes"/>
      <point x="17" y="-46"/>
      <point x="73" y="-134"/>
    </contour>
    <contour>
      <point x="739" y="189" type="line" smooth="yes"/>
      <point x="739" y="67"/>
      <point x="681" y="-15"/>
      <point x="446" y="-15" type="curve" smooth="yes"/>
      <point x="213" y="-15"/>
      <point x="156" y="67"/>
      <point x="156" y="189" type="curve" smooth="yes"/>
      <point x="156" y="351" type="line" smooth="yes"/>
      <point x="156" y="377"/>
      <point x="167" y="387"/>
      <point x="192" y="387" type="curve" smooth="yes"/>
      <point x="337" y="387" type="line" smooth="yes"/>
      <point x="362" y="387"/>
      <point x="373" y="377"/>
      <point x="373" y="351" type="curve" smooth="yes"/>
      <point x="373" y="229" type="line" smooth="yes"/>
      <point x="373" y="202"/>
      <point x="382" y="182"/>
      <point x="444" y="182" type="curve" smooth="yes"/>
      <point x="502" y="182"/>
      <point x="510" y="202"/>
      <point x="510" y="229" type="curve" smooth="yes"/>
      <point x="510" y="684" type="line" smooth="yes"/>
      <point x="510" y="709"/>
      <point x="521" y="720"/>
      <point x="546" y="720" type="curve" smooth="yes"/>
      <point x="703" y="720" type="line" smooth="yes"/>
      <point x="728" y="720"/>
      <point x="739" y="709"/>
      <point x="739" y="684" type="curve" smooth="yes"/>
    </contour>
    <contour>
      <point x="619" y="630" type="line"/>
      <point x="619" y="213" type="line" smooth="yes"/>
      <point x="619" y="138"/>
      <point x="580" y="88"/>
      <point x="448" y="88" type="curve" smooth="yes"/>
      <point x="310" y="88"/>
      <point x="270" y="137"/>
      <point x="270" y="213" type="curve" smooth="yes"/>
      <point x="270" y="292" type="line"/>
      <point x="260" y="292" type="line"/>
      <point x="260" y="213" type="line" smooth="yes"/>
      <point x="260" y="133"/>
      <point x="298" y="78"/>
      <point x="448" y="78" type="curve" smooth="yes"/>
      <point x="590" y="78"/>
      <point x="629" y="134"/>
      <point x="629" y="213" type="curve" smooth="yes"/>
      <point x="629" y="630" type="line"/>
    </contour>
  </outline>
</glyph>
<glyph name="K" format="1">
  <advance width="846"/>
  <unicode hex="004B"/>
  <outline>
    <contour>
      <point x="407" y="-1" type="line" smooth="yes"/>
      <point x="416" y="7"/>
      <point x="421" y="18"/>
      <point x="421" y="36" type="curve" smooth="yes"/>
      <point x="421" y="145" type="line"/>
      <point x="431" y="143"/>
      <point x="436" y="135"/>
      <point x="436" y="122" type="curve" smooth="yes"/>
      <point x="436" y="-73" type="line" smooth="yes"/>
      <point x="436" y="-105"/>
      <point x="450" y="-119"/>
      <point x="482" y="-119" type="curve" smooth="yes"/>
      <point x="636" y="-119" type="line" smooth="yes"/>
      <point x="650" y="-119"/>
      <point x="661" y="-115"/>
      <point x="667" y="-109" type="curve"/>
      <point x="797" y="-1" type="line" smooth="yes"/>
      <point x="806" y="7"/>
      <point x="811" y="18"/>
      <point x="811" y="36" type="curve" smooth="yes"/>
      <point x="811" y="318" type="line" smooth="yes"/>
      <point x="811" y="399"/>
      <point x="765" y="453"/>
      <point x="693" y="463" type="curve"/>
      <point x="789" y="683" type="line" smooth="yes"/>
      <point x="802" y="713"/>
      <point x="791" y="730"/>
      <point x="758" y="730" type="curve" smooth="yes"/>
      <point x="604" y="730" type="line" smooth="yes"/>
      <point x="586" y="730"/>
      <point x="573" y="726"/>
      <point x="563" y="718" type="curve" smooth="yes"/>
      <point x="434" y="609" type="line" smooth="yes"/>
      <point x="429" y="605"/>
      <point x="425" y="599"/>
      <point x="421" y="593" type="curve"/>
      <point x="421" y="684" type="line" smooth="yes"/>
      <point x="421" y="716"/>
      <point x="407" y="730"/>
      <point x="375" y="730" type="curve" smooth="yes"/>
      <point x="220" y="730" type="line" smooth="yes"/>
      <point x="206" y="730"/>
      <point x="195" y="727"/>
      <point x="188" y="721" type="curve" smooth="yes"/>
      <point x="59" y="612" type="line" smooth="yes"/>
      <point x="50" y="604"/>
      <point x="45" y="593"/>
      <point x="45" y="575" type="curve" smooth="yes"/>
      <point x="45" y="-73" type="line" smooth="yes"/>
      <point x="45" y="-105"/>
      <point x="59" y="-119"/>
      <point x="91" y="-119" type="curve" smooth="yes"/>
      <point x="246" y="-119" type="line" smooth="yes"/>
      <point x="260" y="-119"/>
      <point x="271" y="-115"/>
      <point x="277" y="-109" type="curve"/>
    </contour>
    <contour>
      <point x="375" y="0" type="curve" smooth="yes"/>
      <point x="220" y="0" type="line" smooth="yes"/>
      <point x="195" y="0"/>
      <point x="184" y="11"/>
      <point x="184" y="36" type="curve" smooth="yes"/>
      <point x="184" y="684" type="line" smooth="yes"/>
      <point x="184" y="709"/>
      <point x="195" y="720"/>
      <point x="220" y="720" type="curve" smooth="yes"/>
      <point x="375" y="720" type="line" smooth="yes"/>
      <point x="400" y="720"/>
      <point x="411" y="709"/>
      <point x="411" y="684" type="curve" smooth="yes"/>
      <point x="411" y="454" type="line"/>
      <point x="451" y="454" type="line"/>
      <point x="554" y="687" type="line" smooth="yes"/>
      <point x="564" y="711"/>
      <point x="578" y="720"/>
      <point x="604" y="720" type="curve" smooth="yes"/>
      <point x="758" y="720" type="line" smooth="yes"/>
      <point x="781" y="720"/>
      <point x="789" y="708"/>
      <point x="780" y="687" type="curve" smooth="yes"/>
      <point x="678" y="454" type="line"/>
      <point x="753" y="450"/>
      <point x="801" y="398"/>
      <point x="801" y="318" type="curve" smooth="yes"/>
      <point x="801" y="36" type="line" smooth="yes"/>
      <point x="801" y="11"/>
      <point x="790" y="0"/>
      <point x="765" y="0" type="curve" smooth="yes"/>
      <point x="611" y="0" type="line" smooth="yes"/>
      <point x="586" y="0"/>
      <point x="575" y="11"/>
      <point x="575" y="36" type="curve" smooth="yes"/>
      <point x="575" y="231" type="line" smooth="yes"/>
      <point x="575" y="253"/>
      <point x="564" y="265"/>
      <point x="543" y="265" type="curve" smooth="yes"/>
      <point x="411" y="265" type="line"/>
      <point x="411" y="36" type="line" smooth="yes"/>
      <point x="411" y="11"/>
      <point x="400" y="0"/>
    </contour>
    <contour>
      <point x="303" y="90" type="line"/>
      <point x="303" y="354" type="line"/>
      <point x="572" y="354" type="line" smooth="yes"/>
      <point x="646" y="354"/>
      <point x="683" y="330"/>
      <point x="683" y="266" type="curve" smooth="yes"/>
      <point x="683" y="90" type="line"/>
      <point x="693" y="90" type="line"/>
      <point x="693" y="266" type="line" smooth="yes"/>
      <point x="693" y="336"/>
      <point x="654" y="364"/>
      <point x="572" y="364" type="curve" smooth="yes"/>
      <point x="531" y="364" type="line"/>
      <point x="646" y="630" type="line"/>
      <point x="635" y="630" type="line"/>
      <point x="520" y="364" type="line"/>
      <point x="303" y="364" type="line"/>
      <point x="303" y="630" type="line"/>
      <point x="293" y="630" type="line"/>
      <point x="293" y="90" type="line"/>
    </contour>
  </outline>
</glyph>
<glyph name="N" format="1">
  <advance width="853"/>
  <unicode hex="004E"/>
  <outline>
    <contour>
      <point x="402" y="-1" type="line" smooth="yes"/>
      <point x="411" y="7"/>
      <point x="416" y="18"/>
      <point x="416" y="36" type="curve" smooth="yes"/>
      <point x="416" y="73" type="line"/>
      <point x="438" y="46" type="line"/>
      <point x="438" y="-73" type="line" smooth="yes"/>
      <point x="438" y="-105"/>
      <point x="452" y="-119"/>
      <point x="484" y="-119" type="curve" smooth="yes"/>
      <point x="634" y="-119" type="line" smooth="yes"/>
      <point x="648" y="-119"/>
      <point x="659" y="-115"/>
      <point x="665" y="-109" type="curve"/>
      <point x="795" y="-1" type="line" smooth="yes"/>
      <point x="804" y="7"/>
      <point x="809" y="18"/>
      <point x="809" y="36" type="curve" smooth="yes"/>
      <point x="809" y="684" type="line" smooth="yes"/>
      <point x="809" y="716"/>
      <point x="795" y="730"/>
      <point x="763" y="730" type="curve" smooth="yes"/>
      <point x="613" y="730" type="line" smooth="yes"/>
      <point x="599" y="730"/>
      <point x="588" y="727"/>
      <point x="581" y="721" type="curve" smooth="yes"/>
      <point x="460" y="620" type="line"/>
      <point x="391" y="700" type="line" smooth="yes"/>
      <point x="371" y="722"/>
      <point x="353" y="730"/>
      <point x="324" y="730" type="curve" smooth="yes"/>
      <point x="220" y="730" type="line" smooth="yes"/>
      <point x="206" y="730"/>
      <point x="195" y="727"/>
      <point x="188" y="721" type="curve" smooth="yes"/>
      <point x="59" y="612" type="line" smooth="yes"/>
      <point x="50" y="604"/>
      <point x="45" y="593"/>
      <point x="45" y="575" type="curve" smooth="yes"/>
      <point x="45" y="-73" type="line" smooth="yes"/>
      <point x="45" y="-105"/>
      <point x="59" y="-119"/>
      <point x="91" y="-119" type="curve" smooth="yes"/>
      <point x="241" y="-119" type="line" smooth="yes"/>
      <point x="255" y="-119"/>
      <point x="266" y="-115"/>
      <point x="272" y="-109" type="curve"/>
    </contour>
    <contour>
      <point x="370" y="0" type="curve" smooth="yes"/>
      <point x="220" y="0" type="line" smooth="yes"/>
      <point x="195" y="0"/>
      <point x="184" y="11"/>
      <point x="184" y="36" type="curve" smooth="yes"/>
      <point x="184" y="684" type="line" smooth="yes"/>
      <point x="184" y="709"/>
      <point x="195" y="720"/>
      <point x="220" y="720" type="curve" smooth="yes"/>
      <point x="324" y="720" type="line" smooth="yes"/>
      <point x="350" y="720"/>
      <point x="366" y="713"/>
      <point x="383" y="693" type="curve" smooth="yes"/>
      <point x="577" y="471" type="line"/>
      <point x="577" y="684" type="line" smooth="yes"/>
      <point x="577" y="709"/>
      <point x="588" y="720"/>
      <point x="613" y="720" type="curve" smooth="yes"/>
      <point x="763" y="720" type="line" smooth="yes"/>
      <point x="788" y="720"/>
      <point x="799" y="709"/>
      <point x="799" y="684" type="curve" smooth="yes"/>
      <point x="799" y="36" type="line" smooth="yes"/>
      <point x="799" y="11"/>
      <point x="788" y="0"/>
      <point x="763" y="0" type="curve" smooth="yes"/>
      <point x="613" y="0" type="line" smooth="yes"/>
      <point x="588" y="0"/>
      <point x="577" y="11"/>
      <point x="577" y="36" type="curve" smooth="yes"/>
      <point x="577" y="159" type="line"/>
      <point x="406" y="366" type="line"/>
      <point x="406" y="36" type="line" smooth="yes"/>
      <point x="406" y="11"/>
      <point x="395" y="0"/>
    </contour>
    <contour>
      <point x="316" y="622" type="line"/>
      <point x="309" y="629"/>
      <point x="307" y="631"/>
      <point x="301" y="631" type="curve" smooth="yes"/>
      <point x="295" y="631"/>
      <point x="289" y="627"/>
      <point x="289" y="619" type="curve" smooth="yes"/>
      <point x="289" y="90" type="line"/>
      <point x="299" y="90" type="line"/>
      <point x="299" y="617" type="line" smooth="yes"/>
      <point x="299" y="618"/>
      <point x="299" y="620"/>
      <point x="301" y="620" type="curve" smooth="yes"/>
      <point x="303" y="620"/>
      <point x="304" y="619"/>
      <point x="306" y="617" type="curve" smooth="yes"/>
      <point x="684" y="193" type="line"/>
      <point x="684" y="90" type="line"/>
      <point x="694" y="90" type="line"/>
      <point x="694" y="630" type="line"/>
      <point x="684" y="630" type="line"/>
      <point x="684" y="208" type="line"/>
    </contour>
  </outline>
</glyph>
<glyph name="O" format="1">
  <advance width="837"/>
  <unicode hex="004F"/>
  <outline>
    <contour>
      <point x="615" y="-71" type="curve" smooth="yes"/>
      <point x="744" y="37" type="line" smooth="yes"/>
      <point x="789" y="75"/>
      <point x="804" y="127"/>
      <point x="804" y="189" type="curve" smooth="yes"/>
      <point x="804" y="530" type="line" smooth="yes"/>
      <point x="804" y="656"/>
      <point x="746" y="745"/>
      <point x="484" y="745" type="curve" smooth="yes"/>
      <point x="350" y="745"/>
      <point x="271" y="722"/>
      <point x="224" y="682" type="curve" smooth="yes"/>
      <point x="94" y="574" type="line" smooth="yes"/>
      <point x="49" y="536"/>
      <point x="34" y="483"/>
      <point x="34" y="421" type="curve" smooth="yes"/>
      <point x="34" y="120" type="line" smooth="yes"/>
      <point x="34" y="-6"/>
      <point x="93" y="-134"/>
      <point x="355" y="-134" type="curve" smooth="yes"/>
      <point x="488" y="-134"/>
      <point x="568" y="-111"/>
    </contour>
    <contour>
      <point x="410" y="225" type="curve" smooth="yes"/>
      <point x="410" y="414" type="line"/>
      <point x="425" y="408"/>
      <point x="429" y="398"/>
      <point x="429" y="385" type="curve" smooth="yes"/>
      <point x="429" y="195" type="line"/>
      <point x="414" y="202"/>
      <point x="410" y="212"/>
    </contour>
    <contour>
      <point x="794" y="189" type="line" smooth="yes"/>
      <point x="794" y="67"/>
      <point x="734" y="-15"/>
      <point x="484" y="-15" type="curve" smooth="yes"/>
      <point x="234" y="-15"/>
      <point x="173" y="67"/>
      <point x="173" y="189" type="curve" smooth="yes"/>
      <point x="173" y="530" type="line" smooth="yes"/>
      <point x="173" y="652"/>
      <point x="234" y="735"/>
      <point x="484" y="735" type="curve" smooth="yes"/>
      <point x="734" y="735"/>
      <point x="794" y="652"/>
      <point x="794" y="530" type="curve" smooth="yes"/>
    </contour>
    <contour>
      <point x="400" y="225" type="line" smooth="yes"/>
      <point x="400" y="198"/>
      <point x="412" y="178"/>
      <point x="484" y="178" type="curve" smooth="yes"/>
      <point x="557" y="178"/>
      <point x="568" y="198"/>
      <point x="568" y="225" type="curve" smooth="yes"/>
      <point x="568" y="494" type="line" smooth="yes"/>
      <point x="568" y="520"/>
      <point x="557" y="540"/>
      <point x="484" y="540" type="curve" smooth="yes"/>
      <point x="412" y="540"/>
      <point x="400" y="520"/>
      <point x="400" y="494" type="curve" smooth="yes"/>
    </contour>
    <contour>
      <point x="685" y="212" type="curve" smooth="yes"/>
      <point x="685" y="507" type="line" smooth="yes"/>
      <point x="685" y="588"/>
      <point x="639" y="642"/>
      <point x="482" y="642" type="curve" smooth="yes"/>
      <point x="325" y="642"/>
      <point x="281" y="588"/>
      <point x="281" y="507" type="curve" smooth="yes"/>
      <point x="281" y="212" type="line" smooth="yes"/>
      <point x="281" y="131"/>
      <point x="325" y="77"/>
      <point x="482" y="77" type="curve" smooth="yes"/>
      <point x="639" y="77"/>
      <point x="685" y="131"/>
    </contour>
    <contour>
      <point x="291" y="212" type="curve" smooth="yes"/>
      <point x="291" y="507" type="line" smooth="yes"/>
      <point x="291" y="582"/>
      <point x="333" y="632"/>
      <point x="482" y="632" type="curve" smooth="yes"/>
      <point x="631" y="632"/>
      <point x="675" y="582"/>
      <point x="675" y="507" type="curve" smooth="yes"/>
      <point x="675" y="212" type="line" smooth="yes"/>
      <point x="675" y="137"/>
      <point x="631" y="87"/>
      <point x="482" y="87" type="curve" smooth="yes"/>
      <point x="333" y="87"/>
      <point x="291" y="137"/>
    </contour>
  </outline>
</glyph>
<glyph name="P" format="1">
  <advance width="782"/>
  <unicode hex="0050"/>
  <outline>
    <contour>
      <point x="246" y="-119" type="line" smooth="yes"/>
      <point x="260" y="-119"/>
      <point x="271" y="-115"/>
      <point x="277" y="-109" type="curve"/>
      <point x="407" y="-1" type="line" smooth="yes"/>
      <point x="416" y="7"/>
      <point x="421" y="18"/>
      <point x="421" y="36" type="curve" smooth="yes"/>
      <point x="421" y="84" type="line"/>
      <point x="497" y="87"/>
      <point x="549" y="106"/>
      <point x="582" y="134" type="curve" smooth="yes"/>
      <point x="712" y="242" type="line" smooth="yes"/>
      <point x="756" y="279"/>
      <point x="772" y="333"/>
      <point x="772" y="397" type="curve" smooth="yes"/>
      <point x="772" y="525" type="line" smooth="yes"/>
      <point x="772" y="646"/>
      <point x="717" y="730"/>
      <point x="526" y="730" type="curve" smooth="yes"/>
      <point x="220" y="730" type="line" smooth="yes"/>
      <point x="206" y="730"/>
      <point x="195" y="727"/>
      <point x="188" y="721" type="curve" smooth="yes"/>
      <point x="59" y="612" type="line" smooth="yes"/>
      <point x="50" y="604"/>
      <point x="45" y="593"/>
      <point x="45" y="575" type="curve" smooth="yes"/>
      <point x="45" y="-73" type="line" smooth="yes"/>
      <point x="45" y="-105"/>
      <point x="59" y="-119"/>
      <point x="91" y="-119" type="curve" smooth="yes"/>
    </contour>
    <contour>
      <point x="375" y="0" type="curve" smooth="yes"/>
      <point x="220" y="0" type="line" smooth="yes"/>
      <point x="195" y="0"/>
      <point x="184" y="11"/>
      <point x="184" y="36" type="curve" smooth="yes"/>
      <point x="184" y="684" type="line" smooth="yes"/>
      <point x="184" y="709"/>
      <point x="195" y="720"/>
      <point x="220" y="720" type="curve" smooth="yes"/>
      <point x="526" y="720" type="line" smooth="yes"/>
      <point x="708" y="720"/>
      <point x="762" y="641"/>
      <point x="762" y="525" type="curve" smooth="yes"/>
      <point x="762" y="397" type="line" smooth="yes"/>
      <point x="762" y="281"/>
      <point x="708" y="202"/>
      <point x="526" y="202" type="curve" smooth="yes"/>
      <point x="411" y="202" type="line"/>
      <point x="411" y="36" type="line" smooth="yes"/>
      <point x="411" y="11"/>
      <point x="400" y="0"/>
    </contour>
    <contour>
      <point x="409" y="533" type="line"/>
      <point x="409" y="382" type="line"/>
      <point x="499" y="382" type="line" smooth="yes"/>
      <point x="538" y="382"/>
      <point x="546" y="405"/>
      <point x="546" y="431" type="curve" smooth="yes"/>
      <point x="546" y="484" type="line" smooth="yes"/>
      <point x="546" y="510"/>
      <point x="538" y="533"/>
      <point x="499" y="533" type="curve" smooth="yes"/>
    </contour>
    <contour>
      <point x="512" y="287" type="line" smooth="yes"/>
      <point x="638" y="287"/>
      <point x="662" y="342"/>
      <point x="662" y="420" type="curve" smooth="yes"/>
      <point x="662" y="494" type="line" smooth="yes"/>
      <point x="662" y="572"/>
      <point x="638" y="630"/>
      <point x="512" y="630" type="curve" smooth="yes"/>
      <point x="296" y="630" type="line"/>
      <point x="296" y="90" type="line"/>
      <point x="306" y="90" type="line"/>
      <point x="306" y="287" type="line"/>
    </contour>
    <contour>
      <point x="306" y="297" type="line"/>
      <point x="306" y="620" type="line"/>
      <point x="512" y="620" type="line" smooth="yes"/>
      <point x="630" y="620"/>
      <point x="652" y="566"/>
      <point x="652" y="494" type="curve" smooth="yes"/>
      <point x="652" y="420" type="line" smooth="yes"/>
      <point x="652" y="348"/>
      <point x="630" y="297"/>
      <point x="512" y="297" type="curve" smooth="yes"/>
    </contour>
  </outline>
</glyph>
<glyph name="T" format="1">
  <advance width="756"/>
  <unicode hex="0054"/>
  <outline>
    <contour>
      <point x="395" y="-119" type="line" smooth="yes"/>
      <point x="409" y="-119"/>
      <point x="420" y="-115"/>
      <point x="426" y="-109" type="curve"/>
      <point x="556" y="-1" type="line" smooth="yes"/>
      <point x="565" y="7"/>
      <point x="570" y="18"/>
      <point x="570" y="36" type="curve" smooth="yes"/>
      <point x="570" y="408" type="line"/>
      <point x="578" y="408" type="line" smooth="yes"/>
      <point x="592" y="408"/>
      <point x="603" y="412"/>
      <point x="609" y="418" type="curve"/>
      <point x="739" y="526" type="line" smooth="yes"/>
      <point x="748" y="534"/>
      <point x="753" y="545"/>
      <point x="753" y="563" type="curve" smooth="yes"/>
      <point x="753" y="684" type="line" smooth="yes"/>
      <point x="753" y="716"/>
      <point x="739" y="730"/>
      <point x="707" y="730" type="curve" smooth="yes"/>
      <point x="179" y="730" type="line" smooth="yes"/>
      <point x="165" y="730"/>
      <point x="154" y="727"/>
      <point x="147" y="721" type="curve" smooth="yes"/>
      <point x="18" y="612" type="line" smooth="yes"/>
      <point x="9" y="604"/>
      <point x="4" y="593"/>
      <point x="4" y="575" type="curve" smooth="yes"/>
      <point x="4" y="454" type="line" smooth="yes"/>
      <point x="4" y="422"/>
      <point x="18" y="408"/>
      <point x="50" y="408" type="curve" smooth="yes"/>
      <point x="187" y="408" type="line"/>
      <point x="187" y="-73" type="line" smooth="yes"/>
      <point x="187" y="-105"/>
      <point x="201" y="-119"/>
      <point x="233" y="-119" type="curve" smooth="yes"/>
    </contour>
    <contour>
      <point x="524" y="0" type="curve" smooth="yes"/>
      <point x="362" y="0" type="line" smooth="yes"/>
      <point x="337" y="0"/>
      <point x="326" y="11"/>
      <point x="326" y="36" type="curve" smooth="yes"/>
      <point x="326" y="527" type="line"/>
      <point x="179" y="527" type="line" smooth="yes"/>
      <point x="154" y="527"/>
      <point x="143" y="538"/>
      <point x="143" y="563" type="curve" smooth="yes"/>
      <point x="143" y="684" type="line" smooth="yes"/>
      <point x="143" y="709"/>
      <point x="154" y="720"/>
      <point x="179" y="720" type="curve" smooth="yes"/>
      <point x="707" y="720" type="line" smooth="yes"/>
      <point x="732" y="720"/>
      <point x="743" y="709"/>
      <point x="743" y="684" type="curve" smooth="yes"/>
      <point x="743" y="563" type="line" smooth="yes"/>
      <point x="743" y="538"/>
      <point x="732" y="527"/>
      <point x="707" y="527" type="curve" smooth="yes"/>
      <point x="560" y="527" type="line"/>
      <point x="560" y="36" type="line" smooth="yes"/>
      <point x="560" y="11"/>
      <point x="549" y="0"/>
    </contour>
    <contour>
      <point x="438" y="90" type="line"/>
      <point x="448" y="90" type="line"/>
      <point x="448" y="620" type="line"/>
      <point x="653" y="620" type="line"/>
      <point x="653" y="630" type="line"/>
      <point x="233" y="630" type="line"/>
      <point x="233" y="620" type="line"/>
      <point x="438" y="620" type="line"/>
    </contour>
  </outline>
</glyph>
<glyph name="U" format="1">
  <advance width="846"/>
  <unicode hex="0055"/>
  <outline>
    <contour>
      <point x="359" y="-134" type="curve" smooth="yes"/>
      <point x="491" y="-134"/>
      <point x="570" y="-111"/>
      <point x="617" y="-71" type="curve" smooth="yes"/>
      <point x="747" y="37" type="line" smooth="yes"/>
      <point x="792" y="75"/>
      <point x="807" y="127"/>
      <point x="807" y="189" type="curve" smooth="yes"/>
      <point x="807" y="684" type="line" smooth="yes"/>
      <point x="807" y="716"/>
      <point x="793" y="730"/>
      <point x="761" y="730" type="curve" smooth="yes"/>
      <point x="609" y="730" type="line" smooth="yes"/>
      <point x="594" y="730"/>
      <point x="584" y="727"/>
      <point x="577" y="721" type="curve" smooth="yes"/>
      <point x="447" y="612" type="line"/>
      <point x="446" y="611" type="line" smooth="yes"/>
      <point x="438" y="604"/>
      <point x="434" y="593"/>
      <point x="434" y="575" type="curve" smooth="yes"/>
      <point x="434" y="200" type="line"/>
      <point x="421" y="206"/>
      <point x="418" y="216"/>
      <point x="418" y="228" type="curve" smooth="yes"/>
      <point x="418" y="684" type="line" smooth="yes"/>
      <point x="418" y="716"/>
      <point x="404" y="730"/>
      <point x="372" y="730" type="curve" smooth="yes"/>
      <point x="215" y="730" type="line" smooth="yes"/>
      <point x="201" y="730"/>
      <point x="190" y="727"/>
      <point x="183" y="721" type="curve" smooth="yes"/>
      <point x="54" y="612" type="line" smooth="yes"/>
      <point x="45" y="604"/>
      <point x="40" y="593"/>
      <point x="40" y="575" type="curve" smooth="yes"/>
      <point x="40" y="120" type="line" smooth="yes"/>
      <point x="40" y="-6"/>
      <point x="119" y="-134"/>
    </contour>
    <contour>
      <point x="797" y="189" type="line" smooth="yes"/>
      <point x="797" y="67"/>
      <point x="736" y="-15"/>
      <point x="488" y="-15" type="curve" smooth="yes"/>
      <point x="240" y="-15"/>
      <point x="179" y="67"/>
      <point x="179" y="189" type="curve" smooth="yes"/>
      <point x="179" y="684" type="line" smooth="yes"/>
      <point x="179" y="709"/>
      <point x="190" y="720"/>
      <point x="215" y="720" type="curve" smooth="yes"/>
      <point x="372" y="720" type="line" smooth="yes"/>
      <point x="397" y="720"/>
      <point x="408" y="709"/>
      <point x="408" y="684" type="curve" smooth="yes"/>
      <point x="408" y="228" type="line" smooth="yes"/>
      <point x="408" y="201"/>
      <point x="420" y="181"/>
      <point x="490" y="181" type="curve" smooth="yes"/>
      <point x="561" y="181"/>
      <point x="573" y="201"/>
      <point x="573" y="228" type="curve" smooth="yes"/>
      <point x="573" y="684" type="line" smooth="yes"/>
      <point x="573" y="709"/>
      <point x="583" y="720"/>
      <point x="609" y="720" type="curve" smooth="yes"/>
      <point x="761" y="720" type="line" smooth="yes"/>
      <point x="786" y="720"/>
      <point x="797" y="709"/>
      <point x="797" y="684" type="curve" smooth="yes"/>
    </contour>
    <contour>
      <point x="289" y="630" type="line"/>
      <point x="289" y="213" type="line" smooth="yes"/>
      <point x="289" y="132"/>
      <point x="332" y="78"/>
      <point x="489" y="78" type="curve" smooth="yes"/>
      <point x="646" y="78"/>
      <point x="690" y="132"/>
      <point x="690" y="213" type="curve" smooth="yes"/>
      <point x="690" y="630" type="line"/>
      <point x="680" y="630" type="line"/>
      <point x="680" y="213" type="line" smooth="yes"/>
      <point x="680" y="138"/>
      <point x="638" y="88"/>
      <point x="489" y="88" type="curve" smooth="yes"/>
      <point x="340" y="88"/>
      <point x="299" y="138"/>
      <point x="299" y="213" type="curve" smooth="yes"/>
      <point x="299" y="630" type="line"/>
    </contour>
  </outline>
</glyph>
<glyph name="asciitilde" format="1">
  <advance width="834"/>
  <unicode hex="007E"/>
  <outline>
    <contour>
      <point x="616" y="168" type="curve"/>
      <point x="625" y="171"/>
      <point x="633" y="175"/>
      <point x="640" y="182" type="curve"/>
      <point x="768" y="289" type="line" smooth="yes"/>
      <point x="780" y="299"/>
      <point x="789" y="314"/>
      <point x="789" y="339" type="curve" smooth="yes"/>
      <point x="789" y="438" type="line" smooth="yes"/>
      <point x="789" y="475"/>
      <point x="770" y="492"/>
      <point x="724" y="479" type="curve" smooth="yes"/>
      <point x="643" y="454"/>
      <point x="637" y="450"/>
      <point x="514" y="468" type="curve" smooth="yes"/>
      <point x="483" y="472" type="line"/>
      <point x="459" y="475" type="line" smooth="yes"/>
      <point x="343" y="492"/>
      <point x="324" y="499"/>
      <point x="219" y="462" type="curve" smooth="yes"/>
      <point x="209" y="459"/>
      <point x="201" y="455"/>
      <point x="195" y="450" type="curve" smooth="yes"/>
      <point x="65" y="341" type="line" smooth="yes"/>
      <point x="54" y="331"/>
      <point x="46" y="317"/>
      <point x="46" y="291" type="curve" smooth="yes"/>
      <point x="46" y="185" type="line" smooth="yes"/>
      <point x="46" y="157"/>
      <point x="62" y="138"/>
      <point x="110" y="150" type="curve" smooth="yes"/>
      <point x="183" y="173"/>
      <point x="206" y="179"/>
      <point x="312" y="163" type="curve" smooth="yes"/>
      <point x="352" y="158" type="line"/>
      <point x="375" y="155" type="line"/>
      <point x="490" y="138"/>
      <point x="511" y="131"/>
    </contour>
    <contour>
      <point x="482" y="277" type="line"/>
      <point x="442" y="282" type="line"/>
      <point x="334" y="298"/>
      <point x="311" y="292"/>
      <point x="236" y="269" type="curve"/>
      <point x="202" y="260"/>
      <point x="185" y="271"/>
      <point x="185" y="294" type="curve" smooth="yes"/>
      <point x="185" y="400" type="line" smooth="yes"/>
      <point x="185" y="435"/>
      <point x="202" y="446"/>
      <point x="222" y="453" type="curve" smooth="yes"/>
      <point x="325" y="489"/>
      <point x="344" y="482"/>
      <point x="458" y="465" type="curve" smooth="yes"/>
      <point x="482" y="462" type="line"/>
      <point x="513" y="458" type="line" smooth="yes"/>
      <point x="638" y="440"/>
      <point x="644" y="444"/>
      <point x="727" y="469" type="curve" smooth="yes"/>
      <point x="762" y="479"/>
      <point x="779" y="468"/>
      <point x="779" y="438" type="curve" smooth="yes"/>
      <point x="779" y="339" type="line" smooth="yes"/>
      <point x="779" y="304"/>
      <point x="760" y="293"/>
      <point x="742" y="286" type="curve" smooth="yes"/>
      <point x="639" y="250"/>
      <point x="618" y="257"/>
      <point x="505" y="274" type="curve" smooth="yes"/>
    </contour>
    <contour>
      <point x="275" y="368" type="line"/>
      <point x="324" y="381"/>
      <point x="355" y="383"/>
      <point x="441" y="370" type="curve" smooth="yes"/>
      <point x="481" y="365" type="line"/>
      <point x="504" y="362" type="line" smooth="yes"/>
      <point x="594" y="349"/>
      <point x="628" y="341"/>
      <point x="689" y="357" type="curve"/>
      <point x="689" y="368" type="line"/>
      <point x="628" y="351"/>
      <point x="596" y="358"/>
      <point x="506" y="372" type="curve" smooth="yes"/>
      <point x="483" y="375" type="line"/>
      <point x="443" y="380" type="line" smooth="yes"/>
      <point x="356" y="393"/>
      <point x="323" y="392"/>
      <point x="275" y="379" type="curve"/>
    </contour>
  </outline>
</glyph>
<glyph name="exclamdown" format="1">
  <advance width="523"/>
  <unicode hex="00A1"/>
  <outline>
    <contour>
      <point x="102" y="-119" type="curve" smooth="yes"/>
      <point x="293" y="-119" type="line" smooth="yes"/>
      <point x="307" y="-119"/>
      <point x="317" y="-115"/>
      <point x="323" y="-110" type="curve" smooth="yes"/>
      <point x="453" y="-1" type="line" smooth="yes"/>
      <point x="463" y="7"/>
      <point x="467" y="18"/>
      <point x="466" y="37" type="curve" smooth="yes"/>
      <point x="452" y="422" type="line" smooth="yes"/>
      <point x="451" y="454"/>
      <point x="436" y="468"/>
      <point x="404" y="468" type="curve" smooth="yes"/>
      <point x="394" y="468" type="line"/>
      <point x="451" y="516" type="line" smooth="yes"/>
      <point x="460" y="524"/>
      <point x="465" y="535"/>
      <point x="465" y="553" type="curve" smooth="yes"/>
      <point x="465" y="684" type="line" smooth="yes"/>
      <point x="465" y="716"/>
      <point x="451" y="730"/>
      <point x="419" y="730" type="curve" smooth="yes"/>
      <point x="235" y="730" type="line" smooth="yes"/>
      <point x="221" y="730"/>
      <point x="210" y="727"/>
      <point x="203" y="721" type="curve" smooth="yes"/>
      <point x="74" y="612" type="line" smooth="yes"/>
      <point x="65" y="604"/>
      <point x="60" y="593"/>
      <point x="60" y="575" type="curve" smooth="yes"/>
      <point x="60" y="444" type="line" smooth="yes"/>
      <point x="60" y="411"/>
      <point x="74" y="398"/>
      <point x="106" y="398" type="curve" smooth="yes"/>
      <point x="144" y="398" type="line"/>
      <point x="87" y="350" type="line" smooth="yes"/>
      <point x="78" y="342"/>
      <point x="73" y="331"/>
      <point x="73" y="313" type="curve"/>
      <point x="58" y="-73" type="line" smooth="yes"/>
      <point x="57" y="-105"/>
      <point x="70" y="-119"/>
    </contour>
    <contour>
      <point x="235" y="720" type="curve" smooth="yes"/>
      <point x="419" y="720" type="line" smooth="yes"/>
      <point x="444" y="720"/>
      <point x="455" y="709"/>
      <point x="455" y="684" type="curve" smooth="yes"/>
      <point x="455" y="553" type="line" smooth="yes"/>
      <point x="455" y="527"/>
      <point x="444" y="517"/>
      <point x="419" y="517" type="curve" smooth="yes"/>
      <point x="235" y="517" type="line" smooth="yes"/>
      <point x="210" y="517"/>
      <point x="199" y="527"/>
      <point x="199" y="553" type="curve"/>
      <point x="199" y="684" type="line"/>
      <point x="199" y="709"/>
      <point x="210" y="720"/>
    </contour>
    <contour>
      <point x="249" y="458" type="curve" smooth="yes"/>
      <point x="404" y="458" type="line" smooth="yes"/>
      <point x="429" y="458"/>
      <point x="441" y="447"/>
      <point x="442" y="422" type="curve" smooth="yes"/>
      <point x="456" y="36" type="line" smooth="yes"/>
      <point x="457" y="11"/>
      <point x="447" y="0"/>
      <point x="422" y="0" type="curve" smooth="yes"/>
      <point x="231" y="0" type="line" smooth="yes"/>
      <point x="206" y="0"/>
      <point x="196" y="11"/>
      <point x="197" y="36" type="curve" smooth="yes"/>
      <point x="212" y="422" type="line" smooth="yes"/>
      <point x="213" y="447"/>
      <point x="224" y="458"/>
    </contour>
    <contour>
      <point x="322" y="640" type="line"/>
      <point x="322" y="597" type="line"/>
      <point x="332" y="597" type="line"/>
      <point x="332" y="640" type="line"/>
    </contour>
    <contour>
      <point x="332" y="90" type="line"/>
      <point x="332" y="368" type="line"/>
      <point x="322" y="368" type="line"/>
      <point x="322" y="90" type="line"/>
    </contour>
  </outline>
</glyph>
<glyph name="cent" format="1">
  <advance width="728"/>
  <unicode hex="00A2"/>
  <outline>
    <contour>
      <point x="421" y="-169" type="line" smooth="yes"/>
      <point x="435" y="-169"/>
      <point x="446" y="-165"/>
      <point x="452" y="-159" type="curve"/>
      <point x="552" y="-76" type="line"/>
      <point x="556" y="-75"/>
      <point x="561" y="-73"/>
      <point x="566" y="-68" type="curve"/>
      <point x="695" y="39" type="line" smooth="yes"/>
      <point x="704" y="47"/>
      <point x="709" y="58"/>
      <point x="709" y="76" type="curve" smooth="yes"/>
      <point x="709" y="195" type="line" smooth="yes"/>
      <point x="709" y="227"/>
      <point x="695" y="241"/>
      <point x="663" y="241" type="curve" smooth="yes"/>
      <point x="462" y="241" type="line" smooth="yes"/>
      <point x="421" y="241"/>
      <point x="411" y="256"/>
      <point x="411" y="279" type="curve" smooth="yes"/>
      <point x="411" y="368" type="line"/>
      <point x="534" y="368" type="line" smooth="yes"/>
      <point x="548" y="368"/>
      <point x="559" y="372"/>
      <point x="565" y="378" type="curve"/>
      <point x="695" y="486" type="line" smooth="yes"/>
      <point x="704" y="494"/>
      <point x="709" y="505"/>
      <point x="709" y="523" type="curve" smooth="yes"/>
      <point x="709" y="644" type="line" smooth="yes"/>
      <point x="709" y="676"/>
      <point x="695" y="690"/>
      <point x="663" y="690" type="curve" smooth="yes"/>
      <point x="596" y="690" type="line"/>
      <point x="596" y="734" type="line" smooth="yes"/>
      <point x="596" y="766"/>
      <point x="582" y="780"/>
      <point x="550" y="780" type="curve" smooth="yes"/>
      <point x="405" y="780" type="line" smooth="yes"/>
      <point x="391" y="780"/>
      <point x="380" y="777"/>
      <point x="373" y="771" type="curve" smooth="yes"/>
      <point x="244" y="662" type="line" smooth="yes"/>
      <point x="238" y="657"/>
      <point x="234" y="651"/>
      <point x="231" y="642" type="curve"/>
      <point x="230" y="641"/>
      <point x="228" y="639"/>
      <point x="226" y="638" type="curve" smooth="yes"/>
      <point x="97" y="529" type="line" smooth="yes"/>
      <point x="51" y="491"/>
      <point x="34" y="434"/>
      <point x="34" y="366" type="curve" smooth="yes"/>
      <point x="34" y="175" type="line" smooth="yes"/>
      <point x="34" y="62"/>
      <point x="81" y="-59"/>
      <point x="230" y="-76" type="curve"/>
      <point x="230" y="-123" type="line" smooth="yes"/>
      <point x="230" y="-155"/>
      <point x="244" y="-169"/>
      <point x="276" y="-169" type="curve" smooth="yes"/>
    </contour>
    <contour>
      <point x="586" y="-14" type="line" smooth="yes"/>
      <point x="586" y="-39"/>
      <point x="575" y="-50"/>
      <point x="550" y="-50" type="curve" smooth="yes"/>
      <point x="405" y="-50" type="line" smooth="yes"/>
      <point x="380" y="-50"/>
      <point x="369" y="-39"/>
      <point x="369" y="-14" type="curve" smooth="yes"/>
      <point x="369" y="42" type="line"/>
      <point x="220" y="56"/>
      <point x="173" y="134"/>
      <point x="173" y="244" type="curve" smooth="yes"/>
      <point x="173" y="475" type="line" smooth="yes"/>
      <point x="173" y="585"/>
      <point x="220" y="664"/>
      <point x="369" y="678" type="curve"/>
      <point x="369" y="734" type="line" smooth="yes"/>
      <point x="369" y="759"/>
      <point x="380" y="770"/>
      <point x="405" y="770" type="curve" smooth="yes"/>
      <point x="550" y="770" type="line" smooth="yes"/>
      <point x="575" y="770"/>
      <point x="586" y="759"/>
      <point x="586" y="734" type="curve" smooth="yes"/>
      <point x="586" y="680" type="line"/>
      <point x="663" y="680" type="line" smooth="yes"/>
      <point x="688" y="680"/>
      <point x="699" y="669"/>
      <point x="699" y="644" type="curve" smooth="yes"/>
      <point x="699" y="523" type="line" smooth="yes"/>
      <point x="699" y="498"/>
      <point x="688" y="487"/>
      <point x="663" y="487" type="curve" smooth="yes"/>
      <point x="462" y="487" type="line" smooth="yes"/>
      <point x="410" y="487"/>
      <point x="401" y="463"/>
      <point x="401" y="437" type="curve" smooth="yes"/>
      <point x="401" y="279" type="line" smooth="yes"/>
      <point x="401" y="251"/>
      <point x="410" y="231"/>
      <point x="462" y="231" type="curve" smooth="yes"/>
      <point x="663" y="231" type="line" smooth="yes"/>
      <point x="688" y="231"/>
      <point x="699" y="220"/>
      <point x="699" y="195" type="curve" smooth="yes"/>
      <point x="699" y="76" type="line" smooth="yes"/>
      <point x="699" y="51"/>
      <point x="688" y="40"/>
      <point x="663" y="40" type="curve" smooth="yes"/>
      <point x="586" y="40" type="line"/>
    </contour>
    <contour>
      <point x="473" y="131" type="line"/>
      <point x="473" y="40" type="line"/>
      <point x="483" y="40" type="line"/>
      <point x="483" y="131" type="line"/>
      <point x="608" y="131" type="line"/>
      <point x="608" y="141" type="line"/>
      <point x="441" y="141" type="line" smooth="yes"/>
      <point x="321" y="141"/>
      <point x="291" y="173"/>
      <point x="291" y="260" type="curve" smooth="yes"/>
      <point x="291" y="457" type="line" smooth="yes"/>
      <point x="291" y="546"/>
      <point x="323" y="578"/>
      <point x="441" y="578" type="curve" smooth="yes"/>
      <point x="608" y="578" type="line"/>
      <point x="608" y="588" type="line"/>
      <point x="483" y="588" type="line"/>
      <point x="483" y="680" type="line"/>
      <point x="473" y="680" type="line"/>
      <point x="473" y="588" type="line"/>
      <point x="441" y="588" type="line" smooth="yes"/>
      <point x="313" y="588"/>
      <point x="281" y="552"/>
      <point x="281" y="457" type="curve" smooth="yes"/>
      <point x="281" y="260" type="line" smooth="yes"/>
      <point x="281" y="167"/>
      <point x="311" y="131"/>
      <point x="441" y="131" type="curve" smooth="yes"/>
    </contour>
  </outline>
</glyph>
<glyph name="guillemotleft" format="1">
  <advance width="912"/>
  <unicode hex="00AB"/>
  <outline>
    <contour>
      <point x="374" y="-8" type="curve" smooth="yes"/>
      <point x="462" y="66" type="line"/>
      <point x="481" y="55"/>
      <point x="503" y="46"/>
      <point x="530" y="38" type="curve" smooth="yes"/>
      <point x="699" y="-10" type="line" smooth="yes"/>
      <point x="714" y="-14"/>
      <point x="726" y="-11"/>
      <point x="734" y="-5" type="curve" smooth="yes"/>
      <point x="863" y="104" type="line" smooth="yes"/>
      <point x="872" y="112"/>
      <point x="877" y="123"/>
      <point x="877" y="140" type="curve" smooth="yes"/>
      <point x="877" y="254" type="line" smooth="yes"/>
      <point x="877" y="285"/>
      <point x="863" y="304"/>
      <point x="834" y="313" type="curve" smooth="yes"/>
      <point x="774" y="329" type="line"/>
      <point x="857" y="399" type="line" smooth="yes"/>
      <point x="870" y="410"/>
      <point x="877" y="425"/>
      <point x="877" y="445" type="curve" smooth="yes"/>
      <point x="877" y="559" type="line" smooth="yes"/>
      <point x="877" y="591"/>
      <point x="858" y="609"/>
      <point x="828" y="600" type="curve" smooth="yes"/>
      <point x="659" y="551" type="line" smooth="yes"/>
      <point x="623" y="540"/>
      <point x="594" y="527"/>
      <point x="572" y="510" type="curve" smooth="yes"/>
      <point x="517" y="464" type="line"/>
      <point x="517" y="562" type="line" smooth="yes"/>
      <point x="517" y="598"/>
      <point x="496" y="610"/>
      <point x="468" y="603" type="curve" smooth="yes"/>
      <point x="289" y="551" type="line" smooth="yes"/>
      <point x="252" y="539"/>
      <point x="223" y="527"/>
      <point x="201" y="509" type="curve" smooth="yes"/>
      <point x="72" y="401" type="line" smooth="yes"/>
      <point x="42" y="375"/>
      <point x="26" y="338"/>
      <point x="26" y="277" type="curve" smooth="yes"/>
      <point x="26" y="203" type="line" smooth="yes"/>
      <point x="26" y="98"/>
      <point x="72" y="64"/>
      <point x="160" y="38" type="curve" smooth="yes"/>
      <point x="339" y="-13" type="line" smooth="yes"/>
      <point x="354" y="-17"/>
      <point x="366" y="-14"/>
    </contour>
    <contour>
      <point x="471" y="106" type="curve" smooth="yes"/>
      <point x="292" y="157" type="line" smooth="yes"/>
      <point x="209" y="181"/>
      <point x="165" y="213"/>
      <point x="165" y="312" type="curve" smooth="yes"/>
      <point x="165" y="386" type="line" smooth="yes"/>
      <point x="165" y="485"/>
      <point x="209" y="516"/>
      <point x="292" y="541" type="curve" smooth="yes"/>
      <point x="471" y="593" type="line" smooth="yes"/>
      <point x="492" y="599"/>
      <point x="507" y="588"/>
      <point x="507" y="562" type="curve" smooth="yes"/>
      <point x="507" y="445" type="line" smooth="yes"/>
      <point x="507" y="419"/>
      <point x="494" y="405"/>
      <point x="471" y="396" type="curve" smooth="yes"/>
      <point x="376" y="368" type="line" smooth="yes"/>
      <point x="363" y="363"/>
      <point x="359" y="361"/>
      <point x="359" y="349" type="curve" smooth="yes"/>
      <point x="359" y="337"/>
      <point x="362" y="335"/>
      <point x="376" y="330" type="curve" smooth="yes"/>
      <point x="471" y="303" type="line" smooth="yes"/>
      <point x="495" y="296"/>
      <point x="507" y="280"/>
      <point x="507" y="254" type="curve" smooth="yes"/>
      <point x="507" y="137" type="line" smooth="yes"/>
      <point x="507" y="113"/>
      <point x="495" y="99"/>
    </contour>
    <contour>
      <point x="831" y="109" type="curve" smooth="yes"/>
      <point x="662" y="157" type="line" smooth="yes"/>
      <point x="579" y="181"/>
      <point x="535" y="213"/>
      <point x="535" y="312" type="curve" smooth="yes"/>
      <point x="535" y="386" type="line" smooth="yes"/>
      <point x="535" y="485"/>
      <point x="578" y="517"/>
      <point x="662" y="541" type="curve" smooth="yes"/>
      <point x="831" y="590" type="line" smooth="yes"/>
      <point x="854" y="597"/>
      <point x="867" y="582"/>
      <point x="867" y="559" type="curve" smooth="yes"/>
      <point x="867" y="445" type="line" smooth="yes"/>
      <point x="867" y="419"/>
      <point x="854" y="405"/>
      <point x="831" y="396" type="curve"/>
      <point x="736" y="368" type="line" smooth="yes"/>
      <point x="723" y="364"/>
      <point x="719" y="361"/>
      <point x="719" y="349" type="curve" smooth="yes"/>
      <point x="719" y="337"/>
      <point x="722" y="334"/>
      <point x="736" y="330" type="curve" smooth="yes"/>
      <point x="831" y="303" type="line" smooth="yes"/>
      <point x="855" y="296"/>
      <point x="867" y="280"/>
      <point x="867" y="254" type="curve" smooth="yes"/>
      <point x="867" y="140" type="line" smooth="yes"/>
      <point x="867" y="116"/>
      <point x="855" y="102"/>
    </contour>
    <contour>
      <point x="319" y="251" type="line" smooth="yes"/>
      <point x="289" y="260"/>
      <point x="266" y="271"/>
      <point x="266" y="312" type="curve" smooth="yes"/>
      <point x="266" y="386" type="line" smooth="yes"/>
      <point x="266" y="427"/>
      <point x="289" y="437"/>
      <point x="320" y="447" type="curve" smooth="yes"/>
      <point x="417" y="477" type="line"/>
      <point x="417" y="487" type="line"/>
      <point x="318" y="457" type="line" smooth="yes"/>
      <point x="281" y="446"/>
      <point x="256" y="433"/>
      <point x="256" y="386" type="curve" smooth="yes"/>
      <point x="256" y="312" type="line" smooth="yes"/>
      <point x="256" y="265"/>
      <point x="281" y="251"/>
      <point x="317" y="241" type="curve" smooth="yes"/>
      <point x="417" y="212" type="line"/>
      <point x="417" y="222" type="line"/>
    </contour>
    <contour>
      <point x="688" y="457" type="line" smooth="yes"/>
      <point x="651" y="446"/>
      <point x="626" y="433"/>
      <point x="626" y="386" type="curve" smooth="yes"/>
      <point x="626" y="312" type="line" smooth="yes"/>
      <point x="626" y="265"/>
      <point x="651" y="251"/>
      <point x="687" y="241" type="curve" smooth="yes"/>
      <point x="787" y="212" type="line"/>
      <point x="787" y="222" type="line"/>
      <point x="689" y="251" type="line" smooth="yes"/>
      <point x="659" y="259"/>
      <point x="636" y="271"/>
      <point x="636" y="312" type="curve" smooth="yes"/>
      <point x="636" y="386" type="line" smooth="yes"/>
      <point x="636" y="427"/>
      <point x="659" y="438"/>
      <point x="690" y="447" type="curve" smooth="yes"/>
      <point x="787" y="477" type="line"/>
      <point x="787" y="487" type="line"/>
    </contour>
  </outline>
</glyph>
<glyph name="degree" format="1">
  <advance width="583"/>
  <unicode hex="00B0"/>
  <outline>
    <contour>
      <point x="399" y="230" type="curve" smooth="yes"/>
      <point x="527" y="338" type="line" smooth="yes"/>
      <point x="554" y="360"/>
      <point x="563" y="390"/>
      <point x="563" y="425" type="curve" smooth="yes"/>
      <point x="563" y="609" type="line" smooth="yes"/>
      <point x="563" y="682"/>
      <point x="529" y="735"/>
      <point x="357" y="735" type="curve" smooth="yes"/>
      <point x="267" y="735"/>
      <point x="215" y="720"/>
      <point x="185" y="695" type="curve" smooth="yes"/>
      <point x="56" y="587" type="line" smooth="yes"/>
      <point x="30" y="565"/>
      <point x="21" y="535"/>
      <point x="21" y="500" type="curve" smooth="yes"/>
      <point x="21" y="346" type="line" smooth="yes"/>
      <point x="21" y="273"/>
      <point x="56" y="190"/>
      <point x="228" y="190" type="curve" smooth="yes"/>
      <point x="317" y="190"/>
      <point x="369" y="205"/>
    </contour>
    <contour>
      <point x="553" y="425" type="line"/>
      <point x="553" y="356"/>
      <point x="515" y="309"/>
      <point x="357" y="309" type="curve" smooth="yes"/>
      <point x="199" y="309"/>
      <point x="160" y="356"/>
      <point x="160" y="425" type="curve" smooth="yes"/>
      <point x="160" y="609" type="line" smooth="yes"/>
      <point x="160" y="678"/>
      <point x="199" y="725"/>
      <point x="357" y="725" type="curve" smooth="yes"/>
      <point x="515" y="725"/>
      <point x="553" y="678"/>
      <point x="553" y="609" type="curve" smooth="yes"/>
    </contour>
    <contour>
      <point x="307" y="474" type="line"/>
      <point x="307" y="458"/>
      <point x="315" y="447"/>
      <point x="357" y="447" type="curve" smooth="yes"/>
      <point x="399" y="447"/>
      <point x="407" y="458"/>
      <point x="407" y="474" type="curve" smooth="yes"/>
      <point x="407" y="559" type="line" smooth="yes"/>
      <point x="407" y="574"/>
      <point x="401" y="587"/>
      <point x="357" y="587" type="curve" smooth="yes"/>
      <point x="315" y="587"/>
      <point x="307" y="574"/>
      <point x="307" y="559" type="curve" smooth="yes"/>
    </contour>
    <contour>
      <point x="485" y="581" type="line" smooth="yes"/>
      <point x="485" y="639"/>
      <point x="456" y="661"/>
      <point x="357" y="661" type="curve" smooth="yes"/>
      <point x="259" y="661"/>
      <point x="229" y="639"/>
      <point x="229" y="581" type="curve" smooth="yes"/>
      <point x="229" y="452" type="line" smooth="yes"/>
      <point x="229" y="394"/>
      <point x="259" y="373"/>
      <point x="357" y="373" type="curve" smooth="yes"/>
      <point x="456" y="373"/>
      <point x="485" y="394"/>
      <point x="485" y="452" type="curve" smooth="yes"/>
    </contour>
    <contour>
      <point x="357" y="383" type="curve" smooth="yes"/>
      <point x="269" y="383"/>
      <point x="239" y="400"/>
      <point x="239" y="452" type="curve" smooth="yes"/>
      <point x="239" y="581" type="line" smooth="yes"/>
      <point x="239" y="633"/>
      <point x="269" y="651"/>
      <point x="357" y="651" type="curve" smooth="yes"/>
      <point x="446" y="651"/>
      <point x="475" y="633"/>
      <point x="475" y="581" type="curve" smooth="yes"/>
      <point x="475" y="452" type="line" smooth="yes"/>
      <point x="475" y="400"/>
      <point x="446" y="383"/>
    </contour>
  </outline>
</glyph>
<glyph name="plusminus" format="1">
  <advance width="834"/>
  <unicode hex="00B1"/>
  <outline>
    <contour>
      <point x="477" y="215" type="line"/>
      <point x="487" y="215" type="line"/>
      <point x="487" y="417" type="line"/>
      <point x="689" y="417" type="line"/>
      <point x="689" y="427" type="line"/>
      <point x="487" y="427" type="line"/>
      <point x="487" y="629" type="line"/>
      <point x="477" y="629" type="line"/>
      <point x="477" y="427" type="line"/>
      <point x="275" y="427" type="line"/>
      <point x="275" y="417" type="line"/>
      <point x="477" y="417" type="line"/>
    </contour>
    <contour>
      <point x="614" y="-118" type="line" smooth="yes"/>
      <point x="627" y="-118"/>
      <point x="638" y="-114"/>
      <point x="646" y="-109" type="curve" smooth="yes"/>
      <point x="775" y="0" type="line" smooth="yes"/>
      <point x="784" y="8"/>
      <point x="789" y="19"/>
      <point x="789" y="37" type="curve" smooth="yes"/>
      <point x="789" y="151" type="line" smooth="yes"/>
      <point x="789" y="184"/>
      <point x="775" y="197"/>
      <point x="743" y="197" type="curve" smooth="yes"/>
      <point x="590" y="197" type="line"/>
      <point x="590" y="210" type="line"/>
      <point x="614" y="210" type="line" smooth="yes"/>
      <point x="627" y="210"/>
      <point x="638" y="214"/>
      <point x="646" y="219" type="curve" smooth="yes"/>
      <point x="775" y="328" type="line" smooth="yes"/>
      <point x="784" y="336"/>
      <point x="789" y="347"/>
      <point x="789" y="365" type="curve" smooth="yes"/>
      <point x="789" y="479" type="line" smooth="yes"/>
      <point x="789" y="512"/>
      <point x="775" y="525"/>
      <point x="743" y="525" type="curve" smooth="yes"/>
      <point x="590" y="525" type="line"/>
      <point x="590" y="683" type="line" smooth="yes"/>
      <point x="590" y="715"/>
      <point x="576" y="729"/>
      <point x="544" y="729" type="curve" smooth="yes"/>
      <point x="420" y="729" type="line" smooth="yes"/>
      <point x="405" y="729"/>
      <point x="395" y="726"/>
      <point x="388" y="720" type="curve" smooth="yes"/>
      <point x="258" y="611" type="line"/>
      <point x="257" y="610" type="line" smooth="yes"/>
      <point x="249" y="603"/>
      <point x="245" y="592"/>
      <point x="245" y="574" type="curve" smooth="yes"/>
      <point x="245" y="525" type="line"/>
      <point x="221" y="525" type="line" smooth="yes"/>
      <point x="207" y="525"/>
      <point x="196" y="522"/>
      <point x="189" y="516" type="curve" smooth="yes"/>
      <point x="60" y="407" type="line" smooth="yes"/>
      <point x="51" y="399"/>
      <point x="46" y="388"/>
      <point x="46" y="370" type="curve" smooth="yes"/>
      <point x="46" y="256" type="line" smooth="yes"/>
      <point x="46" y="223"/>
      <point x="60" y="210"/>
      <point x="92" y="210" type="curve" smooth="yes"/>
      <point x="245" y="210" type="line"/>
      <point x="245" y="197" type="line"/>
      <point x="221" y="197" type="line" smooth="yes"/>
      <point x="207" y="197"/>
      <point x="196" y="194"/>
      <point x="189" y="188" type="curve" smooth="yes"/>
      <point x="60" y="79" type="line" smooth="yes"/>
      <point x="51" y="71"/>
      <point x="46" y="60"/>
      <point x="46" y="42" type="curve" smooth="yes"/>
      <point x="46" y="-72" type="line" smooth="yes"/>
      <point x="46" y="-105"/>
      <point x="60" y="-118"/>
      <point x="92" y="-118" type="curve" smooth="yes"/>
    </contour>
    <contour>
      <point x="743" y="1" type="curve" smooth="yes"/>
      <point x="221" y="1" type="line"/>
      <point x="196" y="1"/>
      <point x="185" y="11"/>
      <point x="185" y="37" type="curve" smooth="yes"/>
      <point x="185" y="151" type="line" smooth="yes"/>
      <point x="185" y="176"/>
      <point x="196" y="187"/>
      <point x="221" y="187" type="curve" smooth="yes"/>
      <point x="384" y="187" type="line"/>
      <point x="384" y="329" type="line"/>
      <point x="221" y="329" type="line"/>
      <point x="196" y="329"/>
      <point x="185" y="339"/>
      <point x="185" y="365" type="curve" smooth="yes"/>
      <point x="185" y="479" type="line" smooth="yes"/>
      <point x="185" y="504"/>
      <point x="196" y="515"/>
      <point x="221" y="515" type="curve" smooth="yes"/>
      <point x="384" y="515" type="line"/>
      <point x="384" y="683" type="line"/>
      <point x="384" y="708"/>
      <point x="394" y="719"/>
      <point x="420" y="719" type="curve" smooth="yes"/>
      <point x="544" y="719" type="line" smooth="yes"/>
      <point x="569" y="719"/>
      <point x="580" y="708"/>
      <point x="580" y="683" type="curve" smooth="yes"/>
      <point x="580" y="515" type="line"/>
      <point x="743" y="515" type="line" smooth="yes"/>
      <point x="768" y="515"/>
      <point x="779" y="505"/>
      <point x="779" y="479" type="curve" smooth="yes"/>
      <point x="779" y="365" type="line" smooth="yes"/>
      <point x="779" y="339"/>
      <point x="768" y="329"/>
      <point x="743" y="329" type="curve" smooth="yes"/>
      <point x="580" y="329" type="line"/>
      <point x="580" y="187" type="line"/>
      <point x="743" y="187" type="line" smooth="yes"/>
      <point x="768" y="187"/>
      <point x="779" y="177"/>
      <point x="779" y="151" type="curve" smooth="yes"/>
      <point x="779" y="37" type="line" smooth="yes"/>
      <point x="779" y="11"/>
      <point x="768" y="1"/>
    </contour>
    <contour>
      <point x="275" y="89" type="line"/>
      <point x="689" y="89" type="line"/>
      <point x="689" y="99" type="line"/>
      <point x="275" y="99" type="line"/>
    </contour>
  </outline>
</glyph>
<glyph name="threesuperior" format="1">
  <advance width="584"/>
  <unicode hex="00B3"/>
  <outline>
    <contour>
      <point x="61" y="83" type="curve" smooth="yes"/>
      <point x="289" y="83" type="line" smooth="yes"/>
      <point x="337" y="83"/>
      <point x="373" y="95"/>
      <point x="398" y="116" type="curve" smooth="yes"/>
      <point x="527" y="224" type="line" smooth="yes"/>
      <point x="554" y="247"/>
      <point x="568" y="280"/>
      <point x="568" y="321" type="curve" smooth="yes"/>
      <point x="568" y="393" type="line" smooth="yes"/>
      <point x="568" y="455"/>
      <point x="548" y="490"/>
      <point x="493" y="503" type="curve"/>
      <point x="512" y="519"/>
      <point x="519" y="544"/>
      <point x="519" y="575" type="curve" smooth="yes"/>
      <point x="519" y="617" type="line" smooth="yes"/>
      <point x="519" y="686"/>
      <point x="479" y="730"/>
      <point x="391" y="730" type="curve" smooth="yes"/>
      <point x="190" y="730" type="line" smooth="yes"/>
      <point x="180" y="730"/>
      <point x="172" y="727"/>
      <point x="166" y="724" type="curve" smooth="yes"/>
      <point x="165" y="723" type="line"/>
      <point x="36" y="614" type="line" smooth="yes"/>
      <point x="29" y="608"/>
      <point x="25" y="599"/>
      <point x="25" y="585" type="curve" smooth="yes"/>
      <point x="25" y="500" type="line" smooth="yes"/>
      <point x="25" y="475"/>
      <point x="36" y="464"/>
      <point x="61" y="464" type="curve" smooth="yes"/>
      <point x="144" y="464" type="line"/>
      <point x="95" y="423" type="line" smooth="yes"/>
      <point x="88" y="417"/>
      <point x="84" y="408"/>
      <point x="84" y="394" type="curve" smooth="yes"/>
      <point x="84" y="317" type="line"/>
      <point x="84" y="301"/>
      <point x="89" y="290"/>
      <point x="99" y="285" type="curve"/>
      <point x="36" y="232" type="line" smooth="yes"/>
      <point x="29" y="226"/>
      <point x="25" y="217"/>
      <point x="25" y="203" type="curve" smooth="yes"/>
      <point x="25" y="119" type="line" smooth="yes"/>
      <point x="25" y="94"/>
      <point x="36" y="83"/>
    </contour>
    <contour>
      <point x="190" y="338" type="curve" smooth="yes"/>
      <point x="371" y="338" type="line" smooth="yes"/>
      <point x="394" y="338"/>
      <point x="398" y="348"/>
      <point x="398" y="359" type="curve" smooth="yes"/>
      <point x="398" y="379" type="line" smooth="yes"/>
      <point x="398" y="390"/>
      <point x="394" y="400"/>
      <point x="371" y="400" type="curve" smooth="yes"/>
      <point x="249" y="400" type="line" smooth="yes"/>
      <point x="231" y="400"/>
      <point x="223" y="408"/>
      <point x="223" y="426" type="curve" smooth="yes"/>
      <point x="223" y="503" type="line" smooth="yes"/>
      <point x="223" y="521"/>
      <point x="231" y="529"/>
      <point x="249" y="529" type="curve" smooth="yes"/>
      <point x="324" y="529" type="line" smooth="yes"/>
      <point x="347" y="529"/>
      <point x="352" y="539"/>
      <point x="352" y="550" type="curve" smooth="yes"/>
      <point x="352" y="561" type="line" smooth="yes"/>
      <point x="352" y="573"/>
      <point x="347" y="583"/>
      <point x="324" y="583" type="curve" smooth="yes"/>
      <point x="190" y="583" type="line" smooth="yes"/>
      <point x="172" y="583"/>
      <point x="164" y="591"/>
      <point x="164" y="609" type="curve" smooth="yes"/>
      <point x="164" y="694" type="line" smooth="yes"/>
      <point x="164" y="712"/>
      <point x="172" y="720"/>
      <point x="190" y="720" type="curve" smooth="yes"/>
      <point x="391" y="720" type="line" smooth="yes"/>
      <point x="471" y="720"/>
      <point x="509" y="681"/>
      <point x="509" y="617" type="curve" smooth="yes"/>
      <point x="509" y="575" type="line" smooth="yes"/>
      <point x="509" y="539"/>
      <point x="499" y="511"/>
      <point x="467" y="498" type="curve"/>
      <point x="535" y="490"/>
      <point x="558" y="457"/>
      <point x="558" y="393" type="curve" smooth="yes"/>
      <point x="558" y="321" type="line" smooth="yes"/>
      <point x="558" y="247"/>
      <point x="510" y="202"/>
      <point x="418" y="202" type="curve" smooth="yes"/>
      <point x="190" y="202" type="line" smooth="yes"/>
      <point x="172" y="202"/>
      <point x="164" y="210"/>
      <point x="164" y="228" type="curve" smooth="yes"/>
      <point x="164" y="312" type="line" smooth="yes"/>
      <point x="164" y="330"/>
      <point x="172" y="338"/>
    </contour>
    <contour>
      <point x="288" y="459" type="line"/>
      <point x="397" y="459" type="line" smooth="yes"/>
      <point x="451" y="459"/>
      <point x="474" y="436"/>
      <point x="474" y="388" type="curve" smooth="yes"/>
      <point x="474" y="339" type="line" smooth="yes"/>
      <point x="474" y="300"/>
      <point x="459" y="275"/>
      <point x="388" y="275" type="curve" smooth="yes"/>
      <point x="229" y="275" type="line"/>
      <point x="229" y="266" type="line"/>
      <point x="388" y="266" type="line" smooth="yes"/>
      <point x="469" y="266"/>
      <point x="483" y="295"/>
      <point x="483" y="339" type="curve" smooth="yes"/>
      <point x="483" y="388" type="line" smooth="yes"/>
      <point x="483" y="439"/>
      <point x="459" y="466"/>
      <point x="398" y="466" type="curve" smooth="yes"/>
      <point x="387" y="466" type="line"/>
      <point x="431" y="475"/>
      <point x="435" y="506"/>
      <point x="435" y="533" type="curve" smooth="yes"/>
      <point x="435" y="579" type="line" smooth="yes"/>
      <point x="435" y="622"/>
      <point x="421" y="656"/>
      <point x="340" y="656" type="curve" smooth="yes"/>
      <point x="229" y="656" type="line"/>
      <point x="229" y="647" type="line"/>
      <point x="340" y="647" type="line"/>
      <point x="410" y="647"/>
      <point x="426" y="618"/>
      <point x="426" y="582" type="curve" smooth="yes"/>
      <point x="426" y="533" type="line" smooth="yes"/>
      <point x="426" y="499"/>
      <point x="419" y="468"/>
      <point x="347" y="468" type="curve" smooth="yes"/>
      <point x="288" y="468" type="line"/>
    </contour>
  </outline>
</glyph>
<glyph name="acute" format="1">
  <advance width="600"/>
  <unicode hex="00B4"/>
  <outline>
    <contour>
      <point x="61" y="634" type="curve" smooth="yes"/>
      <point x="410" y="677" type="line"/>
      <point x="424" y="680"/>
      <point x="434" y="682"/>
      <point x="441" y="688" type="curve" smooth="yes"/>
      <point x="570" y="797" type="line"/>
      <point x="579" y="803"/>
      <point x="584" y="815"/>
      <point x="584" y="832" type="curve" smooth="yes"/>
      <point x="584" y="928" type="line" smooth="yes"/>
      <point x="584" y="959"/>
      <point x="569" y="975"/>
      <point x="539" y="971" type="curve" smooth="yes"/>
      <point x="190" y="928" type="line" smooth="yes"/>
      <point x="176" y="927"/>
      <point x="165" y="923"/>
      <point x="159" y="917" type="curve"/>
      <point x="29" y="808" type="line" smooth="yes"/>
      <point x="21" y="801"/>
      <point x="16" y="791"/>
      <point x="16" y="773" type="curve" smooth="yes"/>
      <point x="16" y="677" type="line" smooth="yes"/>
      <point x="16" y="646"/>
      <point x="31" y="630"/>
    </contour>
    <contour>
      <point x="538" y="796" type="curve" smooth="yes"/>
      <point x="189" y="753" type="line" smooth="yes"/>
      <point x="166" y="750"/>
      <point x="155" y="763"/>
      <point x="155" y="786" type="curve" smooth="yes"/>
      <point x="155" y="882" type="line" smooth="yes"/>
      <point x="155" y="907"/>
      <point x="166" y="915"/>
      <point x="191" y="918" type="curve" smooth="yes"/>
      <point x="540" y="961" type="line"/>
      <point x="563" y="964"/>
      <point x="574" y="951"/>
      <point x="574" y="928" type="curve" smooth="yes"/>
      <point x="574" y="832" type="line" smooth="yes"/>
      <point x="574" y="807"/>
      <point x="563" y="799"/>
    </contour>
    <contour>
      <point x="245" y="847" type="line"/>
      <point x="245" y="837" type="line"/>
      <point x="484" y="867" type="line"/>
      <point x="484" y="877" type="line"/>
    </contour>
    <contour>
      <point x="290" y="747" type="move" name="_top"/>
    </contour>
    <contour>
      <point x="290" y="0" type="move" name="_bottom"/>
    </contour>
  </outline>
</glyph>
<glyph name="guillemotright" format="1">
  <advance width="912"/>
  <unicode hex="00BB"/>
  <outline>
    <contour>
      <point x="445" y="-13" type="curve"/>
      <point x="624" y="38" type="line" smooth="yes"/>
      <point x="661" y="50"/>
      <point x="690" y="62"/>
      <point x="710" y="79" type="curve" smooth="yes"/>
      <point x="840" y="188" type="line" smooth="yes"/>
      <point x="870" y="214"/>
      <point x="887" y="251"/>
      <point x="887" y="312" type="curve" smooth="yes"/>
      <point x="887" y="386" type="line" smooth="yes"/>
      <point x="887" y="491"/>
      <point x="841" y="525"/>
      <point x="753" y="551" type="curve" smooth="yes"/>
      <point x="574" y="603" type="line" smooth="yes"/>
      <point x="557" y="607"/>
      <point x="546" y="604"/>
      <point x="538" y="598" type="curve" smooth="yes"/>
      <point x="450" y="524" type="line"/>
      <point x="431" y="535"/>
      <point x="409" y="543"/>
      <point x="383" y="551" type="curve" smooth="yes"/>
      <point x="214" y="600" type="line" smooth="yes"/>
      <point x="197" y="605"/>
      <point x="187" y="602"/>
      <point x="179" y="596" type="curve" smooth="yes"/>
      <point x="49" y="487" type="line" smooth="yes"/>
      <point x="41" y="480"/>
      <point x="36" y="468"/>
      <point x="36" y="450" type="curve" smooth="yes"/>
      <point x="36" y="336" type="line" smooth="yes"/>
      <point x="36" y="305"/>
      <point x="51" y="288"/>
      <point x="78" y="278" type="curve" smooth="yes"/>
      <point x="79" y="278" type="line"/>
      <point x="137" y="261" type="line"/>
      <point x="55" y="192" type="line" smooth="yes"/>
      <point x="42" y="181"/>
      <point x="36" y="165"/>
      <point x="36" y="145" type="curve" smooth="yes"/>
      <point x="36" y="31" type="line" smooth="yes"/>
      <point x="36" y="-5"/>
      <point x="53" y="-19"/>
      <point x="85" y="-10" type="curve" smooth="yes"/>
      <point x="254" y="38" type="line" smooth="yes"/>
      <point x="291" y="50"/>
      <point x="320" y="62"/>
      <point x="340" y="79" type="curve" smooth="yes"/>
      <point x="396" y="126" type="line"/>
      <point x="396" y="28" type="line" smooth="yes"/>
      <point x="396" y="-8"/>
      <point x="413" y="-22"/>
    </contour>
    <contour>
      <point x="571" y="106" type="line" smooth="yes"/>
      <point x="547" y="99"/>
      <point x="535" y="111"/>
      <point x="535" y="137" type="curve" smooth="yes"/>
      <point x="535" y="254" type="line" smooth="yes"/>
      <point x="535" y="280"/>
      <point x="547" y="296"/>
      <point x="571" y="303" type="curve" smooth="yes"/>
      <point x="666" y="330" type="line"/>
      <point x="680" y="335"/>
      <point x="683" y="337"/>
      <point x="683" y="349" type="curve" smooth="yes"/>
      <point x="683" y="361"/>
      <point x="679" y="363"/>
      <point x="666" y="368" type="curve"/>
      <point x="571" y="396" type="line"/>
      <point x="547" y="403"/>
      <point x="535" y="419"/>
      <point x="535" y="445" type="curve" smooth="yes"/>
      <point x="535" y="562" type="line" smooth="yes"/>
      <point x="535" y="588"/>
      <point x="547" y="600"/>
      <point x="571" y="593" type="curve" smooth="yes"/>
      <point x="750" y="541" type="line" smooth="yes"/>
      <point x="833" y="517"/>
      <point x="877" y="485"/>
      <point x="877" y="386" type="curve" smooth="yes"/>
      <point x="877" y="312" type="line" smooth="yes"/>
      <point x="877" y="213"/>
      <point x="833" y="181"/>
      <point x="750" y="157" type="curve" smooth="yes"/>
    </contour>
    <contour>
      <point x="380" y="157" type="curve"/>
      <point x="211" y="109" type="line" smooth="yes"/>
      <point x="187" y="102"/>
      <point x="175" y="114"/>
      <point x="175" y="140" type="curve" smooth="yes"/>
      <point x="175" y="254" type="line" smooth="yes"/>
      <point x="175" y="280"/>
      <point x="187" y="296"/>
      <point x="211" y="303" type="curve" smooth="yes"/>
      <point x="306" y="330" type="line" smooth="yes"/>
      <point x="320" y="334"/>
      <point x="323" y="337"/>
      <point x="323" y="349" type="curve" smooth="yes"/>
      <point x="323" y="361"/>
      <point x="319" y="364"/>
      <point x="306" y="368" type="curve" smooth="yes"/>
      <point x="211" y="396" type="line"/>
      <point x="188" y="405"/>
      <point x="175" y="419"/>
      <point x="175" y="445" type="curve" smooth="yes"/>
      <point x="175" y="559" type="line" smooth="yes"/>
      <point x="175" y="585"/>
      <point x="187" y="598"/>
      <point x="211" y="590" type="curve"/>
      <point x="380" y="541" type="line"/>
      <point x="464" y="517"/>
      <point x="507" y="485"/>
      <point x="507" y="386" type="curve" smooth="yes"/>
      <point x="507" y="312" type="line" smooth="yes"/>
      <point x="507" y="213"/>
      <point x="463" y="181"/>
    </contour>
    <contour>
      <point x="255" y="477" type="line"/>
      <point x="352" y="447" type="line" smooth="yes"/>
      <point x="383" y="438"/>
      <point x="406" y="427"/>
      <point x="406" y="386" type="curve" smooth="yes"/>
      <point x="406" y="312" type="line" smooth="yes"/>
      <point x="406" y="271"/>
      <point x="383" y="259"/>
      <point x="353" y="251" type="curve" smooth="yes"/>
      <point x="255" y="222" type="line"/>
      <point x="255" y="212" type="line"/>
      <point x="355" y="241" type="line" smooth="yes"/>
      <point x="391" y="251"/>
      <point x="416" y="265"/>
      <point x="416" y="312" type="curve" smooth="yes"/>
      <point x="416" y="386" type="line" smooth="yes"/>
      <point x="416" y="433"/>
      <point x="391" y="446"/>
      <point x="354" y="457" type="curve" smooth="yes"/>
      <point x="255" y="487" type="line"/>
    </contour>
    <contour>
      <point x="625" y="212" type="line"/>
      <point x="725" y="241" type="line" smooth="yes"/>
      <point x="761" y="251"/>
      <point x="786" y="265"/>
      <point x="786" y="312" type="curve" smooth="yes"/>
      <point x="786" y="386" type="line" smooth="yes"/>
      <point x="786" y="433"/>
      <point x="761" y="446"/>
      <point x="724" y="457" type="curve" smooth="yes"/>
      <point x="625" y="487" type="line"/>
      <point x="625" y="477" type="line"/>
      <point x="722" y="447" type="line" smooth="yes"/>
      <point x="753" y="437"/>
      <point x="776" y="427"/>
      <point x="776" y="386" type="curve" smooth="yes"/>
      <point x="776" y="312" type="line" smooth="yes"/>
      <point x="776" y="271"/>
      <point x="753" y="260"/>
      <point x="723" y="251" type="curve" smooth="yes"/>
      <point x="625" y="222" type="line"/>
    </contour>
  </outline>
</glyph>
<glyph name="onequarter" format="1">
  <advance width="1303"/>
  <unicode hex="00BC"/>
  <outline>
    <contour>
      <point x="378" y="83" type="line" smooth="yes"/>
      <point x="389" y="83"/>
      <point x="397" y="86"/>
      <point x="403" y="92" type="curve"/>
      <point x="532" y="199" type="line" smooth="yes"/>
      <point x="539" y="205"/>
      <point x="543" y="214"/>
      <point x="543" y="228" type="curve" smooth="yes"/>
      <point x="543" y="315" type="line" smooth="yes"/>
      <point x="543" y="340"/>
      <point x="532" y="351"/>
      <point x="507" y="351" type="curve" smooth="yes"/>
      <point x="448" y="351" type="line"/>
      <point x="448" y="694" type="line" smooth="yes"/>
      <point x="448" y="719"/>
      <point x="437" y="730"/>
      <point x="412" y="730" type="curve" smooth="yes"/>
      <point x="203" y="730" type="line" smooth="yes"/>
      <point x="193" y="730"/>
      <point x="184" y="729"/>
      <point x="178" y="723" type="curve"/>
      <point x="49" y="614" type="line" smooth="yes"/>
      <point x="42" y="608"/>
      <point x="38" y="599"/>
      <point x="38" y="585" type="curve" smooth="yes"/>
      <point x="38" y="498" type="line" smooth="yes"/>
      <point x="38" y="473"/>
      <point x="49" y="462"/>
      <point x="74" y="462" type="curve" smooth="yes"/>
      <point x="131" y="462" type="line"/>
      <point x="131" y="316" type="line"/>
      <point x="35" y="235" type="line" smooth="yes"/>
      <point x="28" y="229"/>
      <point x="24" y="220"/>
      <point x="24" y="206" type="curve" smooth="yes"/>
      <point x="24" y="119" type="line" smooth="yes"/>
      <point x="24" y="94"/>
      <point x="35" y="83"/>
      <point x="60" y="83" type="curve" smooth="yes"/>
    </contour>
    <contour>
      <point x="507" y="202" type="curve" smooth="yes"/>
      <point x="189" y="202" type="line" smooth="yes"/>
      <point x="171" y="202"/>
      <point x="163" y="210"/>
      <point x="163" y="228" type="curve"/>
      <point x="163" y="315" type="line"/>
      <point x="163" y="333"/>
      <point x="171" y="341"/>
      <point x="189" y="341" type="curve" smooth="yes"/>
      <point x="270" y="341" type="line"/>
      <point x="270" y="581" type="line"/>
      <point x="203" y="581" type="line" smooth="yes"/>
      <point x="185" y="581"/>
      <point x="177" y="589"/>
      <point x="177" y="607" type="curve" smooth="yes"/>
      <point x="177" y="694" type="line" smooth="yes"/>
      <point x="177" y="712"/>
      <point x="185" y="720"/>
      <point x="203" y="720" type="curve" smooth="yes"/>
      <point x="412" y="720" type="line" smooth="yes"/>
      <point x="430" y="720"/>
      <point x="438" y="712"/>
      <point x="438" y="694" type="curve" smooth="yes"/>
      <point x="438" y="341" type="line"/>
      <point x="507" y="341" type="line"/>
      <point x="525" y="341"/>
      <point x="533" y="333"/>
      <point x="533" y="315" type="curve" smooth="yes"/>
      <point x="533" y="228" type="line"/>
      <point x="533" y="210"/>
      <point x="525" y="202"/>
    </contour>
    <contour>
      <point x="468" y="262" type="line"/>
      <point x="468" y="271" type="line"/>
      <point x="358" y="271" type="line"/>
      <point x="358" y="656" type="line"/>
      <point x="242" y="656" type="line"/>
      <point x="242" y="647" type="line"/>
      <point x="349" y="647" type="line"/>
      <point x="349" y="270" type="line"/>
      <point x="228" y="270" type="line"/>
      <point x="228" y="262" type="line"/>
    </contour>
    <contour>
      <point x="1106" y="120" type="line"/>
      <point x="984" y="120" type="line" smooth="yes"/>
      <point x="890" y="120"/>
      <point x="853" y="157"/>
      <point x="853" y="239" type="curve" smooth="yes"/>
      <point x="853" y="492" type="line" smooth="yes"/>
      <point x="853" y="510"/>
      <point x="861" y="518"/>
      <point x="879" y="518" type="curve" smooth="yes"/>
      <point x="991" y="518" type="line" smooth="yes"/>
      <point x="1009" y="518"/>
      <point x="1016" y="510"/>
      <point x="1016" y="492" type="curve" smooth="yes"/>
      <point x="1016" y="295" type="line" smooth="yes"/>
      <point x="1016" y="280"/>
      <point x="1025" y="270"/>
      <point x="1039" y="270" type="curve" smooth="yes"/>
      <point x="1106" y="270" type="line"/>
      <point x="1106" y="492" type="line" smooth="yes"/>
      <point x="1106" y="510"/>
      <point x="1114" y="518"/>
      <point x="1132" y="518" type="curve" smooth="yes"/>
      <point x="1243" y="518" type="line" smooth="yes"/>
      <point x="1261" y="518"/>
      <point x="1268" y="510"/>
      <point x="1268" y="492" type="curve" smooth="yes"/>
      <point x="1268" y="26" type="line" smooth="yes"/>
      <point x="1268" y="8"/>
      <point x="1261" y="0"/>
      <point x="1243" y="0" type="curve" smooth="yes"/>
      <point x="1132" y="0" type="line" smooth="yes"/>
      <point x="1114" y="0"/>
      <point x="1106" y="8"/>
      <point x="1106" y="26" type="curve" smooth="yes"/>
    </contour>
    <contour>
      <point x="1182" y="64" type="line"/>
      <point x="1192" y="64" type="line"/>
      <point x="1192" y="453" type="line"/>
      <point x="1182" y="453" type="line"/>
      <point x="1182" y="200" type="line"/>
      <point x="1011" y="200" type="line" smooth="yes"/>
      <point x="963" y="200"/>
      <point x="940" y="222"/>
      <point x="940" y="267" type="curve" smooth="yes"/>
      <point x="940" y="453" type="line"/>
      <point x="930" y="453" type="line"/>
      <point x="930" y="267" type="line" smooth="yes"/>
      <point x="930" y="216"/>
      <point x="955" y="191"/>
      <point x="1011" y="191" type="curve" smooth="yes"/>
      <point x="1182" y="191" type="line"/>
    </contour>
    <contour>
      <point x="540" y="36" type="curve" smooth="yes"/>
      <point x="660" y="684" type="line" smooth="yes"/>
      <point x="665" y="709"/>
      <point x="671" y="720"/>
      <point x="696" y="720" type="curve" smooth="yes"/>
      <point x="811" y="720" type="line" smooth="yes"/>
      <point x="836" y="720"/>
      <point x="852" y="709"/>
      <point x="847" y="684" type="curve" smooth="yes"/>
      <point x="727" y="36" type="line" smooth="yes"/>
      <point x="722" y="11"/>
      <point x="716" y="0"/>
      <point x="691" y="0" type="curve" smooth="yes"/>
      <point x="576" y="0" type="line" smooth="yes"/>
      <point x="551" y="0"/>
      <point x="535" y="11"/>
    </contour>
    <contour>
      <point x="649" y="90" type="line"/>
      <point x="749" y="630" type="line"/>
      <point x="739" y="630" type="line"/>
      <point x="639" y="90" type="line"/>
    </contour>
    <contour>
      <point x="562" y="-119" type="line" smooth="yes"/>
      <point x="575" y="-119"/>
      <point x="585" y="-116"/>
      <point x="592" y="-109" type="curve"/>
      <point x="721" y="-2" type="line" smooth="yes"/>
      <point x="729" y="6"/>
      <point x="733" y="17"/>
      <point x="737" y="34" type="curve" smooth="yes"/>
      <point x="857" y="682" type="line" smooth="yes"/>
      <point x="863" y="714"/>
      <point x="845" y="730"/>
      <point x="811" y="730" type="curve" smooth="yes"/>
      <point x="696" y="730" type="line" smooth="yes"/>
      <point x="682" y="730"/>
      <point x="673" y="727"/>
      <point x="667" y="722" type="curve" smooth="yes"/>
      <point x="537" y="613" type="line"/>
      <point x="536" y="612" type="line" smooth="yes"/>
      <point x="529" y="605"/>
      <point x="524" y="594"/>
      <point x="521" y="576" type="curve"/>
      <point x="479" y="347" type="line"/>
      <point x="528" y="343" type="line"/>
      <point x="538" y="323" type="line"/>
      <point x="538" y="212" type="line"/>
      <point x="523" y="196" type="line"/>
      <point x="449" y="186" type="line"/>
      <point x="401" y="-71" type="line" smooth="yes"/>
      <point x="395" y="-103"/>
      <point x="413" y="-119"/>
      <point x="447" y="-119" type="curve" smooth="yes"/>
    </contour>
    <contour>
      <point x="1003" y="-119" type="curve" smooth="yes"/>
      <point x="1114" y="-119" type="line" smooth="yes"/>
      <point x="1125" y="-119"/>
      <point x="1132" y="-116"/>
      <point x="1137" y="-112" type="curve"/>
      <point x="1267" y="-3" type="line" smooth="yes"/>
      <point x="1274" y="3"/>
      <point x="1278" y="12"/>
      <point x="1278" y="26" type="curve" smooth="yes"/>
      <point x="1278" y="492" type="line" smooth="yes"/>
      <point x="1278" y="517"/>
      <point x="1268" y="528"/>
      <point x="1243" y="528" type="curve" smooth="yes"/>
      <point x="1132" y="528" type="line" smooth="yes"/>
      <point x="1122" y="528"/>
      <point x="1114" y="525"/>
      <point x="1108" y="522" type="curve" smooth="yes"/>
      <point x="1107" y="521" type="line"/>
      <point x="1026" y="453" type="line"/>
      <point x="1026" y="492" type="line" smooth="yes"/>
      <point x="1026" y="517"/>
      <point x="1016" y="528"/>
      <point x="991" y="528" type="curve" smooth="yes"/>
      <point x="879" y="528" type="line" smooth="yes"/>
      <point x="869" y="528"/>
      <point x="861" y="525"/>
      <point x="855" y="522" type="curve" smooth="yes"/>
      <point x="854" y="521" type="line"/>
      <point x="818" y="491" type="line"/>
      <point x="735" y="45" type="line"/>
      <point x="757" y="15"/>
      <point x="795" y="1"/>
      <point x="855" y="1" type="curve" smooth="yes"/>
      <point x="967" y="1" type="line"/>
      <point x="967" y="-83" type="line" smooth="yes"/>
      <point x="967" y="-108"/>
      <point x="978" y="-119"/>
    </contour>
  </outline>
</glyph>
<glyph name="onehalf" format="1">
  <advance width="1260"/>
  <unicode hex="00BD"/>
  <outline>
    <contour>
      <point x="378" y="83" type="line" smooth="yes"/>
      <point x="389" y="83"/>
      <point x="397" y="86"/>
      <point x="403" y="92" type="curve"/>
      <point x="532" y="199" type="line" smooth="yes"/>
      <point x="539" y="205"/>
      <point x="543" y="214"/>
      <point x="543" y="228" type="curve" smooth="yes"/>
      <point x="543" y="315" type="line" smooth="yes"/>
      <point x="543" y="340"/>
      <point x="532" y="351"/>
      <point x="507" y="351" type="curve" smooth="yes"/>
      <point x="448" y="351" type="line"/>
      <point x="448" y="694" type="line" smooth="yes"/>
      <point x="448" y="719"/>
      <point x="437" y="730"/>
      <point x="412" y="730" type="curve" smooth="yes"/>
      <point x="203" y="730" type="line" smooth="yes"/>
      <point x="193" y="730"/>
      <point x="184" y="729"/>
      <point x="178" y="723" type="curve"/>
      <point x="49" y="614" type="line" smooth="yes"/>
      <point x="42" y="608"/>
      <point x="38" y="599"/>
      <point x="38" y="585" type="curve" smooth="yes"/>
      <point x="38" y="498" type="line" smooth="yes"/>
      <point x="38" y="473"/>
      <point x="49" y="462"/>
      <point x="74" y="462" type="curve" smooth="yes"/>
      <point x="131" y="462" type="line"/>
      <point x="131" y="316" type="line"/>
      <point x="35" y="235" type="line" smooth="yes"/>
      <point x="28" y="229"/>
      <point x="24" y="220"/>
      <point x="24" y="206" type="curve" smooth="yes"/>
      <point x="24" y="119" type="line" smooth="yes"/>
      <point x="24" y="94"/>
      <point x="35" y="83"/>
      <point x="60" y="83" type="curve" smooth="yes"/>
    </contour>
    <contour>
      <point x="507" y="202" type="curve" smooth="yes"/>
      <point x="189" y="202" type="line" smooth="yes"/>
      <point x="171" y="202"/>
      <point x="163" y="210"/>
      <point x="163" y="228" type="curve"/>
      <point x="163" y="315" type="line"/>
      <point x="163" y="333"/>
      <point x="171" y="341"/>
      <point x="189" y="341" type="curve" smooth="yes"/>
      <point x="270" y="341" type="line"/>
      <point x="270" y="581" type="line"/>
      <point x="203" y="581" type="line" smooth="yes"/>
      <point x="185" y="581"/>
      <point x="177" y="589"/>
      <point x="177" y="607" type="curve" smooth="yes"/>
      <point x="177" y="694" type="line" smooth="yes"/>
      <point x="177" y="712"/>
      <point x="185" y="720"/>
      <point x="203" y="720" type="curve" smooth="yes"/>
      <point x="412" y="720" type="line" smooth="yes"/>
      <point x="430" y="720"/>
      <point x="438" y="712"/>
      <point x="438" y="694" type="curve" smooth="yes"/>
      <point x="438" y="341" type="line"/>
      <point x="507" y="341" type="line"/>
      <point x="525" y="341"/>
      <point x="533" y="333"/>
      <point x="533" y="315" type="curve" smooth="yes"/>
      <point x="533" y="228" type="line"/>
      <point x="533" y="210"/>
      <point x="525" y="202"/>
    </contour>
    <contour>
      <point x="468" y="262" type="line"/>
      <point x="468" y="271" type="line"/>
      <point x="358" y="271" type="line"/>
      <point x="358" y="656" type="line"/>
      <point x="242" y="656" type="line"/>
      <point x="242" y="647" type="line"/>
      <point x="349" y="647" type="line"/>
      <point x="349" y="270" type="line"/>
      <point x="228" y="270" type="line"/>
      <point x="228" y="262" type="line"/>
    </contour>
    <contour>
      <point x="1198" y="0" type="curve" smooth="yes"/>
      <point x="856" y="0" type="line" smooth="yes"/>
      <point x="838" y="0"/>
      <point x="830" y="8"/>
      <point x="830" y="26" type="curve" smooth="yes"/>
      <point x="830" y="150" type="line" smooth="yes"/>
      <point x="830" y="261"/>
      <point x="877" y="287"/>
      <point x="943" y="307" type="curve" smooth="yes"/>
      <point x="1039" y="337" type="line" smooth="yes"/>
      <point x="1054" y="342"/>
      <point x="1059" y="348"/>
      <point x="1059" y="363" type="curve" smooth="yes"/>
      <point x="1059" y="378"/>
      <point x="1054" y="382"/>
      <point x="1039" y="382" type="curve" smooth="yes"/>
      <point x="883" y="382" type="line" smooth="yes"/>
      <point x="865" y="382"/>
      <point x="857" y="390"/>
      <point x="857" y="408" type="curve" smooth="yes"/>
      <point x="857" y="492" type="line" smooth="yes"/>
      <point x="857" y="510"/>
      <point x="865" y="518"/>
      <point x="883" y="518" type="curve" smooth="yes"/>
      <point x="1095" y="518" type="line" smooth="yes"/>
      <point x="1177" y="518"/>
      <point x="1222" y="476"/>
      <point x="1222" y="399" type="curve" smooth="yes"/>
      <point x="1222" y="331" type="line" smooth="yes"/>
      <point x="1222" y="258"/>
      <point x="1180" y="225"/>
      <point x="1110" y="204" type="curve" smooth="yes"/>
      <point x="1012" y="173" type="line" smooth="yes"/>
      <point x="997" y="168"/>
      <point x="993" y="167"/>
      <point x="993" y="151" type="curve" smooth="yes"/>
      <point x="993" y="136" type="line"/>
      <point x="1198" y="136" type="line"/>
      <point x="1216" y="136"/>
      <point x="1224" y="128"/>
      <point x="1224" y="110" type="curve" smooth="yes"/>
      <point x="1224" y="26" type="line" smooth="yes"/>
      <point x="1224" y="8"/>
      <point x="1216" y="0"/>
    </contour>
    <contour>
      <point x="948" y="237" type="line" smooth="yes"/>
      <point x="917" y="227"/>
      <point x="907" y="213"/>
      <point x="907" y="177" type="curve" smooth="yes"/>
      <point x="907" y="64" type="line"/>
      <point x="1159" y="64" type="line"/>
      <point x="1159" y="73" type="line"/>
      <point x="916" y="73" type="line"/>
      <point x="916" y="177" type="line" smooth="yes"/>
      <point x="916" y="208"/>
      <point x="924" y="219"/>
      <point x="951" y="228" type="curve" smooth="yes"/>
      <point x="1118" y="284" type="line"/>
      <point x="1135" y="290"/>
      <point x="1145" y="302"/>
      <point x="1145" y="325" type="curve" smooth="yes"/>
      <point x="1145" y="391" type="line" smooth="yes"/>
      <point x="1145" y="440"/>
      <point x="1117" y="454"/>
      <point x="1067" y="454" type="curve" smooth="yes"/>
      <point x="922" y="454" type="line"/>
      <point x="922" y="445" type="line"/>
      <point x="1067" y="445" type="line" smooth="yes"/>
      <point x="1109" y="445"/>
      <point x="1135" y="434"/>
      <point x="1135" y="391" type="curve" smooth="yes"/>
      <point x="1135" y="325" type="line" smooth="yes"/>
      <point x="1135" y="308"/>
      <point x="1127" y="297"/>
      <point x="1116" y="292" type="curve"/>
    </contour>
    <contour>
      <point x="562" y="-119" type="line" smooth="yes"/>
      <point x="575" y="-119"/>
      <point x="585" y="-116"/>
      <point x="592" y="-109" type="curve"/>
      <point x="721" y="-2" type="line" smooth="yes"/>
      <point x="729" y="6"/>
      <point x="733" y="17"/>
      <point x="737" y="34" type="curve" smooth="yes"/>
      <point x="857" y="682" type="line" smooth="yes"/>
      <point x="863" y="714"/>
      <point x="845" y="730"/>
      <point x="811" y="730" type="curve" smooth="yes"/>
      <point x="696" y="730" type="line" smooth="yes"/>
      <point x="682" y="730"/>
      <point x="673" y="727"/>
      <point x="667" y="722" type="curve" smooth="yes"/>
      <point x="537" y="613" type="line"/>
      <point x="536" y="612" type="line" smooth="yes"/>
      <point x="529" y="605"/>
      <point x="524" y="594"/>
      <point x="521" y="576" type="curve"/>
      <point x="479" y="347" type="line"/>
      <point x="528" y="343" type="line"/>
      <point x="538" y="323" type="line"/>
      <point x="538" y="212" type="line"/>
      <point x="523" y="196" type="line"/>
      <point x="449" y="186" type="line"/>
      <point x="401" y="-71" type="line" smooth="yes"/>
      <point x="395" y="-103"/>
      <point x="413" y="-119"/>
      <point x="447" y="-119" type="curve" smooth="yes"/>
    </contour>
    <contour>
      <point x="540" y="36" type="curve" smooth="yes"/>
      <point x="660" y="684" type="line" smooth="yes"/>
      <point x="665" y="709"/>
      <point x="671" y="720"/>
      <point x="696" y="720" type="curve" smooth="yes"/>
      <point x="811" y="720" type="line" smooth="yes"/>
      <point x="836" y="720"/>
      <point x="852" y="709"/>
      <point x="847" y="684" type="curve" smooth="yes"/>
      <point x="727" y="36" type="line" smooth="yes"/>
      <point x="722" y="11"/>
      <point x="716" y="0"/>
      <point x="691" y="0" type="curve" smooth="yes"/>
      <point x="576" y="0" type="line" smooth="yes"/>
      <point x="551" y="0"/>
      <point x="535" y="11"/>
    </contour>
    <contour>
      <point x="649" y="90" type="line"/>
      <point x="749" y="630" type="line"/>
      <point x="739" y="630" type="line"/>
      <point x="639" y="90" type="line"/>
    </contour>
    <contour>
      <point x="1069.0" y="-119.0" type="line" smooth="yes"/>
      <point x="1080.0" y="-119.0"/>
      <point x="1088.0" y="-116.0"/>
      <point x="1094.0" y="-110.0" type="curve"/>
      <point x="1223.0" y="-3.0" type="line" smooth="yes"/>
      <point x="1230.0" y="3.0"/>
      <point x="1234.0" y="12.0"/>
      <point x="1234.0" y="26.0" type="curve" smooth="yes"/>
      <point x="1234.0" y="110.0" type="line" smooth="yes"/>
      <point x="1234.0" y="135.0"/>
      <point x="1223.0" y="146.0"/>
      <point x="1198.0" y="146.0" type="curve" smooth="yes"/>
      <point x="1087.0" y="146.0" type="line"/>
      <point x="1189.0" y="232.0" type="line" smooth="yes"/>
      <point x="1217.0" y="255.0"/>
      <point x="1232.0" y="285.0"/>
      <point x="1232.0" y="331.0" type="curve" smooth="yes"/>
      <point x="1232.0" y="399.0" type="line" smooth="yes"/>
      <point x="1232.0" y="482.0"/>
      <point x="1184.0" y="528.0"/>
      <point x="1095.0" y="528.0" type="curve" smooth="yes"/>
      <point x="883.0" y="528.0" type="line" smooth="yes"/>
      <point x="873.0" y="528.0"/>
      <point x="865.0" y="525.0"/>
      <point x="859.0" y="522.0" type="curve"/>
      <point x="858.0" y="521.0" type="line"/>
      <point x="818.0" y="487.0" type="line"/>
      <point x="774.0" y="263.0" type="line"/>
      <point x="845.0" y="263.0" type="line"/>
      <point x="762.0" y="193.0" type="line"/>
      <point x="727" y="16" type="line"/>
      <point x="691.0" y="-13.0" type="line"/>
      <point x="691.0" y="-83.0" type="line" smooth="yes"/>
      <point x="691.0" y="-108.0"/>
      <point x="702.0" y="-119.0"/>
      <point x="727.0" y="-119.0" type="curve" smooth="yes"/>
    </contour>
  </outline>
</glyph>
<glyph name="threequarters" format="1">
  <advance width="1313"/>
  <unicode hex="00BE"/>
  <outline>
    <contour>
      <point x="190" y="338" type="curve" smooth="yes"/>
      <point x="371" y="338" type="line" smooth="yes"/>
      <point x="394" y="338"/>
      <point x="398" y="348"/>
      <point x="398" y="359" type="curve" smooth="yes"/>
      <point x="398" y="379" type="line" smooth="yes"/>
      <point x="398" y="390"/>
      <point x="394" y="400"/>
      <point x="371" y="400" type="curve" smooth="yes"/>
      <point x="249" y="400" type="line" smooth="yes"/>
      <point x="231" y="400"/>
      <point x="223" y="408"/>
      <point x="223" y="426" type="curve" smooth="yes"/>
      <point x="223" y="503" type="line" smooth="yes"/>
      <point x="223" y="521"/>
      <point x="231" y="529"/>
      <point x="249" y="529" type="curve" smooth="yes"/>
      <point x="324" y="529" type="line" smooth="yes"/>
      <point x="347" y="529"/>
      <point x="352" y="539"/>
      <point x="352" y="550" type="curve" smooth="yes"/>
      <point x="352" y="561" type="line" smooth="yes"/>
      <point x="352" y="573"/>
      <point x="347" y="583"/>
      <point x="324" y="583" type="curve" smooth="yes"/>
      <point x="190" y="583" type="line" smooth="yes"/>
      <point x="172" y="583"/>
      <point x="164" y="591"/>
      <point x="164" y="609" type="curve" smooth="yes"/>
      <point x="164" y="694" type="line" smooth="yes"/>
      <point x="164" y="712"/>
      <point x="172" y="720"/>
      <point x="190" y="720" type="curve" smooth="yes"/>
      <point x="391" y="720" type="line" smooth="yes"/>
      <point x="471" y="720"/>
      <point x="509" y="681"/>
      <point x="509" y="617" type="curve" smooth="yes"/>
      <point x="509" y="575" type="line" smooth="yes"/>
      <point x="509" y="539"/>
      <point x="499" y="511"/>
      <point x="467" y="498" type="curve"/>
      <point x="535" y="490"/>
      <point x="558" y="457"/>
      <point x="558" y="393" type="curve" smooth="yes"/>
      <point x="558" y="321" type="line" smooth="yes"/>
      <point x="558" y="247"/>
      <point x="510" y="202"/>
      <point x="418" y="202" type="curve" smooth="yes"/>
      <point x="190" y="202" type="line" smooth="yes"/>
      <point x="172" y="202"/>
      <point x="164" y="210"/>
      <point x="164" y="228" type="curve" smooth="yes"/>
      <point x="164" y="312" type="line" smooth="yes"/>
      <point x="164" y="330"/>
      <point x="172" y="338"/>
    </contour>
    <contour>
      <point x="550" y="36" type="curve" smooth="yes"/>
      <point x="670" y="684" type="line" smooth="yes"/>
      <point x="675" y="709"/>
      <point x="681" y="720"/>
      <point x="706" y="720" type="curve" smooth="yes"/>
      <point x="821" y="720" type="line" smooth="yes"/>
      <point x="846" y="720"/>
      <point x="862" y="709"/>
      <point x="857" y="684" type="curve" smooth="yes"/>
      <point x="737" y="36" type="line" smooth="yes"/>
      <point x="732" y="11"/>
      <point x="726" y="0"/>
      <point x="701" y="0" type="curve" smooth="yes"/>
      <point x="586" y="0" type="line" smooth="yes"/>
      <point x="561" y="0"/>
      <point x="545" y="11"/>
    </contour>
    <contour>
      <point x="288" y="459" type="line"/>
      <point x="397" y="459" type="line" smooth="yes"/>
      <point x="451" y="459"/>
      <point x="474" y="436"/>
      <point x="474" y="388" type="curve" smooth="yes"/>
      <point x="474" y="339" type="line" smooth="yes"/>
      <point x="474" y="300"/>
      <point x="459" y="275"/>
      <point x="388" y="275" type="curve" smooth="yes"/>
      <point x="229" y="275" type="line"/>
      <point x="229" y="266" type="line"/>
      <point x="388" y="266" type="line" smooth="yes"/>
      <point x="469" y="266"/>
      <point x="483" y="295"/>
      <point x="483" y="339" type="curve" smooth="yes"/>
      <point x="483" y="388" type="line" smooth="yes"/>
      <point x="483" y="439"/>
      <point x="459" y="466"/>
      <point x="398" y="466" type="curve" smooth="yes"/>
      <point x="387" y="466" type="line"/>
      <point x="431" y="475"/>
      <point x="435" y="506"/>
      <point x="435" y="533" type="curve" smooth="yes"/>
      <point x="435" y="579" type="line" smooth="yes"/>
      <point x="435" y="622"/>
      <point x="421" y="656"/>
      <point x="340" y="656" type="curve" smooth="yes"/>
      <point x="229" y="656" type="line"/>
      <point x="229" y="647" type="line"/>
      <point x="340" y="647" type="line"/>
      <point x="410" y="647"/>
      <point x="426" y="618"/>
      <point x="426" y="582" type="curve" smooth="yes"/>
      <point x="426" y="533" type="line" smooth="yes"/>
      <point x="426" y="499"/>
      <point x="419" y="468"/>
      <point x="347" y="468" type="curve" smooth="yes"/>
      <point x="288" y="468" type="line"/>
    </contour>
    <contour>
      <point x="659" y="90" type="line"/>
      <point x="759" y="630" type="line"/>
      <point x="749" y="630" type="line"/>
      <point x="649" y="90" type="line"/>
    </contour>
    <contour>
      <point x="1116" y="120" type="line"/>
      <point x="994" y="120" type="line" smooth="yes"/>
      <point x="900" y="120"/>
      <point x="863" y="157"/>
      <point x="863" y="239" type="curve" smooth="yes"/>
      <point x="863" y="492" type="line" smooth="yes"/>
      <point x="863" y="510"/>
      <point x="871" y="518"/>
      <point x="889" y="518" type="curve" smooth="yes"/>
      <point x="1001" y="518" type="line" smooth="yes"/>
      <point x="1019" y="518"/>
      <point x="1026" y="510"/>
      <point x="1026" y="492" type="curve" smooth="yes"/>
      <point x="1026" y="295" type="line" smooth="yes"/>
      <point x="1026" y="280"/>
      <point x="1035" y="270"/>
      <point x="1049" y="270" type="curve" smooth="yes"/>
      <point x="1116" y="270" type="line"/>
      <point x="1116" y="492" type="line" smooth="yes"/>
      <point x="1116" y="510"/>
      <point x="1124" y="518"/>
      <point x="1142" y="518" type="curve" smooth="yes"/>
      <point x="1253" y="518" type="line" smooth="yes"/>
      <point x="1271" y="518"/>
      <point x="1278" y="510"/>
      <point x="1278" y="492" type="curve" smooth="yes"/>
      <point x="1278" y="26" type="line" smooth="yes"/>
      <point x="1278" y="8"/>
      <point x="1271" y="0"/>
      <point x="1253" y="0" type="curve" smooth="yes"/>
      <point x="1142" y="0" type="line" smooth="yes"/>
      <point x="1124" y="0"/>
      <point x="1116" y="8"/>
      <point x="1116" y="26" type="curve" smooth="yes"/>
    </contour>
    <contour>
      <point x="1192" y="64" type="line"/>
      <point x="1202" y="64" type="line"/>
      <point x="1202" y="453" type="line"/>
      <point x="1192" y="453" type="line"/>
      <point x="1192" y="200" type="line"/>
      <point x="1021" y="200" type="line" smooth="yes"/>
      <point x="973" y="200"/>
      <point x="950" y="222"/>
      <point x="950" y="267" type="curve" smooth="yes"/>
      <point x="950" y="453" type="line"/>
      <point x="940" y="453" type="line"/>
      <point x="940" y="267" type="line" smooth="yes"/>
      <point x="940" y="216"/>
      <point x="965" y="191"/>
      <point x="1021" y="191" type="curve" smooth="yes"/>
      <point x="1192" y="191" type="line"/>
    </contour>
    <contour>
      <point x="602" y="-109" type="curve"/>
      <point x="731" y="-2" type="line" smooth="yes"/>
      <point x="739" y="6"/>
      <point x="743" y="17"/>
      <point x="747" y="34" type="curve" smooth="yes"/>
      <point x="748" y="41" type="line"/>
      <point x="771" y="14"/>
      <point x="808" y="1"/>
      <point x="865" y="1" type="curve" smooth="yes"/>
      <point x="977" y="1" type="line"/>
      <point x="977" y="-83" type="line" smooth="yes"/>
      <point x="977" y="-108"/>
      <point x="988" y="-119"/>
      <point x="1013" y="-119" type="curve" smooth="yes"/>
      <point x="1124" y="-119" type="line" smooth="yes"/>
      <point x="1135" y="-119"/>
      <point x="1142" y="-116"/>
      <point x="1147" y="-112" type="curve"/>
      <point x="1277" y="-3" type="line" smooth="yes"/>
      <point x="1284" y="3"/>
      <point x="1288" y="12"/>
      <point x="1288" y="26" type="curve" smooth="yes"/>
      <point x="1288" y="492" type="line" smooth="yes"/>
      <point x="1288" y="517"/>
      <point x="1278" y="528"/>
      <point x="1253" y="528" type="curve" smooth="yes"/>
      <point x="1142" y="528" type="line" smooth="yes"/>
      <point x="1132" y="528"/>
      <point x="1124" y="525"/>
      <point x="1118" y="522" type="curve" smooth="yes"/>
      <point x="1117" y="521" type="line"/>
      <point x="1036" y="453" type="line"/>
      <point x="1036" y="492" type="line" smooth="yes"/>
      <point x="1036" y="517"/>
      <point x="1026" y="528"/>
      <point x="1001" y="528" type="curve" smooth="yes"/>
      <point x="889" y="528" type="line" smooth="yes"/>
      <point x="879" y="528"/>
      <point x="871" y="525"/>
      <point x="865" y="522" type="curve" smooth="yes"/>
      <point x="864" y="521" type="line"/>
      <point x="832" y="495" type="line"/>
      <point x="867" y="682" type="line" smooth="yes"/>
      <point x="873" y="714"/>
      <point x="855" y="730"/>
      <point x="821" y="730" type="curve" smooth="yes"/>
      <point x="706" y="730" type="line" smooth="yes"/>
      <point x="692" y="730"/>
      <point x="683" y="727"/>
      <point x="677" y="722" type="curve" smooth="yes"/>
      <point x="547" y="613" type="line"/>
      <point x="546" y="612" type="line" smooth="yes"/>
      <point x="539" y="605"/>
      <point x="534" y="594"/>
      <point x="531" y="576" type="curve"/>
      <point x="516" y="495" type="line"/>
      <point x="509" y="498"/>
      <point x="501" y="501"/>
      <point x="493" y="503" type="curve"/>
      <point x="512" y="519"/>
      <point x="519" y="544"/>
      <point x="519" y="575" type="curve" smooth="yes"/>
      <point x="519" y="617" type="line" smooth="yes"/>
      <point x="519" y="686"/>
      <point x="479" y="730"/>
      <point x="391" y="730" type="curve" smooth="yes"/>
      <point x="190" y="730" type="line" smooth="yes"/>
      <point x="180" y="730"/>
      <point x="172" y="727"/>
      <point x="166" y="724" type="curve" smooth="yes"/>
      <point x="165" y="723" type="line"/>
      <point x="36" y="614" type="line" smooth="yes"/>
      <point x="29" y="608"/>
      <point x="25" y="599"/>
      <point x="25" y="585" type="curve" smooth="yes"/>
      <point x="25" y="500" type="line" smooth="yes"/>
      <point x="25" y="475"/>
      <point x="36" y="464"/>
      <point x="61" y="464" type="curve" smooth="yes"/>
      <point x="144" y="464" type="line"/>
      <point x="95" y="423" type="line" smooth="yes"/>
      <point x="88" y="417"/>
      <point x="84" y="408"/>
      <point x="84" y="394" type="curve" smooth="yes"/>
      <point x="84" y="317" type="line"/>
      <point x="84" y="301"/>
      <point x="89" y="290"/>
      <point x="99" y="285" type="curve"/>
      <point x="36" y="232" type="line" smooth="yes"/>
      <point x="29" y="226"/>
      <point x="25" y="217"/>
      <point x="25" y="203" type="curve" smooth="yes"/>
      <point x="25" y="119" type="line" smooth="yes"/>
      <point x="25" y="94"/>
      <point x="36" y="83"/>
      <point x="61" y="83" type="curve" smooth="yes"/>
      <point x="289" y="83" type="line" smooth="yes"/>
      <point x="337" y="83"/>
      <point x="373" y="95"/>
      <point x="398" y="116" type="curve" smooth="yes"/>
      <point x="454" y="163" type="line"/>
      <point x="411" y="-71" type="line" smooth="yes"/>
      <point x="405" y="-103"/>
      <point x="423" y="-119"/>
      <point x="457" y="-119" type="curve" smooth="yes"/>
      <point x="572" y="-119" type="line" smooth="yes"/>
      <point x="585" y="-119"/>
      <point x="595" y="-116"/>
    </contour>
  </outline>
</glyph>
<glyph name="Aacute" format="1">
  <advance width="830"/>
  <unicode hex="00C1"/>
  <outline>
    <contour>
      <point x="653" y="796" type="curve" smooth="yes"/>
      <point x="304" y="753" type="line" smooth="yes"/>
      <point x="281" y="750"/>
      <point x="270" y="763"/>
      <point x="270" y="786" type="curve" smooth="yes"/>
      <point x="270" y="882" type="line" smooth="yes"/>
      <point x="270" y="907"/>
      <point x="281" y="915"/>
      <point x="306" y="918" type="curve" smooth="yes"/>
      <point x="655" y="961" type="line"/>
      <point x="678" y="964"/>
      <point x="689" y="951"/>
      <point x="689" y="928" type="curve" smooth="yes"/>
      <point x="689" y="832" type="line" smooth="yes"/>
      <point x="689" y="807"/>
      <point x="678" y="799"/>
    </contour>
    <contour>
      <point x="360" y="847" type="line"/>
      <point x="360" y="837" type="line"/>
      <point x="599" y="867" type="line"/>
      <point x="599" y="877" type="line"/>
    </contour>
    <contour>
      <point x="285" y="303" type="line"/>
      <point x="285" y="339"/>
      <point x="291" y="369"/>
      <point x="301" y="396" type="curve"/>
      <point x="365" y="560" type="line"/>
      <point x="378" y="594"/>
      <point x="389" y="620"/>
      <point x="429" y="620" type="curve" smooth="yes"/>
      <point x="527" y="620" type="line" smooth="yes"/>
      <point x="564" y="620"/>
      <point x="575" y="594"/>
      <point x="590" y="559" type="curve"/>
      <point x="659" y="396" type="line"/>
      <point x="669" y="369"/>
      <point x="675" y="339"/>
      <point x="675" y="303" type="curve"/>
      <point x="675" y="272" type="line"/>
      <point x="285" y="272" type="line"/>
    </contour>
    <contour>
      <point x="445" y="510" type="curve"/>
      <point x="398" y="358" type="line"/>
      <point x="555" y="358" type="line"/>
      <point x="508" y="510" type="line"/>
      <point x="503" y="522"/>
      <point x="497" y="527"/>
      <point x="489" y="527" type="curve" smooth="yes"/>
      <point x="464" y="527" type="line" smooth="yes"/>
      <point x="456" y="527"/>
      <point x="450" y="522"/>
    </contour>
    <contour>
      <point x="675" y="90" type="line"/>
      <point x="685" y="90" type="line"/>
      <point x="685" y="303" type="line" smooth="yes"/>
      <point x="685" y="340"/>
      <point x="679" y="371"/>
      <point x="668" y="400" type="curve" smooth="yes"/>
      <point x="599" y="563" type="line" smooth="yes"/>
      <point x="583" y="602"/>
      <point x="571" y="630"/>
      <point x="527" y="630" type="curve" smooth="yes"/>
      <point x="429" y="630" type="line" smooth="yes"/>
      <point x="383" y="630"/>
      <point x="371" y="601"/>
      <point x="356" y="564" type="curve" smooth="yes"/>
      <point x="292" y="400" type="line"/>
      <point x="281" y="371"/>
      <point x="275" y="340"/>
      <point x="275" y="303" type="curve" smooth="yes"/>
      <point x="275" y="90" type="line"/>
      <point x="285" y="90" type="line"/>
      <point x="285" y="262" type="line"/>
      <point x="675" y="262" type="line"/>
    </contour>
    <contour>
      <point x="388" y="36" type="line" smooth="yes"/>
      <point x="388" y="11"/>
      <point x="377" y="0"/>
      <point x="352" y="0" type="curve" smooth="yes"/>
      <point x="205" y="0" type="line" smooth="yes"/>
      <point x="180" y="0"/>
      <point x="169" y="11"/>
      <point x="169" y="36" type="curve" smooth="yes"/>
      <point x="169" y="300" type="line" smooth="yes"/>
      <point x="169" y="340"/>
      <point x="181" y="390"/>
      <point x="208" y="460" type="curve" smooth="yes"/>
      <point x="295" y="687" type="line" smooth="yes"/>
      <point x="303" y="710"/>
      <point x="319" y="720"/>
      <point x="346" y="720" type="curve" smooth="yes"/>
      <point x="615" y="720" type="line" smooth="yes"/>
      <point x="641" y="720"/>
      <point x="657" y="710"/>
      <point x="665" y="687" type="curve" smooth="yes"/>
      <point x="752" y="460" type="line" smooth="yes"/>
      <point x="779" y="390"/>
      <point x="791" y="340"/>
      <point x="791" y="300" type="curve" smooth="yes"/>
      <point x="791" y="36" type="line" smooth="yes"/>
      <point x="791" y="11"/>
      <point x="780" y="0"/>
      <point x="755" y="0" type="curve" smooth="yes"/>
      <point x="604" y="0" type="line" smooth="yes"/>
      <point x="577" y="0"/>
      <point x="565" y="11"/>
      <point x="565" y="36" type="curve" smooth="yes"/>
      <point x="565" y="176" type="line"/>
      <point x="388" y="176" type="line"/>
    </contour>
    <contour>
      <point x="254" y="-109" type="curve"/>
      <point x="384" y="-1" type="line" smooth="yes"/>
      <point x="393" y="7"/>
      <point x="398" y="18"/>
      <point x="398" y="36" type="curve" smooth="yes"/>
      <point x="398" y="57" type="line"/>
      <point x="426" y="57" type="line"/>
      <point x="426" y="-73" type="line" smooth="yes"/>
      <point x="426" y="-104"/>
      <point x="441" y="-119"/>
      <point x="475" y="-119" type="curve" smooth="yes"/>
      <point x="626" y="-119" type="line" smooth="yes"/>
      <point x="640" y="-119"/>
      <point x="651" y="-115"/>
      <point x="657" y="-109" type="curve"/>
      <point x="787" y="-1" type="line" smooth="yes"/>
      <point x="796" y="7"/>
      <point x="801" y="18"/>
      <point x="801" y="36" type="curve" smooth="yes"/>
      <point x="801" y="300" type="line" smooth="yes"/>
      <point x="801" y="341"/>
      <point x="789" y="392"/>
      <point x="761" y="464" type="curve" smooth="yes"/>
      <point x="674" y="691" type="line" smooth="yes"/>
      <point x="665" y="718"/>
      <point x="646" y="730"/>
      <point x="615" y="730" type="curve" smooth="yes"/>
      <point x="606" y="730" type="line"/>
      <point x="685" y="797" type="line"/>
      <point x="694" y="803"/>
      <point x="699" y="815"/>
      <point x="699" y="832" type="curve" smooth="yes"/>
      <point x="699" y="928" type="line" smooth="yes"/>
      <point x="699" y="959"/>
      <point x="684" y="975"/>
      <point x="654" y="971" type="curve" smooth="yes"/>
      <point x="305" y="928" type="line" smooth="yes"/>
      <point x="291" y="927"/>
      <point x="280" y="923"/>
      <point x="274" y="917" type="curve"/>
      <point x="144" y="808" type="line" smooth="yes"/>
      <point x="136" y="801"/>
      <point x="131" y="791"/>
      <point x="131" y="773" type="curve" smooth="yes"/>
      <point x="131" y="677" type="line" smooth="yes"/>
      <point x="131" y="646"/>
      <point x="146" y="630"/>
      <point x="176" y="634" type="curve"/>
      <point x="209" y="638" type="line"/>
      <point x="174" y="609" type="line"/>
      <point x="173" y="608" type="line" smooth="yes"/>
      <point x="166" y="601"/>
      <point x="160" y="593"/>
      <point x="156" y="581" type="curve"/>
      <point x="70" y="355" type="line" smooth="yes"/>
      <point x="42" y="283"/>
      <point x="30" y="232"/>
      <point x="30" y="191" type="curve" smooth="yes"/>
      <point x="30" y="-73" type="line" smooth="yes"/>
      <point x="30" y="-105"/>
      <point x="44" y="-119"/>
      <point x="76" y="-119" type="curve" smooth="yes"/>
      <point x="223" y="-119" type="line" smooth="yes"/>
      <point x="237" y="-119"/>
      <point x="248" y="-115"/>
    </contour>
  </outline>
</glyph>
<glyph name="Acircumflex" format="1">
  <advance width="830"/>
  <unicode hex="00C2"/>
  <outline>
    <contour>
      <point x="185.0" y="638.0" type="curve"/>
      <point x="277.0" y="665.0" type="line"/>
      <point x="309.0" y="717.0" type="line"/>
      <point x="357.0" y="727.0" type="line"/>
      <point x="618" y="725" type="line"/>
      <point x="651.0" y="716.0" type="line"/>
      <point x="688.0" y="747.0" type="line"/>
      <point x="689.0" y="748.0" type="line" smooth="yes"/>
      <point x="695.0" y="754.0"/>
      <point x="699.0" y="766.0"/>
      <point x="699.0" y="788.0" type="curve" smooth="yes"/>
      <point x="699.0" y="869.0" type="line" smooth="yes"/>
      <point x="699.0" y="911.0"/>
      <point x="691.0" y="916.0"/>
      <point x="651.0" y="931.0" type="curve" smooth="yes"/>
      <point x="513.0" y="981.0" type="line" smooth="yes"/>
      <point x="503.0" y="986.0"/>
      <point x="491.0" y="987.0"/>
      <point x="478.0" y="987.0" type="curve"/>
      <point x="464.0" y="986.0"/>
      <point x="448.0" y="983.0"/>
      <point x="435.0" y="977.0" type="curve" smooth="yes"/>
      <point x="308.0" y="931.0" type="line" smooth="yes"/>
      <point x="293.0" y="926.0"/>
      <point x="282.0" y="921.0"/>
      <point x="275.0" y="914.0" type="curve"/>
      <point x="276.0" y="915.0" type="line"/>
      <point x="145.0" y="806.0" type="line" smooth="yes"/>
      <point x="135.0" y="797.0"/>
      <point x="131.0" y="785.0"/>
      <point x="131.0" y="760.0" type="curve" smooth="yes"/>
      <point x="131.0" y="679.0" type="line" smooth="yes"/>
      <point x="131.0" y="631.0"/>
      <point x="141.0" y="624.0"/>
    </contour>
    <contour>
      <point x="448" y="797" type="curve"/>
      <point x="311" y="757" type="line" smooth="yes"/>
      <point x="277" y="746"/>
      <point x="270" y="752"/>
      <point x="270" y="788" type="curve" smooth="yes"/>
      <point x="270" y="869" type="line" smooth="yes"/>
      <point x="270" y="905"/>
      <point x="279" y="909"/>
      <point x="311" y="922" type="curve" smooth="yes"/>
      <point x="439" y="968" type="line" smooth="yes"/>
      <point x="451" y="973"/>
      <point x="466" y="976"/>
      <point x="478" y="977" type="curve" smooth="yes"/>
      <point x="490" y="977"/>
      <point x="500" y="976"/>
      <point x="510" y="972" type="curve" smooth="yes"/>
      <point x="647" y="922" type="line" smooth="yes"/>
      <point x="681" y="909"/>
      <point x="689" y="905"/>
      <point x="689" y="869" type="curve" smooth="yes"/>
      <point x="689" y="788" type="line" smooth="yes"/>
      <point x="689" y="752"/>
      <point x="682" y="746"/>
      <point x="647" y="757" type="curve" smooth="yes"/>
      <point x="510" y="797" type="line"/>
      <point x="487" y="803"/>
      <point x="471" y="803"/>
    </contour>
    <contour>
      <point x="598" y="850" type="line"/>
      <point x="598" y="861" type="line"/>
      <point x="515" y="888" type="line" smooth="yes"/>
      <point x="503" y="891"/>
      <point x="494" y="894"/>
      <point x="479" y="894" type="curve"/>
      <point x="464" y="894"/>
      <point x="455" y="891"/>
      <point x="443" y="888" type="curve" smooth="yes"/>
      <point x="360" y="861" type="line"/>
      <point x="360" y="850" type="line"/>
      <point x="447" y="878" type="line" smooth="yes"/>
      <point x="457" y="881"/>
      <point x="466" y="884"/>
      <point x="479" y="884" type="curve"/>
      <point x="492" y="884"/>
      <point x="501" y="881"/>
      <point x="511" y="878" type="curve" smooth="yes"/>
    </contour>
    <component base="A"/>
  </outline>
</glyph>
<glyph name="Atilde" format="1">
  <advance width="830"/>
  <unicode hex="00C3"/>
  <outline>
    <contour>
      <point x="479" y="764" type="line"/>
      <point x="451" y="768" type="line" smooth="yes"/>
      <point x="375" y="779"/>
      <point x="359" y="775"/>
      <point x="306" y="759" type="curve" smooth="yes"/>
      <point x="282" y="752"/>
      <point x="270" y="760"/>
      <point x="270" y="785" type="curve" smooth="yes"/>
      <point x="270" y="886" type="line" smooth="yes"/>
      <point x="270" y="911"/>
      <point x="283" y="918"/>
      <point x="306" y="927" type="curve"/>
      <point x="369" y="946"/>
      <point x="382" y="944"/>
      <point x="462" y="932" type="curve" smooth="yes"/>
      <point x="479" y="930" type="line"/>
      <point x="501" y="927" type="line" smooth="yes"/>
      <point x="589" y="914"/>
      <point x="593" y="917"/>
      <point x="652" y="935" type="curve" smooth="yes"/>
      <point x="676" y="942"/>
      <point x="688" y="934"/>
      <point x="688" y="909" type="curve" smooth="yes"/>
      <point x="688" y="808" type="line" smooth="yes"/>
      <point x="688" y="783"/>
      <point x="675" y="776"/>
      <point x="652" y="767" type="curve"/>
      <point x="589" y="748"/>
      <point x="575" y="750"/>
      <point x="495" y="762" type="curve" smooth="yes"/>
    </contour>
    <contour>
      <point x="598" y="841" type="line"/>
      <point x="571" y="838"/>
      <point x="547" y="841"/>
      <point x="496" y="849" type="curve" smooth="yes"/>
      <point x="480" y="851" type="line"/>
      <point x="452" y="855" type="line" smooth="yes"/>
      <point x="407" y="861"/>
      <point x="383" y="863"/>
      <point x="360" y="860" type="curve"/>
      <point x="360" y="849" type="line"/>
      <point x="382" y="853"/>
      <point x="406" y="852"/>
      <point x="450" y="845" type="curve" smooth="yes"/>
      <point x="478" y="841" type="line"/>
      <point x="494" y="839" type="line" smooth="yes"/>
      <point x="545" y="831"/>
      <point x="571" y="828"/>
      <point x="598" y="831" type="curve"/>
    </contour>
    <contour>
      <point x="285" y="303" type="line"/>
      <point x="285" y="339"/>
      <point x="291" y="369"/>
      <point x="301" y="396" type="curve"/>
      <point x="365" y="560" type="line"/>
      <point x="378" y="594"/>
      <point x="389" y="620"/>
      <point x="429" y="620" type="curve" smooth="yes"/>
      <point x="527" y="620" type="line" smooth="yes"/>
      <point x="564" y="620"/>
      <point x="575" y="594"/>
      <point x="590" y="559" type="curve"/>
      <point x="659" y="396" type="line"/>
      <point x="669" y="369"/>
      <point x="675" y="339"/>
      <point x="675" y="303" type="curve"/>
      <point x="675" y="272" type="line"/>
      <point x="285" y="272" type="line"/>
    </contour>
    <contour>
      <point x="445" y="510" type="curve"/>
      <point x="398" y="358" type="line"/>
      <point x="555" y="358" type="line"/>
      <point x="508" y="510" type="line"/>
      <point x="503" y="522"/>
      <point x="497" y="527"/>
      <point x="489" y="527" type="curve" smooth="yes"/>
      <point x="464" y="527" type="line" smooth="yes"/>
      <point x="456" y="527"/>
      <point x="450" y="522"/>
    </contour>
    <contour>
      <point x="675" y="90" type="line"/>
      <point x="685" y="90" type="line"/>
      <point x="685" y="303" type="line" smooth="yes"/>
      <point x="685" y="340"/>
      <point x="679" y="371"/>
      <point x="668" y="400" type="curve" smooth="yes"/>
      <point x="599" y="563" type="line" smooth="yes"/>
      <point x="583" y="602"/>
      <point x="571" y="630"/>
      <point x="527" y="630" type="curve" smooth="yes"/>
      <point x="429" y="630" type="line" smooth="yes"/>
      <point x="383" y="630"/>
      <point x="371" y="601"/>
      <point x="356" y="564" type="curve" smooth="yes"/>
      <point x="292" y="400" type="line"/>
      <point x="281" y="371"/>
      <point x="275" y="340"/>
      <point x="275" y="303" type="curve" smooth="yes"/>
      <point x="275" y="90" type="line"/>
      <point x="285" y="90" type="line"/>
      <point x="285" y="262" type="line"/>
      <point x="675" y="262" type="line"/>
    </contour>
    <contour>
      <point x="388" y="36" type="line" smooth="yes"/>
      <point x="388" y="11"/>
      <point x="377" y="0"/>
      <point x="352" y="0" type="curve" smooth="yes"/>
      <point x="205" y="0" type="line" smooth="yes"/>
      <point x="180" y="0"/>
      <point x="169" y="11"/>
      <point x="169" y="36" type="curve" smooth="yes"/>
      <point x="169" y="300" type="line" smooth="yes"/>
      <point x="169" y="340"/>
      <point x="181" y="390"/>
      <point x="208" y="460" type="curve" smooth="yes"/>
      <point x="295" y="687" type="line" smooth="yes"/>
      <point x="303" y="710"/>
      <point x="319" y="720"/>
      <point x="346" y="720" type="curve" smooth="yes"/>
      <point x="615" y="720" type="line" smooth="yes"/>
      <point x="641" y="720"/>
      <point x="657" y="710"/>
      <point x="665" y="687" type="curve" smooth="yes"/>
      <point x="752" y="460" type="line" smooth="yes"/>
      <point x="779" y="390"/>
      <point x="791" y="340"/>
      <point x="791" y="300" type="curve" smooth="yes"/>
      <point x="791" y="36" type="line" smooth="yes"/>
      <point x="791" y="11"/>
      <point x="780" y="0"/>
      <point x="755" y="0" type="curve" smooth="yes"/>
      <point x="604" y="0" type="line" smooth="yes"/>
      <point x="577" y="0"/>
      <point x="565" y="11"/>
      <point x="565" y="36" type="curve" smooth="yes"/>
      <point x="565" y="176" type="line"/>
      <point x="388" y="176" type="line"/>
    </contour>
    <contour>
      <point x="254" y="-109" type="curve"/>
      <point x="384" y="-1" type="line" smooth="yes"/>
      <point x="393" y="7"/>
      <point x="398" y="18"/>
      <point x="398" y="36" type="curve" smooth="yes"/>
      <point x="398" y="57" type="line"/>
      <point x="426" y="57" type="line"/>
      <point x="426" y="-73" type="line" smooth="yes"/>
      <point x="426" y="-104"/>
      <point x="441" y="-119"/>
      <point x="475" y="-119" type="curve" smooth="yes"/>
      <point x="626" y="-119" type="line" smooth="yes"/>
      <point x="640" y="-119"/>
      <point x="651" y="-115"/>
      <point x="657" y="-109" type="curve"/>
      <point x="787" y="-1" type="line" smooth="yes"/>
      <point x="796" y="7"/>
      <point x="801" y="18"/>
      <point x="801" y="36" type="curve" smooth="yes"/>
      <point x="801" y="300" type="line" smooth="yes"/>
      <point x="801" y="341"/>
      <point x="789" y="392"/>
      <point x="761" y="464" type="curve" smooth="yes"/>
      <point x="674" y="691" type="line" smooth="yes"/>
      <point x="667" y="713"/>
      <point x="653" y="725"/>
      <point x="632" y="729" type="curve"/>
      <point x="683" y="772" type="line" smooth="yes"/>
      <point x="692" y="780"/>
      <point x="698" y="790"/>
      <point x="698" y="808" type="curve" smooth="yes"/>
      <point x="698" y="909" type="line" smooth="yes"/>
      <point x="698" y="943"/>
      <point x="682" y="954"/>
      <point x="649" y="945" type="curve" smooth="yes"/>
      <point x="592" y="927"/>
      <point x="588" y="924"/>
      <point x="502" y="937" type="curve" smooth="yes"/>
      <point x="480" y="940" type="line"/>
      <point x="463" y="942" type="line" smooth="yes"/>
      <point x="381" y="954"/>
      <point x="368" y="956"/>
      <point x="303" y="937" type="curve" smooth="yes"/>
      <point x="303" y="936" type="line"/>
      <point x="302" y="936" type="line" smooth="yes"/>
      <point x="291" y="932"/>
      <point x="281" y="927"/>
      <point x="275" y="922" type="curve" smooth="yes"/>
      <point x="146" y="814" type="line" smooth="yes"/>
      <point x="135" y="805"/>
      <point x="131" y="795"/>
      <point x="131" y="777" type="curve" smooth="yes"/>
      <point x="131" y="676" type="line" smooth="yes"/>
      <point x="131" y="642"/>
      <point x="147" y="631"/>
      <point x="180" y="640" type="curve" smooth="yes"/>
      <point x="199" y="646"/>
      <point x="213" y="650"/>
      <point x="226" y="653" type="curve"/>
      <point x="174" y="609" type="line"/>
      <point x="173" y="608" type="line" smooth="yes"/>
      <point x="166" y="601"/>
      <point x="160" y="593"/>
      <point x="156" y="581" type="curve"/>
      <point x="70" y="355" type="line" smooth="yes"/>
      <point x="42" y="283"/>
      <point x="30" y="232"/>
      <point x="30" y="191" type="curve" smooth="yes"/>
      <point x="30" y="-73" type="line" smooth="yes"/>
      <point x="30" y="-105"/>
      <point x="44" y="-119"/>
      <point x="76" y="-119" type="curve" smooth="yes"/>
      <point x="223" y="-119" type="line" smooth="yes"/>
      <point x="237" y="-119"/>
      <point x="248" y="-115"/>
    </contour>
  </outline>
</glyph>
<glyph name="Adieresis" format="1">
  <advance width="830"/>
  <unicode hex="00C4"/>
  <outline>
    <contour>
      <point x="418" y="760" type="curve" smooth="yes"/>
      <point x="280" y="760" type="line" smooth="yes"/>
      <point x="257" y="760"/>
      <point x="246" y="770"/>
      <point x="246" y="793" type="curve" smooth="yes"/>
      <point x="246" y="914" type="line" smooth="yes"/>
      <point x="246" y="937"/>
      <point x="257" y="947"/>
      <point x="280" y="947" type="curve" smooth="yes"/>
      <point x="418" y="947" type="line" smooth="yes"/>
      <point x="441" y="947"/>
      <point x="451" y="937"/>
      <point x="451" y="914" type="curve" smooth="yes"/>
      <point x="451" y="793" type="line" smooth="yes"/>
      <point x="451" y="770"/>
      <point x="441" y="760"/>
    </contour>
    <contour>
      <point x="676" y="760" type="curve" smooth="yes"/>
      <point x="538" y="760" type="line" smooth="yes"/>
      <point x="515" y="760"/>
      <point x="505" y="770"/>
      <point x="505" y="793" type="curve" smooth="yes"/>
      <point x="505" y="914" type="line" smooth="yes"/>
      <point x="505" y="937"/>
      <point x="515" y="947"/>
      <point x="538" y="947" type="curve" smooth="yes"/>
      <point x="676" y="947" type="line" smooth="yes"/>
      <point x="699" y="947"/>
      <point x="709" y="937"/>
      <point x="709" y="914" type="curve" smooth="yes"/>
      <point x="709" y="793" type="line" smooth="yes"/>
      <point x="709" y="770"/>
      <point x="699" y="760"/>
    </contour>
    <contour>
      <point x="354" y="830" type="line"/>
      <point x="354" y="877" type="line"/>
      <point x="344" y="877" type="line"/>
      <point x="344" y="830" type="line"/>
    </contour>
    <contour>
      <point x="612" y="830" type="line"/>
      <point x="612" y="877" type="line"/>
      <point x="602" y="877" type="line"/>
      <point x="602" y="830" type="line"/>
    </contour>
    <contour>
      <point x="285" y="303" type="line"/>
      <point x="285" y="339"/>
      <point x="291" y="369"/>
      <point x="301" y="396" type="curve"/>
      <point x="365" y="560" type="line"/>
      <point x="378" y="594"/>
      <point x="389" y="620"/>
      <point x="429" y="620" type="curve" smooth="yes"/>
      <point x="527" y="620" type="line" smooth="yes"/>
      <point x="564" y="620"/>
      <point x="575" y="594"/>
      <point x="590" y="559" type="curve"/>
      <point x="659" y="396" type="line"/>
      <point x="669" y="369"/>
      <point x="675" y="339"/>
      <point x="675" y="303" type="curve"/>
      <point x="675" y="272" type="line"/>
      <point x="285" y="272" type="line"/>
    </contour>
    <contour>
      <point x="445" y="510" type="curve"/>
      <point x="398" y="358" type="line"/>
      <point x="555" y="358" type="line"/>
      <point x="508" y="510" type="line"/>
      <point x="503" y="522"/>
      <point x="497" y="527"/>
      <point x="489" y="527" type="curve" smooth="yes"/>
      <point x="464" y="527" type="line" smooth="yes"/>
      <point x="456" y="527"/>
      <point x="450" y="522"/>
    </contour>
    <contour>
      <point x="675" y="90" type="line"/>
      <point x="685" y="90" type="line"/>
      <point x="685" y="303" type="line" smooth="yes"/>
      <point x="685" y="340"/>
      <point x="679" y="371"/>
      <point x="668" y="400" type="curve" smooth="yes"/>
      <point x="599" y="563" type="line" smooth="yes"/>
      <point x="583" y="602"/>
      <point x="571" y="630"/>
      <point x="527" y="630" type="curve" smooth="yes"/>
      <point x="429" y="630" type="line" smooth="yes"/>
      <point x="383" y="630"/>
      <point x="371" y="601"/>
      <point x="356" y="564" type="curve" smooth="yes"/>
      <point x="292" y="400" type="line"/>
      <point x="281" y="371"/>
      <point x="275" y="340"/>
      <point x="275" y="303" type="curve" smooth="yes"/>
      <point x="275" y="90" type="line"/>
      <point x="285" y="90" type="line"/>
      <point x="285" y="262" type="line"/>
      <point x="675" y="262" type="line"/>
    </contour>
    <contour>
      <point x="388" y="36" type="line" smooth="yes"/>
      <point x="388" y="11"/>
      <point x="377" y="0"/>
      <point x="352" y="0" type="curve" smooth="yes"/>
      <point x="205" y="0" type="line" smooth="yes"/>
      <point x="180" y="0"/>
      <point x="169" y="11"/>
      <point x="169" y="36" type="curve" smooth="yes"/>
      <point x="169" y="300" type="line" smooth="yes"/>
      <point x="169" y="340"/>
      <point x="181" y="390"/>
      <point x="208" y="460" type="curve" smooth="yes"/>
      <point x="295" y="687" type="line" smooth="yes"/>
      <point x="303" y="710"/>
      <point x="319" y="720"/>
      <point x="346" y="720" type="curve" smooth="yes"/>
      <point x="615" y="720" type="line" smooth="yes"/>
      <point x="641" y="720"/>
      <point x="657" y="710"/>
      <point x="665" y="687" type="curve" smooth="yes"/>
      <point x="752" y="460" type="line" smooth="yes"/>
      <point x="779" y="390"/>
      <point x="791" y="340"/>
      <point x="791" y="300" type="curve" smooth="yes"/>
      <point x="791" y="36" type="line" smooth="yes"/>
      <point x="791" y="11"/>
      <point x="780" y="0"/>
      <point x="755" y="0" type="curve" smooth="yes"/>
      <point x="604" y="0" type="line" smooth="yes"/>
      <point x="577" y="0"/>
      <point x="565" y="11"/>
      <point x="565" y="36" type="curve" smooth="yes"/>
      <point x="565" y="176" type="line"/>
      <point x="388" y="176" type="line"/>
    </contour>
    <contour>
      <point x="254" y="-109" type="curve"/>
      <point x="384" y="-1" type="line" smooth="yes"/>
      <point x="393" y="7"/>
      <point x="398" y="18"/>
      <point x="398" y="36" type="curve" smooth="yes"/>
      <point x="398" y="57" type="line"/>
      <point x="426" y="57" type="line"/>
      <point x="426" y="-73" type="line" smooth="yes"/>
      <point x="426" y="-104"/>
      <point x="441" y="-119"/>
      <point x="475" y="-119" type="curve" smooth="yes"/>
      <point x="626" y="-119" type="line" smooth="yes"/>
      <point x="640" y="-119"/>
      <point x="651" y="-115"/>
      <point x="657" y="-109" type="curve"/>
      <point x="787" y="-1" type="line" smooth="yes"/>
      <point x="796" y="7"/>
      <point x="801" y="18"/>
      <point x="801" y="36" type="curve" smooth="yes"/>
      <point x="801" y="300" type="line" smooth="yes"/>
      <point x="801" y="341"/>
      <point x="789" y="392"/>
      <point x="761" y="464" type="curve" smooth="yes"/>
      <point x="674" y="691" type="line" smooth="yes"/>
      <point x="670" y="703"/>
      <point x="664" y="712"/>
      <point x="656" y="718" type="curve"/>
      <point x="706" y="759" type="line" smooth="yes"/>
      <point x="714" y="766"/>
      <point x="719" y="777"/>
      <point x="719" y="793" type="curve" smooth="yes"/>
      <point x="719" y="914" type="line" smooth="yes"/>
      <point x="719" y="944"/>
      <point x="706" y="957"/>
      <point x="676" y="957" type="curve" smooth="yes"/>
      <point x="538" y="957" type="line" smooth="yes"/>
      <point x="524" y="957"/>
      <point x="515" y="954"/>
      <point x="508" y="948" type="curve" smooth="yes"/>
      <point x="461" y="908" type="line"/>
      <point x="461" y="914" type="line" smooth="yes"/>
      <point x="461" y="944"/>
      <point x="448" y="957"/>
      <point x="418" y="957" type="curve" smooth="yes"/>
      <point x="280" y="957" type="line" smooth="yes"/>
      <point x="266" y="957"/>
      <point x="256" y="954"/>
      <point x="249" y="948" type="curve" smooth="yes"/>
      <point x="120" y="839" type="line" smooth="yes"/>
      <point x="112" y="832"/>
      <point x="107" y="822"/>
      <point x="107" y="805" type="curve" smooth="yes"/>
      <point x="107" y="684" type="line" smooth="yes"/>
      <point x="107" y="654"/>
      <point x="121" y="641"/>
      <point x="151" y="641" type="curve" smooth="yes"/>
      <point x="212" y="641" type="line"/>
      <point x="174" y="609" type="line"/>
      <point x="173" y="608" type="line" smooth="yes"/>
      <point x="166" y="601"/>
      <point x="160" y="593"/>
      <point x="156" y="581" type="curve"/>
      <point x="70" y="355" type="line" smooth="yes"/>
      <point x="42" y="283"/>
      <point x="30" y="232"/>
      <point x="30" y="191" type="curve" smooth="yes"/>
      <point x="30" y="-73" type="line" smooth="yes"/>
      <point x="30" y="-105"/>
      <point x="44" y="-119"/>
      <point x="76" y="-119" type="curve" smooth="yes"/>
      <point x="223" y="-119" type="line" smooth="yes"/>
      <point x="237" y="-119"/>
      <point x="248" y="-115"/>
    </contour>
  </outline>
</glyph>
<glyph name="AE" format="1">
  <advance width="1105"/>
  <unicode hex="00C6"/>
  <outline>
    <contour>
      <point x="383" y="-1" type="line" smooth="yes"/>
      <point x="392" y="7"/>
      <point x="397" y="18"/>
      <point x="397" y="36" type="curve" smooth="yes"/>
      <point x="397" y="57" type="line"/>
      <point x="416" y="57" type="line"/>
      <point x="416" y="-73" type="line" smooth="yes"/>
      <point x="416" y="-105"/>
      <point x="430" y="-119"/>
      <point x="462" y="-119" type="curve" smooth="yes"/>
      <point x="906" y="-119" type="line" smooth="yes"/>
      <point x="920" y="-119"/>
      <point x="931" y="-115"/>
      <point x="937" y="-109" type="curve"/>
      <point x="1067" y="-1" type="line" smooth="yes"/>
      <point x="1076" y="7"/>
      <point x="1081" y="18"/>
      <point x="1081" y="36" type="curve" smooth="yes"/>
      <point x="1081" y="153" type="line" smooth="yes"/>
      <point x="1081" y="185"/>
      <point x="1067" y="199"/>
      <point x="1035" y="199" type="curve" smooth="yes"/>
      <point x="897" y="199" type="line"/>
      <point x="986" y="274" type="line" smooth="yes"/>
      <point x="995" y="282"/>
      <point x="1000" y="293"/>
      <point x="1000" y="311" type="curve" smooth="yes"/>
      <point x="1000" y="418" type="line" smooth="yes"/>
      <point x="1000" y="440"/>
      <point x="994" y="452"/>
      <point x="981" y="459" type="curve"/>
      <point x="1067" y="530" type="line" smooth="yes"/>
      <point x="1076" y="538"/>
      <point x="1081" y="549"/>
      <point x="1081" y="567" type="curve" smooth="yes"/>
      <point x="1081" y="684" type="line" smooth="yes"/>
      <point x="1081" y="716"/>
      <point x="1067" y="730"/>
      <point x="1035" y="730" type="curve" smooth="yes"/>
      <point x="347" y="730" type="line" smooth="yes"/>
      <point x="324" y="730"/>
      <point x="308" y="726"/>
      <point x="296" y="715" type="curve" smooth="yes"/>
      <point x="168" y="607" type="line"/>
      <point x="159" y="600"/>
      <point x="151" y="590"/>
      <point x="147" y="573" type="curve"/>
      <point x="60" y="334" type="line" smooth="yes"/>
      <point x="40" y="283"/>
      <point x="30" y="241"/>
      <point x="30" y="181" type="curve" smooth="yes"/>
      <point x="30" y="-73" type="line" smooth="yes"/>
      <point x="30" y="-105"/>
      <point x="44" y="-119"/>
      <point x="76" y="-119" type="curve" smooth="yes"/>
      <point x="222" y="-119" type="line" smooth="yes"/>
      <point x="236" y="-119"/>
      <point x="247" y="-115"/>
      <point x="253" y="-109" type="curve"/>
    </contour>
    <contour>
      <point x="449" y="514" type="curve" smooth="yes"/>
      <point x="397" y="358" type="line"/>
      <point x="555" y="358" type="line"/>
      <point x="555" y="531" type="line"/>
      <point x="468" y="531" type="line" smooth="yes"/>
      <point x="457" y="531"/>
      <point x="454" y="527"/>
    </contour>
    <contour>
      <point x="387" y="36" type="line" smooth="yes"/>
      <point x="387" y="11"/>
      <point x="376" y="0"/>
      <point x="351" y="0" type="curve" smooth="yes"/>
      <point x="205" y="0" type="line" smooth="yes"/>
      <point x="180" y="0"/>
      <point x="169" y="11"/>
      <point x="169" y="36" type="curve" smooth="yes"/>
      <point x="169" y="290" type="line" smooth="yes"/>
      <point x="169" y="349"/>
      <point x="179" y="390"/>
      <point x="198" y="440" type="curve" smooth="yes"/>
      <point x="285" y="679" type="line" smooth="yes"/>
      <point x="296" y="710"/>
      <point x="313" y="720"/>
      <point x="347" y="720" type="curve" smooth="yes"/>
      <point x="1035" y="720" type="line" smooth="yes"/>
      <point x="1060" y="720"/>
      <point x="1071" y="709"/>
      <point x="1071" y="684" type="curve" smooth="yes"/>
      <point x="1071" y="567" type="line" smooth="yes"/>
      <point x="1071" y="542"/>
      <point x="1060" y="531"/>
      <point x="1035" y="531" type="curve" smooth="yes"/>
      <point x="782" y="531" type="line"/>
      <point x="782" y="454" type="line"/>
      <point x="954" y="454" type="line" smooth="yes"/>
      <point x="979" y="454"/>
      <point x="990" y="444"/>
      <point x="990" y="418" type="curve" smooth="yes"/>
      <point x="990" y="311" type="line" smooth="yes"/>
      <point x="990" y="286"/>
      <point x="979" y="275"/>
      <point x="954" y="275" type="curve" smooth="yes"/>
      <point x="782" y="275" type="line"/>
      <point x="782" y="189" type="line"/>
      <point x="1035" y="189" type="line" smooth="yes"/>
      <point x="1060" y="189"/>
      <point x="1071" y="178"/>
      <point x="1071" y="153" type="curve" smooth="yes"/>
      <point x="1071" y="36" type="line" smooth="yes"/>
      <point x="1071" y="11"/>
      <point x="1060" y="0"/>
      <point x="1035" y="0" type="curve" smooth="yes"/>
      <point x="591" y="0" type="line" smooth="yes"/>
      <point x="566" y="0"/>
      <point x="555" y="11"/>
      <point x="555" y="36" type="curve"/>
      <point x="555" y="176" type="line"/>
      <point x="387" y="176" type="line"/>
    </contour>
    <contour>
      <point x="283" y="291" type="line" smooth="yes"/>
      <point x="283" y="328"/>
      <point x="284" y="353"/>
      <point x="294" y="379" type="curve" smooth="yes"/>
      <point x="368" y="582" type="line" smooth="yes"/>
      <point x="378" y="611"/>
      <point x="389" y="620"/>
      <point x="409" y="620" type="curve" smooth="yes"/>
      <point x="664" y="620" type="line"/>
      <point x="664" y="273" type="line"/>
      <point x="283" y="273" type="line"/>
    </contour>
    <contour>
      <point x="273" y="90" type="line"/>
      <point x="283" y="90" type="line"/>
      <point x="283" y="263" type="line"/>
      <point x="664" y="263" type="line"/>
      <point x="664" y="90" type="line"/>
      <point x="981" y="90" type="line"/>
      <point x="981" y="100" type="line"/>
      <point x="674" y="100" type="line"/>
      <point x="674" y="360" type="line"/>
      <point x="900" y="360" type="line"/>
      <point x="900" y="370" type="line"/>
      <point x="674" y="370" type="line"/>
      <point x="674" y="620" type="line"/>
      <point x="981" y="620" type="line"/>
      <point x="981" y="630" type="line"/>
      <point x="409" y="630" type="line" smooth="yes"/>
      <point x="385" y="630"/>
      <point x="372" y="621"/>
      <point x="358" y="586" type="curve" smooth="yes"/>
      <point x="284" y="383" type="line" smooth="yes"/>
      <point x="274" y="355"/>
      <point x="273" y="330"/>
      <point x="273" y="291" type="curve" smooth="yes"/>
    </contour>
  </outline>
</glyph>
<glyph name="Egrave" format="1">
  <advance width="754"/>
  <unicode hex="00C8"/>
  <outline>
    <contour>
      <point x="555" y="-119" type="line" smooth="yes"/>
      <point x="569" y="-119"/>
      <point x="580" y="-115"/>
      <point x="586" y="-109" type="curve"/>
      <point x="716" y="-1" type="line" smooth="yes"/>
      <point x="725" y="7"/>
      <point x="730" y="18"/>
      <point x="730" y="36" type="curve" smooth="yes"/>
      <point x="730" y="153" type="line" smooth="yes"/>
      <point x="730" y="185"/>
      <point x="716" y="199"/>
      <point x="684" y="199" type="curve" smooth="yes"/>
      <point x="546" y="199" type="line"/>
      <point x="635" y="274" type="line" smooth="yes"/>
      <point x="644" y="282"/>
      <point x="649" y="293"/>
      <point x="649" y="311" type="curve" smooth="yes"/>
      <point x="649" y="418" type="line" smooth="yes"/>
      <point x="649" y="439"/>
      <point x="643" y="452"/>
      <point x="630" y="459" type="curve"/>
      <point x="716" y="530" type="line" smooth="yes"/>
      <point x="725" y="538"/>
      <point x="730" y="549"/>
      <point x="730" y="567" type="curve" smooth="yes"/>
      <point x="730" y="684" type="line" smooth="yes"/>
      <point x="730" y="716"/>
      <point x="716" y="730"/>
      <point x="684" y="730" type="curve" smooth="yes"/>
      <point x="623" y="730" type="line"/>
      <point x="647" y="750" type="line" smooth="yes"/>
      <point x="656" y="758"/>
      <point x="661" y="769"/>
      <point x="661" y="786" type="curve" smooth="yes"/>
      <point x="661" y="882" type="line" smooth="yes"/>
      <point x="661" y="913"/>
      <point x="648" y="924"/>
      <point x="616" y="928" type="curve" smooth="yes"/>
      <point x="267" y="971" type="line" smooth="yes"/>
      <point x="254" y="972"/>
      <point x="244" y="969"/>
      <point x="236" y="964" type="curve" smooth="yes"/>
      <point x="107" y="855" type="line" smooth="yes"/>
      <point x="98" y="847"/>
      <point x="93" y="836"/>
      <point x="93" y="819" type="curve" smooth="yes"/>
      <point x="93" y="723" type="line" smooth="yes"/>
      <point x="93" y="693"/>
      <point x="106" y="681"/>
      <point x="136" y="677" type="curve"/>
      <point x="59" y="612" type="line" smooth="yes"/>
      <point x="50" y="604"/>
      <point x="45" y="593"/>
      <point x="45" y="575" type="curve" smooth="yes"/>
      <point x="45" y="-73" type="line" smooth="yes"/>
      <point x="45" y="-105"/>
      <point x="59" y="-119"/>
      <point x="91" y="-119" type="curve" smooth="yes"/>
    </contour>
    <contour>
      <point x="617" y="753" type="curve" smooth="yes"/>
      <point x="268" y="796" type="line" smooth="yes"/>
      <point x="243" y="799"/>
      <point x="232" y="807"/>
      <point x="232" y="832" type="curve" smooth="yes"/>
      <point x="232" y="928" type="line" smooth="yes"/>
      <point x="232" y="951"/>
      <point x="243" y="964"/>
      <point x="266" y="961" type="curve" smooth="yes"/>
      <point x="615" y="918" type="line" smooth="yes"/>
      <point x="640" y="915"/>
      <point x="651" y="907"/>
      <point x="651" y="882" type="curve" smooth="yes"/>
      <point x="651" y="786" type="line" smooth="yes"/>
      <point x="651" y="763"/>
      <point x="640" y="750"/>
    </contour>
    <contour>
      <point x="322" y="867" type="line"/>
      <point x="561" y="837" type="line"/>
      <point x="561" y="847" type="line"/>
      <point x="322" y="877" type="line"/>
    </contour>
    <contour>
      <point x="684" y="0" type="curve" smooth="yes"/>
      <point x="220" y="0" type="line" smooth="yes"/>
      <point x="195" y="0"/>
      <point x="184" y="11"/>
      <point x="184" y="36" type="curve" smooth="yes"/>
      <point x="184" y="684" type="line" smooth="yes"/>
      <point x="184" y="709"/>
      <point x="195" y="720"/>
      <point x="220" y="720" type="curve" smooth="yes"/>
      <point x="684" y="720" type="line" smooth="yes"/>
      <point x="709" y="720"/>
      <point x="720" y="709"/>
      <point x="720" y="684" type="curve" smooth="yes"/>
      <point x="720" y="567" type="line" smooth="yes"/>
      <point x="720" y="542"/>
      <point x="709" y="531"/>
      <point x="684" y="531" type="curve" smooth="yes"/>
      <point x="408" y="531" type="line"/>
      <point x="408" y="454" type="line"/>
      <point x="603" y="454" type="line" smooth="yes"/>
      <point x="628" y="454"/>
      <point x="639" y="443"/>
      <point x="639" y="418" type="curve" smooth="yes"/>
      <point x="639" y="311" type="line" smooth="yes"/>
      <point x="639" y="286"/>
      <point x="628" y="275"/>
      <point x="603" y="275" type="curve" smooth="yes"/>
      <point x="408" y="275" type="line"/>
      <point x="408" y="189" type="line"/>
      <point x="684" y="189" type="line" smooth="yes"/>
      <point x="709" y="189"/>
      <point x="720" y="178"/>
      <point x="720" y="153" type="curve" smooth="yes"/>
      <point x="720" y="36" type="line" smooth="yes"/>
      <point x="720" y="11"/>
      <point x="709" y="0"/>
    </contour>
    <contour>
      <point x="630" y="100" type="line"/>
      <point x="303" y="100" type="line"/>
      <point x="303" y="359" type="line"/>
      <point x="549" y="359" type="line"/>
      <point x="549" y="369" type="line"/>
      <point x="303" y="369" type="line"/>
      <point x="303" y="620" type="line"/>
      <point x="630" y="620" type="line"/>
      <point x="630" y="630" type="line"/>
      <point x="293" y="630" type="line"/>
      <point x="293" y="90" type="line"/>
      <point x="630" y="90" type="line"/>
    </contour>
  </outline>
</glyph>
<glyph name="Eacute" format="1">
  <advance width="754"/>
  <unicode hex="00C9"/>
  <outline>
    <contour>
      <point x="555" y="-119" type="line" smooth="yes"/>
      <point x="569" y="-119"/>
      <point x="580" y="-115"/>
      <point x="586" y="-109" type="curve"/>
      <point x="716" y="-1" type="line" smooth="yes"/>
      <point x="725" y="7"/>
      <point x="730" y="18"/>
      <point x="730" y="36" type="curve" smooth="yes"/>
      <point x="730" y="153" type="line" smooth="yes"/>
      <point x="730" y="185"/>
      <point x="716" y="199"/>
      <point x="684" y="199" type="curve" smooth="yes"/>
      <point x="546" y="199" type="line"/>
      <point x="635" y="274" type="line" smooth="yes"/>
      <point x="644" y="282"/>
      <point x="649" y="293"/>
      <point x="649" y="311" type="curve" smooth="yes"/>
      <point x="649" y="418" type="line" smooth="yes"/>
      <point x="649" y="439"/>
      <point x="643" y="452"/>
      <point x="630" y="459" type="curve"/>
      <point x="716" y="530" type="line" smooth="yes"/>
      <point x="725" y="538"/>
      <point x="730" y="549"/>
      <point x="730" y="567" type="curve" smooth="yes"/>
      <point x="730" y="684" type="line" smooth="yes"/>
      <point x="730" y="716"/>
      <point x="716" y="730"/>
      <point x="684" y="730" type="curve" smooth="yes"/>
      <point x="598" y="730" type="line"/>
      <point x="677" y="797" type="line"/>
      <point x="686" y="803"/>
      <point x="691" y="815"/>
      <point x="691" y="832" type="curve" smooth="yes"/>
      <point x="691" y="928" type="line" smooth="yes"/>
      <point x="691" y="959"/>
      <point x="676" y="975"/>
      <point x="646" y="971" type="curve" smooth="yes"/>
      <point x="297" y="928" type="line" smooth="yes"/>
      <point x="283" y="927"/>
      <point x="272" y="923"/>
      <point x="266" y="917" type="curve"/>
      <point x="136" y="808" type="line" smooth="yes"/>
      <point x="128" y="801"/>
      <point x="123" y="791"/>
      <point x="123" y="773" type="curve" smooth="yes"/>
      <point x="123" y="677" type="line" smooth="yes"/>
      <point x="123" y="673"/>
      <point x="123" y="670"/>
      <point x="124" y="667" type="curve"/>
      <point x="59" y="612" type="line" smooth="yes"/>
      <point x="50" y="604"/>
      <point x="45" y="593"/>
      <point x="45" y="575" type="curve" smooth="yes"/>
      <point x="45" y="-73" type="line" smooth="yes"/>
      <point x="45" y="-105"/>
      <point x="59" y="-119"/>
      <point x="91" y="-119" type="curve" smooth="yes"/>
    </contour>
    <contour>
      <point x="645" y="796" type="curve" smooth="yes"/>
      <point x="296" y="753" type="line" smooth="yes"/>
      <point x="273" y="750"/>
      <point x="262" y="763"/>
      <point x="262" y="786" type="curve" smooth="yes"/>
      <point x="262" y="882" type="line" smooth="yes"/>
      <point x="262" y="907"/>
      <point x="273" y="915"/>
      <point x="298" y="918" type="curve" smooth="yes"/>
      <point x="647" y="961" type="line"/>
      <point x="670" y="964"/>
      <point x="681" y="951"/>
      <point x="681" y="928" type="curve" smooth="yes"/>
      <point x="681" y="832" type="line" smooth="yes"/>
      <point x="681" y="807"/>
      <point x="670" y="799"/>
    </contour>
    <contour>
      <point x="352" y="847" type="line"/>
      <point x="352" y="837" type="line"/>
      <point x="591" y="867" type="line"/>
      <point x="591" y="877" type="line"/>
    </contour>
    <contour>
      <point x="684" y="0" type="curve" smooth="yes"/>
      <point x="220" y="0" type="line" smooth="yes"/>
      <point x="195" y="0"/>
      <point x="184" y="11"/>
      <point x="184" y="36" type="curve" smooth="yes"/>
      <point x="184" y="684" type="line" smooth="yes"/>
      <point x="184" y="709"/>
      <point x="195" y="720"/>
      <point x="220" y="720" type="curve" smooth="yes"/>
      <point x="684" y="720" type="line" smooth="yes"/>
      <point x="709" y="720"/>
      <point x="720" y="709"/>
      <point x="720" y="684" type="curve" smooth="yes"/>
      <point x="720" y="567" type="line" smooth="yes"/>
      <point x="720" y="542"/>
      <point x="709" y="531"/>
      <point x="684" y="531" type="curve" smooth="yes"/>
      <point x="408" y="531" type="line"/>
      <point x="408" y="454" type="line"/>
      <point x="603" y="454" type="line" smooth="yes"/>
      <point x="628" y="454"/>
      <point x="639" y="443"/>
      <point x="639" y="418" type="curve" smooth="yes"/>
      <point x="639" y="311" type="line" smooth="yes"/>
      <point x="639" y="286"/>
      <point x="628" y="275"/>
      <point x="603" y="275" type="curve" smooth="yes"/>
      <point x="408" y="275" type="line"/>
      <point x="408" y="189" type="line"/>
      <point x="684" y="189" type="line" smooth="yes"/>
      <point x="709" y="189"/>
      <point x="720" y="178"/>
      <point x="720" y="153" type="curve" smooth="yes"/>
      <point x="720" y="36" type="line" smooth="yes"/>
      <point x="720" y="11"/>
      <point x="709" y="0"/>
    </contour>
    <contour>
      <point x="630" y="100" type="line"/>
      <point x="303" y="100" type="line"/>
      <point x="303" y="359" type="line"/>
      <point x="549" y="359" type="line"/>
      <point x="549" y="369" type="line"/>
      <point x="303" y="369" type="line"/>
      <point x="303" y="620" type="line"/>
      <point x="630" y="620" type="line"/>
      <point x="630" y="630" type="line"/>
      <point x="293" y="630" type="line"/>
      <point x="293" y="90" type="line"/>
      <point x="630" y="90" type="line"/>
    </contour>
  </outline>
</glyph>
